<svg width="180" height="180" viewBox="0 0 180 180" fill="none" xmlns="http://www.w3.org/2000/svg">
<circle cx="36.3228" cy="61.0693" r="3.53571" fill="#7432FF"/>
<circle cx="127.769" cy="47.0872" r="6.58929" fill="#7432FF"/>
<circle cx="37.4475" cy="135.48" r="6.26786" fill="#7432FF"/>
<circle cx="149.625" cy="129.373" r="6.26786" fill="#7432FF"/>
<circle cx="137.411" cy="136.444" r="3.05357" fill="#7432FF"/>
<path d="M98.6125 51.5991C98.4261 51.5595 98.4261 51.2935 98.6125 51.2539L101.43 50.6547C101.498 50.6403 101.551 50.5874 101.566 50.5195L102.172 47.7218C102.213 47.5364 102.477 47.5364 102.517 47.7218L103.124 50.5195C103.139 50.5874 103.192 50.6403 103.26 50.6547L106.077 51.2539C106.264 51.2935 106.264 51.5595 106.077 51.5991L103.26 52.1983C103.192 52.2127 103.139 52.2656 103.124 52.3335L102.517 55.1312C102.477 55.3166 102.213 55.3166 102.172 55.1312L101.566 52.3335C101.551 52.2656 101.498 52.2127 101.43 52.1983L98.6125 51.5991Z" fill="#7432FF"/>
<path d="M29.9656 101.448C30.0376 101.108 30.5226 101.108 30.5945 101.448L31.669 106.524C31.6952 106.648 31.7915 106.745 31.9151 106.771L36.9388 107.866C37.2762 107.939 37.2762 108.421 36.9388 108.494L31.9151 109.588C31.7915 109.615 31.6952 109.712 31.669 109.836L30.5945 114.912C30.5226 115.252 30.0376 115.252 29.9656 114.912L28.8911 109.836C28.865 109.712 28.7687 109.615 28.6451 109.588L23.6213 108.494C23.284 108.421 23.284 107.939 23.6213 107.866L28.6451 106.771C28.7687 106.745 28.865 106.648 28.8911 106.524L29.9656 101.448Z" fill="#7432FF"/>
<path d="M54.1476 34.5734C54.1875 34.3846 54.457 34.3846 54.497 34.5734L55.0939 37.3933C55.1084 37.462 55.1619 37.5159 55.2305 37.5308L58.0214 38.1388C58.2088 38.1796 58.2088 38.4469 58.0214 38.4877L55.2305 39.0957C55.1619 39.1107 55.1084 39.1645 55.0939 39.2332L54.497 42.0532C54.457 42.242 54.1875 42.242 54.1476 42.0532L53.5507 39.2332C53.5361 39.1645 53.4826 39.1107 53.414 39.0957L50.6231 38.4877C50.4357 38.4469 50.4357 38.1796 50.6231 38.1388L53.414 37.5308C53.4826 37.5159 53.5361 37.462 53.5507 37.3933L54.1476 34.5734Z" fill="#7432FF"/>
<path d="M139.611 62.555C139.683 62.2151 140.168 62.2151 140.24 62.555L140.867 65.5163C140.893 65.64 140.989 65.7369 141.113 65.7638L144.052 66.4041C144.389 66.4776 144.389 66.9587 144.052 67.0322L141.113 67.6725C140.989 67.6994 140.893 67.7963 140.867 67.92L140.24 70.8813C140.168 71.2212 139.683 71.2211 139.611 70.8813L138.984 67.92C138.958 67.7963 138.862 67.6994 138.738 67.6725L135.799 67.0322C135.462 66.9587 135.462 66.4776 135.799 66.4041L138.738 65.7638C138.862 65.7369 138.958 65.64 138.984 65.5163L139.611 62.555Z" fill="#7432FF"/>
<path d="M152.57 110.033L153.554 114.683L158.138 115.682L153.554 116.68L152.57 121.33L151.586 116.68L147.002 115.682L151.586 114.683L152.57 110.033Z" fill="white"/>
<path d="M83.1456 44.0093C84.1706 47.7911 81.7795 51.7876 77.7191 52.8881C73.6587 53.9887 69.5767 51.7466 68.5517 47.9648C67.5267 44.1831 69.9178 40.1865 73.9782 39.086C78.0385 37.9855 82.1206 40.2275 83.1456 44.0093Z" fill="#7432FF" stroke="#7432FF" stroke-width="1.28571"/>
<path d="M73.3765 46.0223L75.7801 45.0501L80.2623 43.8352C83.6713 42.9113 87.2489 42.7958 90.7104 43.4982C91.9964 43.7591 93.2574 44.1311 94.4791 44.6099L99.0185 46.3892L101.727 47.85C103.781 48.9575 105.695 50.3063 107.429 51.8679C109.423 53.6642 111.161 55.7262 112.595 57.9958L115.186 62.1L120.279 73.0575L123.792 80.8004L129.348 89.9872L133.651 97.1635L136.941 101.885C137.947 103.328 139.452 104.348 141.166 104.747C142.458 105.048 143.64 105.704 144.579 106.64L146.203 108.262C146.425 108.483 146.625 108.724 146.801 108.983C147.842 110.512 147.948 112.493 147.075 114.125L146.965 114.331C146.385 115.415 145.451 116.266 144.319 116.742L136.649 119.969L125.023 124.06L104.54 130.118L92.8623 133.283L76.4712 137.22L61.8441 140.244L53.7217 141.339C52.3204 141.528 50.9131 141.037 49.9334 140.018C49.0455 139.094 48.6009 137.831 48.7142 136.555L48.8467 135.061C48.9825 133.531 49.7404 132.123 50.9434 131.166C52.1268 130.226 52.8803 128.847 53.0333 127.343L53.7743 120.056L53.7743 110.471L52.5594 97.2872L51.9138 87.9445L51.5767 83.9512C51.3751 81.5629 51.3684 79.1622 51.5565 76.7728L51.6445 75.6559C51.8568 72.96 52.3843 70.2982 53.2161 67.725C53.9615 65.4195 54.9468 63.1987 56.1559 61.0989L56.5056 60.4917C57.6757 58.4596 59.061 56.5593 60.6374 54.8235C62.2601 53.0368 64.0756 51.4351 66.0507 50.0479L66.2979 49.8743C68.5032 48.3252 70.8781 47.0329 73.3765 46.0223Z" fill="#FFD3D2"/>
<path d="M73.3746 46.0119L75.7781 45.0397L80.2603 43.8249C83.6693 42.9009 87.247 42.7855 90.7085 43.4878C91.9945 43.7487 93.2554 44.1207 94.4771 44.5996L99.0165 46.3788L101.725 47.8396C103.779 48.9471 105.693 50.296 107.427 51.8575C109.421 53.6539 111.159 55.7158 112.593 57.9854L115.184 62.0897L120.277 73.0472L123.79 80.79L129.346 89.9769L133.649 97.1531L136.573 101.154C137.863 102.919 139.758 104.146 141.896 104.6L142.091 104.642C143.458 104.933 144.727 105.571 145.775 106.496L146.388 107.037C147.219 107.769 147.808 108.736 148.078 109.81C148.348 110.885 148.287 112.016 147.901 113.056L147.874 113.128C147.734 113.507 147.554 113.87 147.337 114.211L147.226 114.385C146.507 115.515 145.507 116.437 144.323 117.06L142.316 118.118L138.502 120.127L127.808 124.948L120.576 127.841L114.308 130.252L109.005 132.019L103.54 133.948L98.8796 135.234L95.6653 136.037L86.9867 137.805L78.7903 139.412L63.3617 141.629L58.6454 142.151C57.7212 142.253 56.7883 142.25 55.8648 142.142L53.4865 141.863C52.1959 141.712 50.9979 141.117 50.0976 140.18C49.0943 139.136 48.534 137.744 48.534 136.297L48.534 135.789C48.534 135.419 48.5638 135.05 48.6232 134.686L48.657 134.478C48.9195 132.866 49.5945 131.35 50.6163 130.076L51.3018 129.222C53.3987 126.609 54.4591 123.314 54.2804 119.968L53.7724 110.46L52.5574 97.2768L51.9118 87.9341L51.5748 83.9409C51.3732 81.5525 51.3664 79.1518 51.5546 76.7624L51.6425 75.6456C51.8548 72.9496 52.3823 70.2878 53.2142 67.7147C53.9595 65.4092 54.9448 63.1883 56.154 61.0885L56.5037 60.4813C57.6738 58.4493 59.059 56.549 60.6355 54.8131C62.2582 53.0264 64.0737 51.4248 66.0488 50.0375L66.2959 49.8639C68.5013 48.3149 70.8762 47.0225 73.3746 46.0119Z" fill="#EAD6FF" stroke="#7432FF" stroke-width="1.28571"/>
<ellipse cx="97.6931" cy="124.609" rx="43.8954" ry="7.67571" transform="rotate(-15.4595 97.6931 124.609)" fill="#7432FF"/>
<path d="M90.5158 126.992L90.0384 126.482C89.5295 125.939 89.095 125.33 88.7463 124.671C88.508 124.222 88.311 123.751 88.1577 123.266L87.33 120.645L89.2716 119.956L91.2184 119.233L96.0069 117.942L101.4 116.507L104.573 115.817L104.71 116.286C105.169 117.857 105.382 119.49 105.341 121.127L105.23 122.299C105.097 123.685 104.627 125.017 103.859 126.179L103.818 126.241C103.504 126.715 103.14 127.153 102.731 127.549C101.589 128.654 100.136 129.384 98.5678 129.643L97.9948 129.737C97.5067 129.818 97.0122 129.852 96.5176 129.84C94.8959 129.799 93.3262 129.259 92.0231 128.292L91.7295 128.075C91.2932 127.751 90.887 127.389 90.5158 126.992Z" fill="#ABBED1" stroke="#7432FF" stroke-width="1.28571"/>
</svg>
