<svg width="201" height="163" viewBox="0 0 201 163" fill="none" xmlns="http://www.w3.org/2000/svg">
<g id="Chats illustration">
<path id="Background" d="M97.2736 162.844C142.742 162.844 179.601 126.39 179.601 81.422C179.601 36.4539 142.742 0 97.2736 0C51.8055 0 14.9463 36.4539 14.9463 81.422C14.9463 126.39 51.8055 162.844 97.2736 162.844Z" fill="url(#paint0_linear_1126_1405)"/>
<g id="Doodles">
<path id="Vector" fill-rule="evenodd" clip-rule="evenodd" d="M168.306 133.325C169.056 133.061 169.845 132.71 170.454 132.201C171.177 131.597 171.471 130.818 171.669 129.999C171.922 128.947 172.024 127.826 172.331 126.771C172.445 126.38 172.664 126.232 172.758 126.166C172.995 126 173.236 125.956 173.462 125.973C173.729 125.992 174.097 126.092 174.339 126.536C174.373 126.6 174.418 126.696 174.448 126.829C174.47 126.926 174.485 127.23 174.508 127.356C174.566 127.664 174.615 127.973 174.661 128.284C174.813 129.317 174.9 130.194 175.381 131.144C176.033 132.432 176.687 133.221 177.574 133.57C178.431 133.908 179.456 133.844 180.765 133.579C180.89 133.55 181.013 133.524 181.135 133.503C181.712 133.403 182.264 133.778 182.378 134.347C182.491 134.915 182.124 135.469 181.552 135.594C181.433 135.62 181.315 135.645 181.199 135.668C179.429 136.101 177.38 137.647 176.19 139.001C175.823 139.419 175.286 140.586 174.738 141.33C174.333 141.88 173.879 142.242 173.497 142.369C173.242 142.456 173.026 142.442 172.848 142.399C172.589 142.336 172.375 142.197 172.21 141.977C172.12 141.856 172.037 141.694 171.997 141.488C171.978 141.389 171.976 141.136 171.977 141.022C171.865 140.642 171.728 140.271 171.629 139.888C171.391 138.973 170.925 138.394 170.371 137.629C169.853 136.913 169.297 136.463 168.482 136.104C168.376 136.078 167.52 135.871 167.218 135.752C166.776 135.578 166.566 135.286 166.489 135.128C166.36 134.861 166.346 134.628 166.372 134.434C166.411 134.147 166.541 133.901 166.772 133.703C166.915 133.579 167.129 133.46 167.415 133.401C167.636 133.356 168.223 133.329 168.306 133.325ZM173.327 131.834C173.366 131.922 173.409 132.01 173.453 132.098C174.409 133.986 175.477 135.04 176.776 135.551L176.82 135.567C175.951 136.205 175.164 136.918 174.563 137.602C174.316 137.883 173.988 138.468 173.634 139.068C173.312 138.034 172.786 137.303 172.125 136.388C171.62 135.69 171.09 135.165 170.439 134.736C170.944 134.48 171.426 134.18 171.846 133.829C172.544 133.246 173.006 132.569 173.327 131.834Z" fill="#417BA4"/>
<ellipse id="Ellipse 67" cx="3.89908" cy="65.5555" rx="3.89908" ry="3.85621" fill="#417BA4"/>
<g id="Jump">
<path id="Vector_2" d="M37.6147 30.9999L37.2701 31.0993C37.4438 31.7017 38.0765 32.0426 38.6764 31.8689L38.6769 31.8688C39.2738 31.6952 39.6265 31.0686 39.4483 30.466C38.304 26.5647 36.0417 23.5063 32.5882 21.3011L37.6147 30.9999ZM37.6147 30.9999C37.7326 31.4086 38.164 31.6439 38.5767 31.5244L38.5767 31.5244L37.6147 30.9999ZM37.6147 30.9999L37.2705 31.1008C36.2828 27.7326 34.3433 25.1061 31.3642 23.2048L31.3641 23.2047M37.6147 30.9999L31.3641 23.2047M31.3641 23.2047C30.838 22.8686 30.6817 22.1684 31.023 21.6417M31.3641 23.2047L31.023 21.6417M31.023 21.6417C31.3605 21.1161 32.063 20.9656 32.5881 21.301L31.023 21.6417Z" fill="#7432FF" stroke="#7432FF" stroke-width="0.717375"/>
<path id="Vector_3" d="M74.0712 32.2911L74.0715 32.291C74.8496 31.8977 75.1296 31.145 75.0583 30.3406C74.9955 29.6055 74.6039 28.7857 74.3921 28.4134C73.9609 27.6545 73.4611 26.9387 72.9076 26.2703C75.591 21.212 81.5166 19.1536 86.7546 21.5321L86.7551 21.5323C87.3251 21.7902 87.9955 21.541 88.2585 20.975L88.2595 20.9729L88.2594 20.9729C88.5188 20.4048 88.2681 19.7336 87.6964 19.4748C81.5768 16.696 74.6639 18.913 71.2666 24.5666C70.7668 24.1178 70.2394 23.6992 69.6913 23.3123L69.6912 23.3123C63.3593 18.8471 54.1125 20.3362 47.0856 26.8977L47.0856 26.8978C45.951 27.9577 45.0682 29.5046 44.3859 31.328C43.7021 33.1549 43.2108 35.2834 42.8733 37.5312C42.2266 41.8358 42.1068 46.6104 42.1412 50.4674C41.4121 48.7681 40.5959 47.1138 39.7284 45.4649L39.7284 45.4649C39.3867 44.8156 39.0454 44.163 38.7031 43.5085C34.6152 35.6923 30.3881 27.6099 23.6233 21.6374L23.6223 21.6365C23.1534 21.2256 22.4378 21.2649 22.0227 21.7324C21.6038 22.2007 21.6509 22.9164 22.1181 23.3293L22.1182 23.3294C28.5917 29.0462 32.6372 36.7913 36.6218 44.4197C36.9873 45.1196 37.3524 45.8186 37.7188 46.5149L37.7188 46.5149C39.083 49.107 40.3058 51.6922 41.2502 54.4459L41.2504 54.4467C41.287 54.5524 41.3235 54.6578 41.36 54.763C41.6097 55.4834 41.8552 56.1912 42.0634 56.914C42.0635 56.9146 42.0652 56.9227 42.0659 56.9416C42.0669 56.9643 42.0663 56.9937 42.0639 57.0328C42.062 57.064 42.0594 57.0955 42.0564 57.1317C42.0556 57.1417 42.0547 57.1521 42.0538 57.163C42.05 57.2103 42.0459 57.2642 42.044 57.319L42.0439 57.3227C42.0376 57.5938 42.0484 57.8829 42.1082 58.1114L42.1089 58.114C42.2217 58.5317 42.4726 58.8222 42.7886 58.9875L42.7905 58.9885C43.022 59.108 43.3094 59.1736 43.6538 59.1124L43.6575 59.1118C43.9014 59.0657 44.2932 58.9289 44.504 58.4329C44.5297 58.3734 44.5444 58.3027 44.5539 58.2503C44.5654 58.1861 44.5761 58.1069 44.5847 58.0141C44.6021 57.8281 44.6125 57.5783 44.6044 57.2702L44.6044 57.2694C44.5954 56.9551 44.5792 56.5435 44.5598 56.049C44.4305 52.7532 44.1567 45.7788 44.9061 39.4492C45.1826 37.1121 45.5849 34.8747 46.189 32.9707C46.7949 31.0608 47.5927 29.5224 48.6366 28.5473C54.9008 22.6982 62.9508 21.3302 68.3809 25.1578C69.0655 25.6404 69.7077 26.1787 70.298 26.7686C70.1955 27.2999 70.1344 27.9688 70.1436 28.6493C70.154 29.4129 70.2533 30.2209 70.502 30.8778L70.502 30.878C70.7631 31.5666 71.1924 32.1216 71.7798 32.412L74.0712 32.2911ZM74.0712 32.2911C73.1669 32.7474 72.3958 32.7172 71.78 32.4121L74.0712 32.2911ZM72.7338 30.3218C72.7485 30.3458 72.7606 30.3611 72.7697 30.3708C72.7135 30.1355 72.6069 29.8911 72.5121 29.7036C72.5434 29.8372 72.5809 29.9633 72.6249 30.0789L72.6251 30.0793C72.6668 30.1893 72.6995 30.2657 72.7338 30.3218Z" fill="#7432FF" stroke="#7432FF" stroke-width="0.717375"/>
</g>
</g>
<g id="Chats vector">
<g id="Chat right">
<rect id="Rectangle Background" x="59.2773" y="42.244" width="141.722" height="50.5272" rx="17.217" fill="#7432FF"/>
<ellipse id="Person" cx="182.24" cy="67.2831" rx="8.23965" ry="8.28315" fill="#EAD6FF"/>
<g id="Information vector">
<g id="Information">
<rect id="Title" x="103.958" y="59.6386" width="66.6179" height="9.23718" rx="4.61859" fill="#CCC6D9"/>
<rect id="Text" x="76.6357" y="69.5784" width="94.1729" height="6.62652" rx="3.31326" fill="white"/>
</g>
</g>
</g>
<g id="Chat left">
<rect id="Rectangle Background_2" y="84.4881" width="141.722" height="50.5272" rx="17.217" fill="#EAD6FF"/>
<g id="Information chat">
<g id="Information_2">
<rect id="Title_2" x="35.4297" y="101.883" width="47.79" height="6.62652" rx="3.31326" fill="#7432FF"/>
<rect id="Text_2" x="35.4297" y="111.823" width="94.1729" height="6.62652" rx="3.31326" fill="white"/>
</g>
<ellipse id="Person_2" cx="20.599" cy="110.166" rx="8.23965" ry="8.28315" fill="#7432FF"/>
</g>
</g>
</g>
</g>
<defs>
<linearGradient id="paint0_linear_1126_1405" x1="96.639" y1="-26.513" x2="98.2886" y2="259.429" gradientUnits="userSpaceOnUse">
<stop stop-color="#F2F2F2"/>
<stop offset="1" stop-color="#EFEFEF"/>
</linearGradient>
</defs>
</svg>
