<svg width="240" height="169" viewBox="0 0 240 169" fill="none" xmlns="http://www.w3.org/2000/svg">
<g filter="url(#filter0_i_2463_2102)">
<path d="M231.979 52.1557C220.995 32.1339 196.445 19.7055 174.276 25.188C162.199 28.1892 151.63 35.8707 139.446 38.3963C129.107 40.4969 118.357 38.7562 109.209 33.5002C95.8368 25.7545 87.3009 11.2069 73.5394 4.18428C54.5734 -5.5075 29.8808 2.55343 16.2896 18.9494C-15.8966 57.7775 3.71522 113.684 39.4818 141.967C57.6264 156.316 68.0525 161.285 94.2835 167.133C116.565 172.122 154.465 164.858 176.278 158.096C198.09 151.334 218.146 137.412 229.618 117.658C241.09 97.9049 242.968 72.1754 231.979 52.1557Z" fill="#F1F1FA"/>
</g>
<mask id="mask0_2463_2102" style="mask-type:alpha" maskUnits="userSpaceOnUse" x="0" y="0" width="240" height="169">
<path d="M231.979 52.1557C220.995 32.1339 196.445 19.7055 174.276 25.188C162.199 28.1892 151.63 35.8707 139.446 38.3963C129.107 40.4969 118.357 38.7562 109.209 33.5002C95.8368 25.7545 87.3009 11.2069 73.5394 4.18428C54.5734 -5.5075 29.8808 2.55343 16.2896 18.9494C-15.8966 57.7775 3.71522 113.684 39.4818 141.967C57.6264 156.316 68.0525 161.285 94.2835 167.133C116.565 172.122 154.465 164.858 176.278 158.096C198.09 151.334 218.146 137.412 229.618 117.658C241.09 97.9049 242.968 72.1754 231.979 52.1557Z" fill="#F1F1FA"/>
</mask>
<g mask="url(#mask0_2463_2102)">
<path d="M170.902 144.969L173.51 146.034L20.7428 188.43C-24.3398 183.642 -110.511 168.458 -94.5332 146.034C-74.5614 118.003 -52.1369 101.185 0.42057 101.185C63.6729 101.185 72.1061 104.628 170.902 144.969Z" fill="#BBBBD6"/>
<path d="M188.371 125.675C215.828 125.675 237.947 131.761 261.209 161.048L186.846 195.28C137.779 190.082 68.0168 195.66 85.4063 171.318C107.143 140.889 131.168 125.675 188.371 125.675Z" fill="#BBBBD6" stroke="#F1F1FA" stroke-width="2.80306"/>
<path d="M165 178H75V81C79.242 80.9952 83.3089 79.308 86.3084 76.3085C89.308 73.3089 90.9952 69.242 91 65H149C148.996 67.1014 149.408 69.1828 150.213 71.1238C151.018 73.0648 152.2 74.8268 153.691 76.308C155.172 77.7991 156.934 78.9816 158.875 79.787C160.817 80.5924 162.898 81.0047 165 81V178Z" fill="white"/>
</g>
<path d="M119.5 152C135.792 152 149 138.792 149 122.5C149 106.208 135.792 93 119.5 93C103.208 93 90 106.208 90 122.5C90 138.792 103.208 152 119.5 152Z" fill="#7432FF"/>
<path d="M129.684 136.159L119.254 125.729L108.824 136.159L105.347 132.683L115.777 122.253L105.347 111.823L108.824 108.346L119.254 118.776L129.684 108.346L133.16 111.823L122.731 122.253L133.16 132.683L129.684 136.159Z" fill="white"/>
<defs>
<filter id="filter0_i_2463_2102" x="0" y="0" width="239.296" height="172.742" filterUnits="userSpaceOnUse" color-interpolation-filters="sRGB">
<feFlood flood-opacity="0" result="BackgroundImageFix"/>
<feBlend mode="normal" in="SourceGraphic" in2="BackgroundImageFix" result="shape"/>
<feColorMatrix in="SourceAlpha" type="matrix" values="0 0 0 0 0 0 0 0 0 0 0 0 0 0 0 0 0 0 127 0" result="hardAlpha"/>
<feOffset dy="3.95626"/>
<feGaussianBlur stdDeviation="5.27501"/>
<feComposite in2="hardAlpha" operator="arithmetic" k2="-1" k3="1"/>
<feColorMatrix type="matrix" values="0 0 0 0 0 0 0 0 0 0 0 0 0 0 0 0 0 0 0.25 0"/>
<feBlend mode="normal" in2="shape" result="effect1_innerShadow_2463_2102"/>
</filter>
</defs>
</svg>
