<svg width="240" height="169" viewBox="0 0 240 169" fill="none" xmlns="http://www.w3.org/2000/svg">
<g filter="url(#filter0_i_2463_2160)">
<path d="M231.979 52.1557C220.995 32.1339 196.445 19.7055 174.276 25.188C162.199 28.1892 151.63 35.8707 139.446 38.3963C129.107 40.4969 118.357 38.7562 109.209 33.5002C95.8368 25.7545 87.3009 11.2069 73.5394 4.18428C54.5734 -5.5075 29.8808 2.55343 16.2896 18.9494C-15.8966 57.7775 3.71522 113.684 39.4818 141.967C57.6264 156.316 68.0525 161.285 94.2835 167.133C116.565 172.122 154.465 164.858 176.278 158.096C198.09 151.334 218.146 137.412 229.618 117.658C241.09 97.9049 242.968 72.1754 231.979 52.1557Z" fill="#F1F1FA"/>
</g>
<mask id="mask0_2463_2160" style="mask-type:alpha" maskUnits="userSpaceOnUse" x="0" y="0" width="240" height="169">
<path d="M231.979 52.1557C220.995 32.1339 196.445 19.7055 174.276 25.188C162.199 28.1892 151.63 35.8707 139.446 38.3963C129.107 40.4969 118.357 38.7562 109.209 33.5002C95.8368 25.7545 87.3009 11.2069 73.5394 4.18428C54.5734 -5.5075 29.8808 2.55343 16.2896 18.9494C-15.8966 57.7775 3.71522 113.684 39.4818 141.967C57.6264 156.316 68.0525 161.285 94.2835 167.133C116.565 172.122 154.465 164.858 176.278 158.096C198.09 151.334 218.146 137.412 229.618 117.658C241.09 97.9049 242.968 72.1754 231.979 52.1557Z" fill="#F1F1FA"/>
</mask>
<g mask="url(#mask0_2463_2160)">
<path d="M170.902 144.969L173.51 146.034L20.7428 188.43C-24.3398 183.642 -110.511 168.458 -94.5332 146.034C-74.5614 118.003 -52.1369 101.185 0.42057 101.185C63.6729 101.185 72.1061 104.628 170.902 144.969Z" fill="#BBBBD6"/>
<path d="M188.371 125.675C215.828 125.675 237.947 131.761 261.209 161.048L186.846 195.28C137.779 190.082 68.0168 195.66 85.4063 171.318C107.143 140.889 131.168 125.675 188.371 125.675Z" fill="#BBBBD6" stroke="#F1F1FA" stroke-width="2.80306"/>
<path d="M82.7051 85.0922C82.7051 85.3615 82.6252 85.6246 82.4755 85.8484C82.3258 86.0722 82.113 86.2465 81.8641 86.3492C81.6153 86.4519 81.3415 86.4785 81.0775 86.4255C80.8136 86.3725 80.5713 86.2423 80.3814 86.0515C80.1914 85.8607 80.0624 85.6178 80.0107 85.3536C79.959 85.0894 79.9868 84.8157 80.0907 84.5674C80.1946 84.319 80.3699 84.1071 80.5944 83.9584C80.8189 83.8098 81.0825 83.7311 81.3517 83.7324C81.53 83.7324 81.7065 83.7676 81.8711 83.836C82.0357 83.9044 82.1852 84.0047 82.311 84.1311C82.4367 84.2574 82.5363 84.4074 82.6039 84.5723C82.6716 84.7373 82.706 84.914 82.7051 85.0922Z" fill="#263238"/>
<path d="M89.2085 79.7559C89.9596 79.7559 90.5684 79.147 90.5684 78.396C90.5684 77.645 89.9596 77.0361 89.2085 77.0361C88.4575 77.0361 87.8486 77.645 87.8486 78.396C87.8486 79.147 88.4575 79.7559 89.2085 79.7559Z" fill="#263238"/>
<path d="M70.8535 101.855C70.8548 102.125 70.7761 102.388 70.6275 102.613C70.4788 102.837 70.2669 103.012 70.0185 103.116C69.7702 103.22 69.4965 103.248 69.2323 103.196C68.9681 103.145 68.7252 103.016 68.5344 102.826C68.3435 102.636 68.2134 102.393 68.1604 102.13C68.1074 101.866 68.134 101.592 68.2367 101.343C68.3394 101.094 68.5137 100.881 68.7375 100.732C68.9612 100.582 69.2244 100.502 69.4936 100.502C69.6719 100.501 69.8486 100.535 70.0136 100.603C70.1785 100.671 70.3285 100.77 70.4548 100.896C70.5812 101.022 70.6815 101.171 70.7499 101.336C70.8183 101.501 70.8535 101.677 70.8535 101.855Z" fill="#263238"/>
<path d="M-58.1331 140.354C-58.1677 140.266 -58.2022 140.178 -58.2367 140.09C-42.6822 152.62 -25.8711 159.89 -12.1118 159.544L1.15173 160.362C-3.08977 161.842 -7.53692 162.649 -12.0281 162.753C-26.6451 163.146 -39.8764 158.577 -56.0982 145.449C-56.8776 143.783 -57.6295 142.026 -58.3541 140.176C-58.2804 140.236 -58.2068 140.295 -58.1331 140.354ZM-58.1331 140.354C-57.4416 142.106 -56.7254 143.775 -55.9845 145.36M-58.1331 140.354C-42.619 152.8 -25.8576 160.03 -12.1083 159.684H-12.1081C-8.56444 159.591 -5.04838 159.032 -1.65039 158.022L-1.42933 157.956L-1.58896 157.79C-5.33038 153.889 -7.22121 148.789 -7.19555 142.581V142.581C-7.19555 135.792 -4.28313 132.739 -1.89137 131.373L-1.89116 131.372C1.50357 129.424 6.1666 129.683 10.2713 132.074C14.795 134.713 17.4772 139.167 17.4584 143.991C17.4274 145.97 16.9476 147.916 16.0553 149.683C15.1628 151.45 13.881 152.992 12.3064 154.192L12.306 154.192C9.94215 156.006 7.38058 157.546 4.67022 158.784L4.41526 158.9L4.66098 159.035C12.47 163.32 21.5287 164.747 30.2769 163.072L30.2778 163.072C44.0279 160.342 55.5211 155.463 64.4295 148.563C71.4037 143.204 77.0044 136.263 80.77 128.314C84.5352 120.366 86.3579 111.637 86.0878 102.846L86.0879 102.79L86.0876 102.783C85.2925 86.8497 75.993 71.2876 62.3796 63.1299C50.575 56.051 35.4557 54.1161 19.8172 57.6674L19.8484 57.8046L19.8172 57.6674C10.1029 59.8749 -3.14027 65.1143 -10.9484 77.5543L-10.8293 77.629L-10.9485 77.5543C-15.1547 84.2583 -16.6878 91.7687 -16.3021 98.5692C-15.9165 105.367 -13.6123 111.468 -10.1284 115.348C-7.62437 118.14 -3.98107 119.022 -0.035511 119.015C3.88117 119.009 8.12422 118.127 11.8996 117.343L11.9818 117.326L11.982 117.325L14.4814 116.81C14.4815 116.81 14.4815 116.81 14.4816 116.81C16.5376 116.401 20.151 115.12 24.4056 113.435C28.6645 111.749 33.5775 109.652 38.2382 107.605C42.8991 105.558 47.3087 103.56 50.5611 102.072C52.1873 101.327 53.5242 100.71 54.4586 100.278C54.825 100.108 55.1295 99.9669 55.3653 99.8576L55.5441 99.7748L55.7886 99.6616L56.4172 102.026C56.4064 102.031 56.3951 102.036 56.3833 102.041C56.3051 102.077 56.1974 102.127 56.0623 102.191C55.792 102.318 55.4102 102.499 54.9311 102.726C54.7744 102.8 54.6073 102.88 54.4302 102.964C53.524 103.394 52.357 103.948 50.9933 104.592C47.7331 106.131 43.3491 108.183 38.7197 110.281C34.0902 112.38 29.2163 114.524 24.9762 116.247C20.7319 117.973 17.1344 119.271 15.0517 119.686C14.2513 119.841 13.4255 120.015 12.5813 120.195C8.38912 121.076 3.69094 122.059 -0.728096 121.969C-5.144 121.878 -9.26161 120.715 -12.3101 117.319C-16.7424 112.375 -19.2154 105.231 -19.2604 97.1949V97.1948C-19.3096 89.7276 -17.2914 82.3925 -13.4294 76.0015C-5.07999 62.7267 8.89358 57.1519 19.1705 54.7966C35.5563 51.0781 51.4371 53.1389 63.885 60.5806C78.2809 69.2569 88.1163 85.7582 88.9904 102.61L88.9907 102.614C89.0606 103.466 89.9233 115.761 83.3451 129.676C79.398 138.009 73.5223 145.282 66.2046 150.892L66.2041 150.893C56.9379 158.069 45.0428 163.115 30.8157 165.96C28.2483 166.47 25.6369 166.726 23.0193 166.724C20.2273 166.724 17.4435 166.422 14.7161 165.825M14.7161 165.825C14.7161 165.825 14.7162 165.825 14.7162 165.825L14.686 165.963L14.7161 165.825Z" fill="#7432FF" stroke="black" stroke-width="0.28128"/>
<path d="M3.71732 162.025C3.28353 161.904 2.87524 161.705 2.51213 161.438C1.59543 160.859 0.722971 160.213 -0.0980556 159.505C-0.932476 158.816 -1.71049 158.062 -2.42466 157.249C-2.74604 156.93 -3.00216 156.551 -3.17871 156.134C-3.14004 156.134 -2.83714 156.521 -2.2571 157.101C-1.67706 157.681 -0.852109 158.454 0.101734 159.26C1.05558 160.066 1.9643 160.762 2.63457 161.232C3.01382 161.47 3.37565 161.735 3.71732 162.025Z" fill="#263238"/>
<path d="M7.09402 160.143C6.5915 160.115 6.0991 159.99 5.64392 159.776C4.5268 159.316 3.48423 158.692 2.55037 157.926C1.61242 157.168 0.766647 156.303 0.0304177 155.348C-0.298994 154.963 -0.564468 154.528 -0.755859 154.059C-0.71719 154.059 -0.394942 154.497 0.204432 155.187C0.987465 156.084 1.85033 156.908 2.78239 157.649C3.6974 158.398 4.69927 159.034 5.76636 159.544C6.55264 159.956 7.10691 160.091 7.09402 160.143Z" fill="#263238"/>
<path d="M75.0622 139.197C74.8008 139.698 74.4853 140.17 74.1212 140.602C72.4658 142.766 70.5575 144.724 68.4368 146.435C68.0157 146.811 67.5529 147.137 67.0576 147.408C67.4359 147.005 67.843 146.63 68.2757 146.286C69.0491 145.597 70.0996 144.624 71.2081 143.496C72.3166 142.368 73.2576 141.279 73.9279 140.486C74.274 140.029 74.6531 139.598 75.0622 139.197Z" fill="white"/>
<path d="M101.582 103.931L95.8529 74.4775C95.7249 73.9182 95.3844 73.4307 94.9035 73.1178C94.4226 72.8049 93.8388 72.6913 93.2757 72.8009C92.7125 72.9105 92.214 73.2348 91.8855 73.7052C91.5571 74.1756 91.4244 74.7553 91.5155 75.3218L91.7797 76.6623L79.9276 79.5754C78.6708 79.8835 77.5088 80.4953 76.5435 81.3572C75.5783 82.2191 74.8393 83.3046 74.3914 84.5186L67.244 86.2781C66.0546 86.5708 65.0301 87.3238 64.3957 88.3716C63.7612 89.4194 63.5687 90.6762 63.8605 91.8658L64.5049 94.4438L57.5123 96.171C57.0489 96.2853 56.6125 96.4897 56.2282 96.7726C55.8438 97.0554 55.5189 97.4113 55.272 97.8197C55.0251 98.2282 54.8611 98.6812 54.7894 99.1531C54.7176 99.6249 54.7395 100.106 54.8537 100.57C54.968 101.033 55.1724 101.469 55.4553 101.854C55.7382 102.238 56.094 102.563 56.5025 102.81C56.9109 103.057 57.364 103.221 57.8358 103.293C58.3076 103.364 58.789 103.342 59.2524 103.228L66.2515 101.507L66.7478 103.525C67.0405 104.714 67.7935 105.739 68.8413 106.373C69.8891 107.007 71.1458 107.2 72.3355 106.908L79.6118 105.116V105.058C80.5651 105.874 81.6989 106.451 82.9194 106.741C84.1399 107.031 85.4119 107.027 86.6303 106.728L97.1483 104.15L97.2708 104.794C97.3988 105.354 97.7392 105.841 98.2202 106.154C98.7011 106.467 99.2848 106.58 99.848 106.471C100.411 106.361 100.91 106.037 101.238 105.567C101.567 105.096 101.699 104.516 101.608 103.95L101.582 103.931Z" fill="#7432FF"/>
<path d="M101.583 103.931C101.628 104.092 101.647 104.259 101.641 104.427C101.632 104.926 101.455 105.408 101.138 105.793C100.877 106.105 100.538 106.341 100.154 106.477C99.7714 106.613 99.3588 106.644 98.9597 106.567C98.5693 106.484 98.2078 106.298 97.9123 106.03C97.6168 105.762 97.3978 105.42 97.2776 105.039C97.1938 104.756 97.1552 104.466 97.0907 104.169L97.1745 104.221L89.4406 106.154L87.1269 106.734C86.3078 106.97 85.4592 107.087 84.607 107.082C82.7411 107.046 80.9457 106.363 79.5284 105.149L79.7218 105.026V105.078L79.754 105.2H79.6315C77.176 105.8 74.6045 106.489 71.8396 107.102C71.1022 107.196 70.3529 107.117 69.6513 106.871C68.9498 106.625 68.3154 106.218 67.7987 105.684C67.2627 105.132 66.8709 104.457 66.658 103.718C66.4582 102.983 66.2906 102.249 66.1037 101.507L66.2777 101.617L60.3742 103.106C59.865 103.215 59.3817 103.37 58.8339 103.454C58.1358 103.539 57.4278 103.427 56.7897 103.132C56.1516 102.836 55.6087 102.368 55.2222 101.781C54.8357 101.193 54.6209 100.509 54.602 99.8063C54.583 99.1033 54.7608 98.409 55.1152 97.8016C55.4138 97.3095 55.8156 96.8881 56.293 96.5665C56.7703 96.245 57.3118 96.0308 57.88 95.939L64.4667 94.3213L64.3507 94.5082C64.2218 93.9733 64.0864 93.419 63.9447 92.8583C63.7777 92.2827 63.6592 91.6942 63.5902 91.0989C63.502 89.8706 63.8923 88.6559 64.6794 87.7089C65.0641 87.2436 65.5345 86.8563 66.065 86.5681C66.5935 86.2969 67.1576 86.1017 67.7407 85.9881L74.3531 84.364L74.25 84.4606C74.8807 82.7741 76.0525 81.344 77.582 80.3939C78.3281 79.9395 79.1418 79.6066 79.9924 79.4078L82.4415 78.802L91.7479 76.527L91.6448 76.6881C91.5739 76.3401 91.5094 75.9856 91.4386 75.6376C91.3467 75.2822 91.3226 74.9127 91.3676 74.5484C91.4255 74.188 91.5669 73.8461 91.7805 73.5501C91.9941 73.2542 92.274 73.0123 92.5978 72.8438C92.9216 72.6753 93.2803 72.5849 93.6453 72.5799C94.0102 72.5748 94.3713 72.6553 94.6997 72.8147C95.0211 72.9616 95.3045 73.1804 95.528 73.4542C95.7515 73.7279 95.9091 74.0494 95.9886 74.3937L97.4001 81.6829C98.2766 86.2588 99.0435 90.2546 99.6751 93.5608C100.307 96.867 100.79 99.445 101.132 101.23C101.293 102.107 101.415 102.783 101.499 103.254C101.538 103.479 101.57 103.647 101.589 103.776C101.595 103.836 101.595 103.896 101.589 103.956C101.568 103.9 101.553 103.842 101.544 103.782C101.544 103.654 101.48 103.486 101.435 103.267L101.016 101.243C100.661 99.4643 100.146 96.8735 99.4882 93.593C98.8308 90.3126 98.051 86.2974 97.1487 81.728C96.6976 79.4422 96.2185 77.0168 95.7115 74.4517C95.6405 74.148 95.5015 73.8644 95.3051 73.6221C95.1086 73.3799 94.8597 73.1853 94.5772 73.0532C94.2861 72.9147 93.9665 72.8464 93.6441 72.8537C93.3218 72.8611 93.0057 72.9439 92.7212 73.0956C92.4366 73.2473 92.1916 73.4635 92.0058 73.727C91.82 73.9905 91.6986 74.2939 91.6512 74.6128C91.6057 74.9468 91.6276 75.2865 91.7157 75.6118C91.7866 75.9598 91.8575 76.3079 91.9219 76.6623V76.7912L91.793 76.8234L82.493 79.1243C80.8883 79.569 79.161 79.7688 77.7238 80.6775C76.2459 81.5913 75.1126 82.9694 74.5014 84.596L74.4692 84.6733H74.3918L67.7794 86.3039C67.2232 86.4092 66.6849 86.5937 66.181 86.8517C65.6889 87.1228 65.2517 87.4834 64.8921 87.9151C64.1551 88.7979 63.79 89.9326 63.8738 91.0795C63.94 91.6578 64.0565 92.2293 64.2218 92.7874C64.3571 93.3546 64.4989 93.9088 64.6278 94.4438L64.6665 94.592L64.5118 94.6307L57.9638 96.2483C57.434 96.3254 56.9279 96.5191 56.482 96.8156C56.0362 97.1121 55.6618 97.5039 55.3858 97.9627C55.0676 98.5189 54.91 99.1526 54.9307 99.7931C54.9513 100.434 55.1494 101.056 55.5029 101.59C55.8564 102.125 56.3514 102.551 56.9327 102.821C57.514 103.091 58.1587 103.194 58.7952 103.119C59.285 103.054 59.8006 102.893 60.3033 102.777L66.2004 101.333L66.3422 101.301L66.3744 101.436C66.5613 102.178 66.7288 102.925 66.9222 103.641C67.1217 104.336 67.4891 104.971 67.992 105.49C68.4779 105.994 69.0744 106.379 69.7343 106.612C70.3943 106.846 71.0997 106.923 71.7945 106.837C74.5078 106.231 77.1244 105.548 79.5671 104.962L79.4833 105.11V105.058L79.3931 104.691L79.6766 104.936C81.0523 106.115 82.7956 106.778 84.607 106.812C85.4395 106.819 86.2686 106.706 87.0689 106.476L89.3826 105.916L97.1165 104.04H97.1874V104.111C97.2518 104.408 97.2905 104.71 97.3679 104.975C97.4452 105.235 97.5721 105.478 97.7417 105.69C98.0564 106.073 98.4894 106.341 98.9726 106.451C99.2817 106.514 99.6009 106.51 99.9083 106.439C100.216 106.367 100.504 106.23 100.753 106.036C101.002 105.843 101.207 105.598 101.352 105.318C101.498 105.037 101.581 104.729 101.596 104.414C101.599 104.253 101.595 104.091 101.583 103.931Z" fill="#263238"/>
<path d="M97.3806 104.085C97.2968 104.085 95.9176 97.9884 94.2999 90.435C92.6822 82.8816 91.4319 76.7332 91.5222 76.7139C91.6124 76.6945 92.9851 82.8043 94.6093 90.3641C96.2334 97.924 97.4708 104.066 97.3806 104.085Z" fill="#263238"/>
<path d="M79.5857 105.039C79.5019 105.039 78.2968 100.47 76.8402 94.7918C75.3837 89.1139 74.3203 84.48 74.404 84.48C74.4878 84.48 75.693 89.0494 77.1495 94.7402C78.6061 100.431 79.6695 105.039 79.5857 105.039Z" fill="#263238"/>
<path d="M66.2386 101.507C65.7658 100.39 65.422 99.2224 65.2138 98.0271C64.9053 96.8568 64.6685 95.6687 64.5049 94.4695C64.9742 95.5898 65.3158 96.7594 65.5232 97.9562C65.8321 99.1246 66.0709 100.31 66.2386 101.507Z" fill="#263238"/>
<path d="M72.5935 86.2136C72.5935 86.2587 71.9038 86.3618 70.7953 86.5939C70.2411 86.7099 69.5837 86.8581 68.8619 87.0579C68.0853 87.2573 67.3364 87.5517 66.6319 87.9344C65.9164 88.2592 65.3517 88.8447 65.0529 89.5714C64.9081 90.2065 64.895 90.8645 65.0143 91.5049C65.1561 92.6198 65.343 93.303 65.2978 93.3159C65.0358 92.7533 64.864 92.1531 64.7887 91.5371C64.6421 90.8661 64.6421 90.1714 64.7887 89.5005C64.9037 89.0944 65.1264 88.7269 65.4332 88.4371C65.7483 88.1348 66.1014 87.8748 66.4837 87.6637C67.2088 87.2638 67.985 86.9646 68.791 86.7743C69.5257 86.5874 70.1959 86.465 70.7244 86.3747C71.3375 86.2385 71.9661 86.1843 72.5935 86.2136Z" fill="white"/>
<path d="M89.544 78.396C89.3507 78.4894 89.1442 78.5524 88.9317 78.5829C88.5386 78.6796 87.9586 78.8149 87.2432 78.9696L81.6619 80.1425C80.6505 80.3531 79.6712 80.6955 78.7488 81.1608C78.0014 81.5496 77.343 82.0895 76.8154 82.7463C76.3437 83.3669 76.0157 84.0845 75.8551 84.8473C75.8217 84.6318 75.8371 84.4116 75.9002 84.2028C76.042 83.6269 76.2985 83.0855 76.6542 82.6109C77.1783 81.9079 77.849 81.3274 78.6199 80.9095C79.558 80.4099 80.5629 80.0474 81.6039 79.8332C83.7952 79.3627 85.7738 79.0147 87.2174 78.7505C87.9328 78.6216 88.5064 78.5249 88.9253 78.4604C89.1286 78.4163 89.336 78.3947 89.544 78.396Z" fill="white"/>
<path d="M63.2805 96.0743C62.9068 96.328 62.4824 96.4973 62.0367 96.5706C61.2311 96.7897 60.1032 96.8799 58.8851 97.1377C58.3225 97.252 57.7782 97.4428 57.2675 97.7049C56.8551 97.9193 56.4823 98.2027 56.1654 98.5427C55.8917 98.881 55.6561 99.2484 55.4629 99.6383C55.4912 99.1773 55.6779 98.7402 55.9914 98.4009C56.3044 98.0128 56.6896 97.6889 57.1257 97.4471C57.6516 97.1458 58.2213 96.9284 58.8142 96.8026C60.0581 96.5383 61.1924 96.4868 61.9851 96.3256C62.7778 96.1645 63.2612 96.0163 63.2805 96.0743Z" fill="white"/>
<path d="M94.3702 73.3818C94.3702 73.4334 94.1318 73.4269 93.7902 73.5172C93.3548 73.6353 92.9631 73.8771 92.6623 74.2132C92.3725 74.5629 92.1951 74.992 92.1532 75.4442C92.1145 75.7922 92.1532 76.0242 92.1081 76.0307C92.063 76.0371 91.9469 75.8309 91.9276 75.4378C91.9057 74.9163 92.0806 74.4056 92.4174 74.007C92.76 73.6149 93.2348 73.3625 93.7515 73.298C94.1446 73.2529 94.3767 73.3432 94.3702 73.3818Z" fill="white"/>
<path d="M295.397 166.857H295.397C301.361 166.857 307.562 163.005 313.389 157.795C319.211 152.59 324.631 146.057 329.034 140.742L329.034 140.741C330.467 139.029 331.927 137.366 333.163 135.971C333.427 135.674 333.681 135.389 333.921 135.118C334.748 134.187 335.423 133.426 335.851 132.918L333.629 131.145C332.804 131.834 331.872 132.825 330.774 134.092C329.941 135.054 329.015 136.172 327.97 137.434C327.59 137.892 327.195 138.37 326.782 138.866L326.761 138.891C322.443 144.094 316.661 151.063 310.579 156.322C307.533 158.956 304.406 161.167 301.344 162.512C298.282 163.857 295.274 164.342 292.476 163.504L292.516 163.369L292.476 163.504C287.554 162.029 285.177 159.723 284.111 156.859C283.053 154.019 283.295 150.651 283.551 147.081L283.553 147.06L283.553 147.06C283.775 143.99 284.007 140.748 283.198 137.901C282.392 135.067 280.553 132.617 276.606 131.135C272.114 129.453 268.808 129.57 266.059 130.599C263.302 131.632 261.091 133.586 258.793 135.62L258.793 135.62L258.78 135.631C256.226 137.889 253.484 140.313 249.541 141.897C245.588 143.483 240.44 144.222 233.074 143.13C233.074 143.13 233.074 143.13 233.074 143.13L233.094 142.991C205.343 138.884 180.626 108.459 180.318 108.08L295.397 166.857ZM295.397 166.857C294.123 166.861 292.855 166.678 291.635 166.315M295.397 166.857L291.635 166.315M280.63 146.855C280.63 146.855 280.63 146.855 280.63 146.854C280.868 143.551 280.996 140.829 280.37 138.676C280.055 137.595 279.55 136.654 278.774 135.854C277.998 135.054 276.956 134.399 275.577 133.881L275.577 133.881C271.943 132.52 269.358 132.493 267.108 133.325C264.876 134.151 262.991 135.817 260.752 137.797L260.733 137.813L260.827 137.918L260.733 137.813L260.73 137.816C258.049 140.188 255.059 142.832 250.728 144.591C246.396 146.349 240.712 147.224 232.644 146.029C224.294 144.789 210.783 140.373 194.232 126.352L194.232 126.352C188.366 121.418 182.94 115.983 178.016 110.109L180.296 108.276L291.594 166.45C279.376 162.791 279.991 153.985 280.487 146.891L280.49 146.845L280.63 146.855ZM280.63 146.855L280.628 146.886C280.38 150.435 280.105 154.375 281.396 157.887C282.686 161.394 285.548 164.492 291.635 166.315M280.63 146.855L291.635 166.315" fill="#7432FF" stroke="black" stroke-width="0.28128"/>
<path d="M249.967 141.624C249.967 141.624 249.838 141.747 249.58 141.908C249.219 142.147 248.842 142.362 248.452 142.552C247.164 143.183 245.802 143.65 244.398 143.944C242.996 144.233 241.562 144.343 240.132 144.273C239.7 144.25 239.27 144.205 238.843 144.138C238.684 144.124 238.527 144.087 238.379 144.028C238.379 143.977 239.062 144.028 240.145 144.028C242.973 144.042 245.772 143.463 248.362 142.327C249.348 141.876 249.941 141.547 249.967 141.624Z" fill="white"/>
<path d="M180.658 110.798C179.998 111.525 179.075 111.96 178.094 112.007C177.113 112.055 176.153 111.71 175.425 111.05L169.767 105.894L174.755 100.409L180.407 105.565C181.134 106.226 181.569 107.148 181.616 108.13C181.663 109.111 181.319 110.071 180.658 110.798Z" fill="#7432FF"/>
<path d="M180.658 110.798C180.848 110.52 181.022 110.232 181.18 109.935C181.578 109.094 181.641 108.133 181.354 107.247C181.16 106.635 180.807 106.085 180.33 105.655L178.622 104.128C177.416 103.032 176.076 101.827 174.652 100.545H174.871L172.377 103.29L169.882 106.029V105.81L173.827 109.4L175.515 110.953C175.987 111.386 176.565 111.686 177.191 111.823C178.101 112.022 179.052 111.868 179.853 111.391C180.135 111.205 180.406 111.003 180.665 110.785C180.458 111.062 180.203 111.298 179.911 111.482C179.098 112.017 178.106 112.209 177.152 112.016C176.484 111.886 175.863 111.579 175.354 111.127C174.819 110.65 174.252 110.135 173.646 109.6L169.67 106.01L169.554 105.907L169.663 105.791L172.151 103.045L174.645 100.313L174.748 100.197L174.864 100.3L178.809 103.915L180.497 105.468C180.998 105.931 181.363 106.522 181.554 107.176C181.834 108.106 181.737 109.109 181.283 109.967C181.131 110.282 180.919 110.564 180.658 110.798Z" fill="#263238"/>
<path d="M152.069 79.8371L142.311 71.7681C142.129 71.6175 141.979 71.4325 141.868 71.2237C141.758 71.0148 141.689 70.7863 141.667 70.5511C141.645 70.3158 141.669 70.0786 141.739 69.8528C141.809 69.627 141.922 69.4171 142.073 69.2352C142.223 69.0532 142.408 68.9026 142.617 68.7921C142.826 68.6815 143.055 68.6133 143.29 68.5911C143.525 68.569 143.762 68.5934 143.988 68.663C144.214 68.7326 144.424 68.846 144.606 68.9968L154.357 77.0658L152.069 79.8371Z" fill="#7432FF"/>
<path d="M142.891 91.6248L133.146 83.5558C132.964 83.4057 132.812 83.221 132.701 83.0124C132.59 82.8039 132.521 82.5754 132.499 82.3402C132.476 82.1049 132.5 81.8675 132.569 81.6415C132.638 81.4155 132.751 81.2053 132.901 81.023C133.051 80.8402 133.236 80.6889 133.445 80.5779C133.654 80.4669 133.882 80.3983 134.118 80.3762C134.353 80.354 134.591 80.3787 134.817 80.4488C135.043 80.5188 135.252 80.633 135.434 80.7845L145.192 88.8471L142.891 91.6248Z" fill="#7432FF"/>
<g opacity="0.6">
<path opacity="0.6" d="M152.069 79.8371L142.311 71.7681C142.129 71.6175 141.979 71.4325 141.868 71.2237C141.758 71.0148 141.689 70.7863 141.667 70.5511C141.645 70.3158 141.669 70.0786 141.739 69.8528C141.809 69.627 141.922 69.4171 142.073 69.2352C142.223 69.0532 142.408 68.9026 142.617 68.7921C142.826 68.6815 143.055 68.6133 143.29 68.5911C143.525 68.569 143.762 68.5934 143.988 68.663C144.214 68.7326 144.424 68.846 144.606 68.9968L154.357 77.0658L152.069 79.8371Z" fill="white"/>
</g>
<g opacity="0.6">
<path opacity="0.6" d="M142.892 91.6248L133.147 83.5558C132.965 83.4057 132.813 83.221 132.702 83.0124C132.591 82.8039 132.522 82.5754 132.5 82.3402C132.477 82.1049 132.501 81.8675 132.57 81.6415C132.639 81.4155 132.752 81.2053 132.902 81.023C133.052 80.8402 133.237 80.6889 133.446 80.5779C133.655 80.4669 133.883 80.3983 134.119 80.3762C134.354 80.354 134.592 80.3787 134.818 80.4488C135.044 80.5188 135.253 80.633 135.435 80.7845L145.193 88.8471L142.892 91.6248Z" fill="white"/>
</g>
<path d="M152.069 79.8371C152.114 79.763 152.163 79.692 152.217 79.6245L152.656 79.0573L154.286 77.0014V77.1367L149.704 73.4116L146.836 71.0528L145.296 69.7638L144.503 69.1193C144.261 68.9113 143.963 68.7811 143.646 68.7455C143.378 68.7112 143.106 68.7438 142.854 68.8406C142.602 68.9373 142.378 69.0951 142.202 69.2997C142.032 69.4996 141.911 69.737 141.851 69.9925C141.79 70.248 141.791 70.5142 141.854 70.7692C141.916 71.0091 142.035 71.2304 142.202 71.4137C142.384 71.6044 142.58 71.781 142.789 71.9421L144 72.9475L148.176 76.46L151.006 78.8704L151.779 79.5149C151.878 79.594 151.97 79.6802 152.056 79.7727C151.96 79.7172 151.869 79.6525 151.786 79.5793L151.012 78.9348C150.297 78.3613 149.317 77.5814 148.131 76.6211L143.839 73.1344L142.602 72.1226C142.376 71.9488 142.161 71.7616 141.957 71.5619C141.684 71.2669 141.51 70.8943 141.459 70.4959C141.408 70.0975 141.482 69.6929 141.671 69.3386C141.861 68.9842 142.155 68.6976 142.515 68.5185C142.875 68.3395 143.281 68.2769 143.678 68.3394C144.055 68.3879 144.41 68.5421 144.703 68.7841L145.489 69.4286L147.023 70.7176L149.878 73.0958L154.389 76.8918L154.467 76.9563L154.402 77.0272L152.656 79.0637L152.192 79.5793C152.162 79.6701 152.121 79.7567 152.069 79.8371Z" fill="#263238"/>
<path d="M142.892 91.6248C142.935 91.5486 142.987 91.4773 143.046 91.4122C143.162 91.2575 143.304 91.0706 143.484 90.845L145.115 88.7891V88.9244L140.533 85.1928L137.665 82.8405L136.124 81.5515L135.332 80.907C135.085 80.7031 134.786 80.5734 134.468 80.5332C134.2 80.5014 133.928 80.5359 133.676 80.6336C133.425 80.7314 133.201 80.8894 133.024 81.0939C132.853 81.2932 132.733 81.5309 132.673 81.7867C132.614 82.0426 132.617 82.309 132.683 82.5633C132.744 82.8023 132.861 83.0233 133.024 83.2078C133.209 83.3964 133.407 83.5709 133.617 83.7298L134.823 84.7417L139.005 88.2542L141.835 90.6645L142.608 91.309C142.707 91.3847 142.798 91.4712 142.879 91.5668C142.879 91.5668 142.788 91.5088 142.614 91.3735L141.835 90.7612L138.954 88.4475L134.668 84.9608L133.43 83.9425C133.201 83.7725 132.986 83.5851 132.786 83.3818C132.585 83.1531 132.444 82.8787 132.373 82.5827C132.295 82.2804 132.291 81.9636 132.362 81.6595C132.432 81.3553 132.576 81.0728 132.779 80.8361C132.992 80.5971 133.26 80.4135 133.56 80.3012C133.86 80.1889 134.183 80.1513 134.5 80.1916C134.877 80.2404 135.232 80.3946 135.525 80.6363C135.789 80.8619 136.053 81.0746 136.318 81.2808L137.852 82.5698L140.707 84.9415L145.218 88.744L145.289 88.8084L145.231 88.8793C144.496 89.7236 143.91 90.4068 143.478 90.9095L143.02 91.4315C142.956 91.5733 142.892 91.6313 142.892 91.6248Z" fill="#263238"/>
<path d="M174.239 90.0652L174.497 89.7558C175.042 89.0998 175.324 88.2652 175.289 87.4132C175.255 86.5611 174.906 85.7521 174.31 85.1424C173.714 84.5326 172.913 84.1654 172.062 84.1116C171.211 84.0579 170.37 84.3214 169.702 84.8512L155.42 72.954L139.082 92.5013L153.699 104.102C153.246 104.81 153.067 105.66 153.197 106.491C153.326 107.322 153.754 108.077 154.402 108.614C155.095 109.187 155.984 109.466 156.88 109.391C157.777 109.316 158.608 108.894 159.197 108.214C161.26 109.77 163.848 110.461 166.413 110.14C168.977 109.819 171.315 108.511 172.931 106.493L175.277 103.567C176.842 101.602 177.606 99.1172 177.413 96.6121C177.221 94.107 176.087 91.7677 174.239 90.0652Z" fill="#7432FF"/>
<path d="M174.24 90.0651L174.362 90.1747L174.704 90.5034C174.893 90.678 175.068 90.8676 175.226 91.0705L175.542 91.4572L175.864 91.9277C176.434 92.7495 176.869 93.6567 177.153 94.6152C177.582 96.0623 177.675 97.5881 177.426 99.0767C177.177 100.565 176.592 101.978 175.716 103.206C175.194 103.947 174.588 104.65 173.995 105.417C173.397 106.227 172.736 106.988 172.016 107.692C170.382 109.221 168.279 110.152 166.048 110.334C163.579 110.549 161.118 109.847 159.133 108.362H159.333C158.73 109.05 157.89 109.485 156.98 109.58C156.508 109.63 156.03 109.585 155.575 109.448C155.121 109.31 154.698 109.084 154.332 108.781C153.656 108.219 153.208 107.43 153.073 106.561C152.937 105.693 153.124 104.804 153.597 104.063L153.629 104.263L142.293 95.221L138.986 92.5915L138.857 92.4949L138.961 92.366C144.916 85.2766 150.478 78.6126 155.318 72.838L155.408 72.7284L155.511 72.8186L169.761 84.7481H169.651C170.172 84.3381 170.798 84.084 171.458 84.015C172.117 83.946 172.782 84.065 173.377 84.3582C173.971 84.6514 174.471 85.1069 174.817 85.672C175.164 86.2371 175.344 86.8888 175.335 87.5516C175.323 88.2468 175.098 88.9216 174.691 89.4851C174.588 89.6272 174.476 89.7628 174.356 89.8911L174.233 90.0265C174.233 90.0265 174.388 89.8331 174.652 89.4593C175.032 88.8861 175.234 88.2134 175.232 87.5258C175.23 86.9838 175.099 86.4502 174.849 85.9692C174.599 85.4883 174.238 85.0741 173.795 84.761C173.235 84.3479 172.558 84.1224 171.862 84.1165C171.088 84.1073 170.335 84.3644 169.728 84.8448L169.67 84.8899L169.612 84.8448L155.305 72.9862H155.498L139.205 92.5786V92.3531L142.505 94.9826L153.816 104.005L153.926 104.089L153.848 104.205C153.411 104.881 153.235 105.693 153.354 106.489C153.472 107.285 153.877 108.011 154.493 108.53C155.157 109.079 156.009 109.346 156.868 109.275C157.726 109.204 158.523 108.8 159.088 108.149L159.178 108.053L159.281 108.13C161.121 109.503 163.383 110.189 165.675 110.067C167.968 109.946 170.145 109.026 171.829 107.466C172.531 106.77 173.177 106.02 173.763 105.224C174.362 104.463 174.981 103.754 175.497 103.032C176.649 101.421 177.291 99.5015 177.339 97.5216C177.387 95.5416 176.84 93.5928 175.767 91.9277C175.658 91.7602 175.555 91.599 175.451 91.4508L175.142 91.0641C174.988 90.8557 174.82 90.6576 174.639 90.4712L174.311 90.1296C174.259 90.0866 174.236 90.0651 174.24 90.0651Z" fill="#263238"/>
<path d="M157.889 90.4403L147.812 82.1067L146.181 84.0784L156.258 92.412L157.889 90.4403Z" fill="#E0E0E0"/>
<path d="M174.239 90.0651C174.081 90.3335 173.9 90.5879 173.698 90.8256C173.337 91.309 172.802 91.9922 172.132 92.83C170.798 94.5121 168.91 96.8 166.802 99.3071C164.695 101.814 162.819 104.038 161.395 105.72L159.758 107.653C159.564 107.9 159.348 108.129 159.113 108.336C159.272 108.068 159.453 107.814 159.655 107.576C160.016 107.093 160.55 106.409 161.221 105.572C162.555 103.889 164.443 101.601 166.551 99.1266L171.958 92.6817L173.601 90.7483C173.792 90.5009 174.006 90.2722 174.239 90.0651Z" fill="#263238"/>
<path d="M169.702 84.8254C169.533 85.109 169.339 85.3765 169.122 85.6246C168.729 86.1273 168.149 86.8491 167.433 87.7321C165.99 89.498 163.966 91.9084 161.71 94.5508C159.455 97.1932 157.431 99.5391 155.91 101.311C155.188 102.136 154.621 102.826 154.144 103.348C153.936 103.607 153.708 103.848 153.461 104.07C153.636 103.789 153.833 103.522 154.047 103.271C154.441 102.768 155.014 102.046 155.736 101.163C157.18 99.3973 159.203 96.987 161.459 94.3446L167.259 87.5903L169.025 85.5473C169.232 85.2897 169.458 85.0484 169.702 84.8254Z" fill="#263238"/>
<path d="M145.056 56.6166H140.402L142.722 50.2701L135.633 59.9895H140.287L137.966 66.336L145.056 56.6166Z" fill="#BBBBD6"/>
<path d="M111.043 63.6941H104.04L107.532 75.4052L96.8643 57.4699H103.867L100.376 45.7587L111.043 63.6941Z" fill="#BBBBD6"/>
</g>
<defs>
<filter id="filter0_i_2463_2160" x="0" y="0" width="239.296" height="172.742" filterUnits="userSpaceOnUse" color-interpolation-filters="sRGB">
<feFlood flood-opacity="0" result="BackgroundImageFix"/>
<feBlend mode="normal" in="SourceGraphic" in2="BackgroundImageFix" result="shape"/>
<feColorMatrix in="SourceAlpha" type="matrix" values="0 0 0 0 0 0 0 0 0 0 0 0 0 0 0 0 0 0 127 0" result="hardAlpha"/>
<feOffset dy="3.95626"/>
<feGaussianBlur stdDeviation="5.27501"/>
<feComposite in2="hardAlpha" operator="arithmetic" k2="-1" k3="1"/>
<feColorMatrix type="matrix" values="0 0 0 0 0 0 0 0 0 0 0 0 0 0 0 0 0 0 0.25 0"/>
<feBlend mode="normal" in2="shape" result="effect1_innerShadow_2463_2160"/>
</filter>
</defs>
</svg>
