<svg width="205" height="205" viewBox="0 0 205 205" fill="none" xmlns="http://www.w3.org/2000/svg">
<g id="illustration">
<g id="background">
<circle id="Ellipse 5" cx="109.639" cy="110.37" r="64.2455" fill="url(#paint0_linear_1126_1590)"/>
<circle id="Ellipse 4" cx="37.7054" cy="92.2495" r="14.6429" fill="#7432FF"/>
<path id="Star 1" d="M126.385 49.6721C126.112 49.6141 126.112 49.2247 126.385 49.1666L130.511 48.2893C130.61 48.2681 130.688 48.1907 130.709 48.0913L131.598 43.9947C131.657 43.7232 132.044 43.7232 132.103 43.9947L132.991 48.0913C133.013 48.1907 133.09 48.2681 133.19 48.2893L137.315 49.1666C137.588 49.2247 137.588 49.6141 137.315 49.6721L133.19 50.5495C133.09 50.5706 133.013 50.6481 132.991 50.7475L132.103 54.8441C132.044 55.1156 131.657 55.1156 131.598 54.8441L130.709 50.7475C130.688 50.6481 130.61 50.5706 130.511 50.5495L126.385 49.6721Z" fill="#7432FF"/>
<path id="Star 2" d="M33.9386 118.645C34.0205 118.258 34.573 118.258 34.6549 118.645L35.8786 124.426C35.9084 124.567 36.0181 124.677 36.1588 124.708L41.8803 125.954C42.2645 126.038 42.2645 126.586 41.8803 126.67L36.1588 127.916C36.0181 127.947 35.9084 128.057 35.8786 128.198L34.6549 133.979C34.573 134.366 34.0205 134.366 33.9386 133.979L32.7149 128.198C32.6851 128.057 32.5754 127.947 32.4347 127.916L26.7132 126.67C26.329 126.586 26.329 126.038 26.7132 125.954L32.4347 124.708C32.5754 124.677 32.6851 124.567 32.7149 124.426L33.9386 118.645Z" fill="#7432FF"/>
<path id="Star 3" d="M126.543 169.107C126.625 168.72 127.177 168.72 127.259 169.107L127.973 172.48C128.003 172.621 128.113 172.731 128.253 172.762L131.601 173.491C131.985 173.575 131.985 174.123 131.601 174.206L128.253 174.936C128.113 174.966 128.003 175.077 127.973 175.218L127.259 178.59C127.177 178.977 126.625 178.977 126.543 178.59L125.829 175.218C125.799 175.077 125.69 174.966 125.549 174.936L122.201 174.206C121.817 174.123 121.817 173.575 122.201 173.491L125.549 172.762C125.69 172.731 125.799 172.621 125.829 172.48L126.543 169.107Z" fill="#7432FF"/>
</g>
<g id="illustration_2">
<g id="tag 2">
<path id="Vector 2" d="M178.459 71.1407L133.657 62.5555C131.671 62.175 129.753 63.4762 129.373 65.4619L117.894 125.366C117.677 126.496 118.004 127.662 118.777 128.514L139.597 151.479C140.806 152.812 142.805 153.069 144.311 152.084L168.577 136.227C169.408 135.684 169.983 134.826 170.17 133.851L181.366 75.425C181.746 73.4393 180.445 71.5212 178.459 71.1407Z" fill="#EAD6FF"/>
<path id="Vector 1" d="M146.756 83.6493C143.441 82.9411 140.185 85.0273 139.483 88.3096C138.917 90.9592 138.624 97.472 147.607 106.038C147.768 106.19 147.968 106.295 148.184 106.342C148.401 106.388 148.627 106.374 148.836 106.301C160.534 102.153 162.928 96.0887 163.494 93.4391C164.195 90.1569 162.076 86.9222 158.761 86.2141C155.446 85.5059 151.989 88.5333 151.989 88.5333C151.989 88.5333 150.07 84.3574 146.756 83.6493Z" fill="#7432FF"/>
<circle id="Ellipse" cx="143.134" cy="136.545" r="4.75893" fill="#7432FF"/>
</g>
<g id="tag 1">
<path id="Vector 2_2" d="M94.6246 43.9585L34.9077 65.5882C33.0068 66.2767 32.024 68.3758 32.7125 70.2767L61.1377 148.755C61.5294 149.837 62.4067 150.671 63.5065 151.008L104.761 163.658C106.482 164.185 108.331 163.384 109.122 161.767L126.867 125.508C127.304 124.616 127.359 123.586 127.021 122.652L99.3132 46.1537C98.6247 44.2528 96.5255 43.27 94.6246 43.9585Z" fill="#EAD6FF"/>
<path id="Vector 1_2" d="M75.09 81.0757C75.0282 81.3011 74.8637 81.4841 74.6461 81.5694C74.4286 81.6548 74.1835 81.6325 73.985 81.5093L73.9847 81.5092M75.09 81.0757L73.9847 81.5092M75.09 81.0757C75.09 81.0756 75.0901 81.0755 75.0901 81.0754L75.0905 81.0738L75.0937 81.0627C75.0966 81.0522 75.1014 81.0355 75.1081 81.0129C75.1214 80.9678 75.142 80.8994 75.1703 80.8105C75.2269 80.6327 75.3139 80.3734 75.4333 80.055C75.6725 79.417 76.0395 78.5482 76.5495 77.6251C77.5828 75.7548 79.1393 73.7775 81.3033 72.9284C85.7371 71.1885 90.7165 73.3391 92.4327 77.7127C93.1475 79.5344 94.0123 82.7935 93.3146 87.4431C92.6161 92.0972 90.3451 98.1903 84.715 105.664C84.5928 105.824 84.429 105.948 84.2413 106.022C84.0537 106.095 83.8495 106.116 83.6509 106.082C74.4405 104.431 68.6317 101.509 64.9544 98.5718C61.2807 95.6376 59.6982 92.6602 58.9834 90.8384C57.2672 86.4648 59.4551 81.5017 63.8889 79.7619C66.0529 78.9127 68.5387 79.3038 70.5682 79.9722C71.57 80.3021 72.4299 80.6894 73.0391 80.9945C73.3432 81.1467 73.5833 81.2777 73.7457 81.3696C73.8269 81.4155 73.8885 81.4516 73.929 81.4756C73.9492 81.4876 73.9641 81.4966 73.9734 81.5023L73.9833 81.5083L73.9847 81.5092M75.09 81.0757L73.9847 81.5092" fill="#7432FF" stroke="#C4CBF5" stroke-width="1.48175" stroke-linecap="round" stroke-linejoin="round"/>
<circle id="Ellipse " cx="98.6564" cy="143.684" r="6.04018" fill="#7432FF"/>
</g>
</g>
</g>
<defs>
<linearGradient id="paint0_linear_1126_1590" x1="109.639" y1="46.1246" x2="109.639" y2="174.616" gradientUnits="userSpaceOnUse">
<stop stop-color="#F2F2F2"/>
<stop offset="1" stop-color="#EFEFEF"/>
</linearGradient>
</defs>
</svg>
