<svg width="88" height="36" viewBox="0 0 88 36" fill="none" xmlns="http://www.w3.org/2000/svg">
<path d="M65.0222 36C64.4743 36 63.917 35.9248 63.355 35.7672C60.7496 35.0359 59.0659 32.8138 59.0659 30.1073V13.0899C59.0659 10.8161 60.2135 8.73503 62.1346 7.52403L72.796 0.794198C73.1793 0.551999 73.6684 0.551999 74.0517 0.794198L84.7132 7.52403C86.6343 8.73738 87.7818 10.8184 87.7818 13.0899V26.3756C87.7818 28.9057 86.3498 31.1208 84.0453 32.1601C81.7362 33.2018 79.1214 32.8044 77.2215 31.1255C75.82 29.8863 74.6137 28.6047 73.5438 27.2879L69.9602 33.1642C68.855 34.9795 67.0185 35.9977 65.0198 35.9977L65.0222 36ZM73.4262 3.17856L63.3926 9.51336C62.1581 10.294 61.4197 11.632 61.4197 13.0923V30.1097C61.4197 32.0802 62.7483 33.1548 63.9922 33.5051C65.2361 33.8532 66.9315 33.6274 67.9568 31.9461L72.0248 25.2751C70.5763 23.2129 69.3747 21.0801 68.2013 18.9168L68.1402 18.8063C67.1196 16.9228 67.1643 14.7006 68.2601 12.8618C69.3559 11.023 71.2888 9.9225 73.4286 9.9225C75.5684 9.9225 77.5507 11.0465 78.637 12.93C79.7234 14.8135 79.7234 17.0615 78.637 18.945C78.6323 18.9521 78.6276 18.9615 78.6229 18.9685L74.8488 25.1575C75.9681 26.6107 77.245 28.0122 78.7805 29.369C80.2125 30.634 81.9408 30.5353 83.0812 30.0203C84.5533 29.3572 85.4327 27.9957 85.4327 26.3803V13.0946C85.4327 11.6344 84.6943 10.2964 83.4598 9.5157L73.4262 3.18091V3.17856ZM73.4262 12.2716C72.1212 12.2716 70.9454 12.9418 70.2776 14.061C69.6098 15.1827 69.584 16.5348 70.2047 17.6823L70.2659 17.7928C71.2629 19.6316 72.2458 21.3881 73.3627 23.0741L76.6054 17.7552C77.2614 16.61 77.2591 15.2462 76.5983 14.1034C75.9352 12.9559 74.7501 12.2716 73.4262 12.2716Z" fill="white"/>
<path d="M73.3628 23.0718L72.0224 25.2704L71.4463 24.4192L72.8337 22.2465L73.3628 23.0718Z" fill="white"/>
<path d="M74.8465 25.1527L73.5461 27.2902L74.1505 28.0121L75.4273 25.8793L74.8465 25.1527Z" fill="white"/>
<path d="M44.0473 24.5178C41.5877 24.5178 40.0569 26.2579 40.0569 29.0561C40.0569 31.8543 41.5853 33.5944 44.0473 33.5944C45.5828 33.5944 46.9067 32.9383 47.5862 31.8402L46.5093 30.7774L46.5046 30.7868C45.959 31.6592 45.216 32.0824 44.2284 32.0824C42.8246 32.0824 41.8393 31.21 41.8393 29.8062V29.5288H47.9013V28.8398C47.9013 26.2132 46.387 24.5178 44.045 24.5178H44.0473ZM41.8417 28.2072C41.8417 26.8552 42.7963 25.9475 44.0473 25.9475C45.2983 25.9475 46.1189 26.794 46.1189 28.1579C46.1189 28.0662 46.1142 27.9792 46.1072 27.8921H41.8605C41.8487 27.9956 41.8393 28.0991 41.8393 28.2072H41.8417Z" fill="white"/>
<path d="M9.86431 28.3225L9.08364 31.8238L8.14776 28.3201L7.0802 24.5178H5.43654L4.38309 28.3225L3.46603 31.8238L2.66654 28.3225L1.7824 24.5178H0L2.37026 33.5967H4.38075L5.53295 29.4606L6.22428 26.8834L8.06781 33.5967H10.1277L12.465 24.5178H10.7649L9.86431 28.3225Z" fill="white"/>
<path d="M20.4623 27.5582C20.4623 25.6254 19.1902 24.5178 16.9727 24.5178C15.4796 24.5178 14.3462 25.101 13.6995 26.2038V26.2085L14.7906 27.2032L14.7953 27.1961C15.3056 26.3919 15.9593 26.0157 16.8552 26.0157C18.0168 26.0157 18.6305 26.5894 18.6305 27.6735V28.3977H17.0715C15.3808 28.3977 13.3656 28.8492 13.3656 31.0055C13.3656 32.6021 14.4402 33.5967 16.1733 33.5967C17.389 33.5967 18.266 33.0794 18.6423 32.1389L18.7528 31.8637L18.8186 32.153C19.002 32.9548 19.5452 33.3969 20.3541 33.3969H21.3794V31.899H20.4623V27.5582ZM18.6305 30.8244C18.6305 31.6474 17.8498 32.2 16.6906 32.2C15.7641 32.2 15.2327 31.7767 15.2327 31.0407V30.7397C15.2327 29.9708 15.8629 29.5828 17.1068 29.5828H18.6305V30.8244Z" fill="white"/>
<path d="M26.5854 28.2848L25.7906 28.1861C24.8453 28.0309 24.4597 27.7087 24.4597 27.0738C24.4597 26.3896 24.9911 25.9969 25.9176 25.9969C26.7336 25.9969 27.5001 26.3543 28.0269 26.9774L28.0339 26.9845L29.1602 25.9075V25.9028C28.2667 24.9176 27.3285 24.5178 25.9176 24.5178C23.9589 24.5178 22.6938 25.5666 22.6938 27.1914C22.6938 28.6775 23.6532 29.5476 25.5484 29.7804L26.3479 29.8815C27.1615 29.9873 27.573 30.3494 27.573 30.9584C27.573 31.7062 27.0134 32.1177 25.9976 32.1177C25.0382 32.1177 24.2387 31.7156 23.5544 30.8879L23.5474 30.8808L22.3716 31.9578H22.374C23.2699 33.0771 24.3892 33.5967 25.8964 33.5967C27.954 33.5967 29.3366 32.4751 29.3366 30.8079C29.3366 29.3877 28.436 28.5623 26.5807 28.2848H26.5854Z" fill="white"/>
<path d="M34.7826 24.5178C32.323 24.5178 30.7922 26.2579 30.7922 29.0561C30.7922 31.8543 32.3206 33.5944 34.7826 33.5944C36.3181 33.5944 37.642 32.9383 38.3215 31.8402L37.2446 30.7774L37.2399 30.7868C36.6943 31.6592 35.9513 32.0824 34.9637 32.0824C33.5598 32.0824 32.5746 31.21 32.5746 29.8062V29.5288H38.6366V28.8398C38.6366 26.2132 37.1223 24.5178 34.7802 24.5178H34.7826ZM34.7826 25.9452C35.9701 25.9452 36.8542 26.7917 36.8542 28.1555C36.8542 28.0638 36.8495 27.9768 36.8425 27.8898H32.5958C32.584 27.9933 32.5746 28.0967 32.5746 28.2049C32.5746 26.8528 33.5293 25.9452 34.7802 25.9452H34.7826Z" fill="white"/>
<path d="M53.7635 26.0535V24.525H52.141V22.3523H50.375V23.6691C50.375 24.2993 50.2857 24.525 49.7025 24.525H48.9618V26.0535H50.375V31.6711C50.375 32.8938 51.0123 33.5969 52.235 33.5969H53.7658V32.0685H52.1433V26.0535H53.7658H53.7635Z" fill="white"/>
<path d="M23.9119 21.5715C24.401 21.5715 24.7537 21.2963 24.7537 20.6379C24.7537 19.9795 24.401 19.6903 23.9119 19.6903H23.6532C23.1641 19.6903 22.8114 19.9654 22.8114 20.6379C22.8114 21.3105 23.1641 21.5715 23.6532 21.5715H23.9119Z" fill="white"/>
<path d="M25.9294 21.5715H26.188C26.6771 21.5715 27.0298 21.2963 27.0298 20.6379C27.0298 19.9795 26.6771 19.6903 26.188 19.6903H25.9294C25.4403 19.6903 25.0875 19.9654 25.0875 20.6379C25.0875 21.3105 25.4403 21.5715 25.9294 21.5715Z" fill="white"/>
<path d="M41.0069 17.5482C41.2937 18.7004 41.9898 19.1754 43.3536 19.1754C45.0114 19.1754 45.785 18.2372 45.785 16.2244V12.6925H44.012V16.7558C44.012 17.3719 43.9015 17.4894 43.4453 17.4894H43.2478C42.7446 17.4894 42.453 16.784 42.453 15.9022V13.8047H40.6682V16.4525C40.6682 17.339 40.4731 17.4894 39.5819 17.4894C39.5725 17.4894 39.5113 17.4847 39.509 17.4847C39.3844 17.4824 39.255 17.4683 39.1163 17.4471C38.7871 17.3507 38.5731 17.0403 38.5731 15.9446V13.8471H36.7837V15.6882C36.7837 16.6006 36.5673 17.4753 35.6996 17.4753C35.6785 17.4753 35.4786 17.4918 35.4786 17.4918H26.8182C26.0893 17.4918 25.7648 17.1673 25.7648 16.4384V13.8071H23.9753V16.4384C23.9753 17.1673 23.6179 17.4918 22.8137 17.4918H13.0693C13.4338 16.958 13.7113 15.9375 13.7113 15.3684C13.7113 14.9029 13.6337 14.4772 13.4808 14.1034C13.3256 13.7271 13.02 13.4026 12.7284 13.1369C12.4391 12.8736 12.0794 12.6666 11.6632 12.5279C11.2493 12.3892 10.7743 12.3186 10.2523 12.3186C9.66444 12.3186 9.07893 12.4033 8.50988 12.5702C7.94083 12.7372 7.37413 12.9817 6.82389 13.2945C6.27601 13.6072 5.72342 13.9905 5.18258 14.4349C4.69819 14.8347 4.20439 15.2861 3.71764 15.7776V10.3505H1.91878V16.9604H0V19.1496H1.91878V20.29L2.09984 20.2618C2.46432 20.1677 2.66654 20.0055 3.00985 19.7774C3.28732 19.5916 3.52011 19.38 3.70353 19.1496H23.4604L23.5474 19.1425V19.1378C24.6196 19.0508 25.2098 18.5264 25.485 17.4072C25.7977 18.5264 26.5713 19.0814 27.9046 19.1425V19.1496H34.9425L35.836 19.1119C36.5485 18.9685 36.9671 18.4818 37.134 17.5976C37.4044 18.6816 38.0323 19.1496 39.1962 19.1496C40.1674 19.1496 40.807 18.5852 41.0139 17.5529L41.0069 17.5482ZM8.12424 17.4918H4.02098C4.46305 17.1532 6.23133 14.4914 10.2029 14.4914C11.3622 14.4914 11.9265 14.8511 11.9265 15.5942C11.9265 17.6023 8.84379 17.4918 8.1266 17.4918H8.12424Z" fill="white"/>
<path d="M48.3716 19.7164H47.2053C47.2053 19.7164 48.8419 21.3906 50.5326 21.3906C52.2233 21.3906 53.3379 19.7258 53.6741 17.7647C53.8599 16.6853 53.7752 15.5637 53.3026 14.5785C52.7712 13.4709 51.8659 12.6949 50.6196 12.6949C48.8419 12.6949 47.304 13.8142 47.304 15.9235C47.304 17.6471 48.5127 18.4395 50.2057 18.4395L52.1151 16.7865H50.3115C49.4791 16.7865 48.7455 16.422 48.7455 15.6625C48.7455 14.4303 49.6531 14.3433 50.4503 14.3433C51.7624 14.3433 52.1151 15.345 52.1151 16.7865C52.1151 18.9098 50.5843 19.7164 48.3716 19.7164Z" fill="white"/>
</svg>
