<svg width="204" height="204" viewBox="0 0 204 204" fill="none" xmlns="http://www.w3.org/2000/svg">
<circle cx="105.491" cy="102.949" r="63.7303" fill="url(#paint0_linear_1135_1628)"/>
<path d="M115.668 41.9556C115.457 41.9108 115.457 41.6103 115.668 41.5656L118.851 40.8887C118.928 40.8724 118.988 40.8126 119.005 40.7359L119.69 37.5752C119.735 37.3657 120.034 37.3657 120.08 37.5752L120.765 40.7359C120.782 40.8126 120.842 40.8724 120.918 40.8887L124.101 41.5656C124.312 41.6103 124.312 41.9108 124.101 41.9556L120.918 42.6325C120.842 42.6488 120.782 42.7086 120.765 42.7852L120.08 45.9459C120.034 46.1554 119.735 46.1554 119.69 45.9459L119.005 42.7852C118.988 42.7086 118.928 42.6488 118.851 42.6325L115.668 41.9556Z" fill="#7432FF"/>
<path d="M29.1316 112.435C29.2129 112.051 29.7609 112.051 29.8422 112.435L31.0561 118.17C31.0857 118.309 31.1944 118.419 31.334 118.449L37.0097 119.686C37.3908 119.769 37.3908 120.312 37.0097 120.395L31.334 121.632C31.1944 121.662 31.0857 121.772 31.0561 121.911L29.8422 127.646C29.7609 128.03 29.2129 128.03 29.1316 127.646L27.9178 121.911C27.8882 121.772 27.7794 121.662 27.6398 121.632L21.9642 120.395C21.583 120.312 21.583 119.769 21.9642 119.686L27.6398 118.449C27.7794 118.419 27.8882 118.309 27.9178 118.17L29.1316 112.435Z" fill="#7432FF"/>
<path d="M162.447 61.5958C162.528 61.2119 163.076 61.2119 163.157 61.5958L163.865 64.9414C163.895 65.0811 164.004 65.1906 164.143 65.221L167.464 65.9443C167.845 66.0274 167.845 66.5709 167.464 66.654L164.143 67.3773C164.004 67.4078 163.895 67.5172 163.865 67.657L163.157 71.0025C163.076 71.3865 162.528 71.3865 162.447 71.0025L161.738 67.657C161.709 67.5172 161.6 67.4078 161.46 67.3773L158.14 66.654C157.759 66.5709 157.759 66.0274 158.14 65.9443L161.46 65.221C161.6 65.1906 161.709 65.0811 161.738 64.9414L162.447 61.5958Z" fill="#7432FF"/>
<path d="M177.086 115.234L178.199 120.488L183.377 121.616L178.199 122.744L177.086 127.998L175.974 122.744L170.796 121.616L175.974 120.488L177.086 115.234Z" fill="white"/>
<rect x="74.4311" y="71.7727" width="65.3167" height="70.3278" rx="3.7483" fill="white" stroke="#7432FF" stroke-width="1.32912"/>
<rect x="78.9502" y="76.2919" width="55.8927" height="48.5689" rx="3.08374" fill="#EAD6FF"/>
<g clip-path="url(#clip0_1135_1628)">
<path d="M104.659 104.438C103.52 104.438 102.406 104.1 101.459 103.467C100.512 102.834 99.7738 101.934 99.3379 100.882C98.9019 99.8296 98.7879 98.6716 99.0101 97.5543C99.2323 96.4371 99.7809 95.4108 100.586 94.6054C101.392 93.7999 102.418 93.2513 103.535 93.0291C104.653 92.8069 105.811 92.9209 106.863 93.3568C107.915 93.7928 108.815 94.531 109.448 95.4781C110.081 96.4253 110.419 97.5388 110.419 98.678C110.419 100.205 109.812 101.67 108.732 102.751C107.651 103.831 106.187 104.438 104.659 104.438ZM95.5632 104.438H88.8203C88.4384 104.438 88.0721 104.286 87.8021 104.016C87.5321 103.746 87.3804 103.38 87.3804 102.998C87.394 100.93 88.146 98.9355 89.5007 97.3735C90.8554 95.8116 92.7236 94.7851 94.7684 94.4793C95.006 94.446 95.2482 94.4726 95.4729 94.5567C95.6976 94.6408 95.8977 94.7797 96.0551 94.9608C96.2125 95.1419 96.3221 95.3595 96.374 95.5938C96.4259 95.828 96.4184 96.0715 96.3523 96.3022C96.1316 97.0748 96.0197 97.8744 96.0197 98.678C96.0201 99.9591 96.3085 101.224 96.8634 102.378C96.9678 102.598 97.0151 102.84 97.0009 103.082C96.9867 103.324 96.9114 103.559 96.7821 103.765C96.6528 103.97 96.4736 104.139 96.2613 104.257C96.049 104.375 95.8103 104.437 95.5676 104.438H95.5632ZM111.858 115.957H97.4596C97.0777 115.957 96.7114 115.805 96.4414 115.535C96.1714 115.265 96.0197 114.899 96.0197 114.517C96.0197 112.225 96.9299 110.028 98.5501 108.408C100.17 106.788 102.368 105.877 104.659 105.877C106.95 105.877 109.148 106.788 110.768 108.408C112.388 110.028 113.298 112.225 113.298 114.517C113.298 114.899 113.147 115.265 112.877 115.535C112.607 115.805 112.24 115.957 111.858 115.957ZM113.298 92.9184C112.159 92.9184 111.046 92.5806 110.098 91.9478C109.151 91.3149 108.413 90.4154 107.977 89.363C107.541 88.3106 107.427 87.1525 107.649 86.0353C107.872 84.918 108.42 83.8918 109.226 83.0863C110.031 82.2808 111.057 81.7323 112.175 81.51C113.292 81.2878 114.45 81.4018 115.502 81.8378C116.555 82.2737 117.454 83.0119 118.087 83.9591C118.72 84.9062 119.058 86.0198 119.058 87.1589C119.058 88.6864 118.451 90.1514 117.371 91.2315C116.291 92.3116 114.826 92.9184 113.298 92.9184ZM96.0197 92.9184C94.8805 92.9184 93.767 92.5806 92.8198 91.9478C91.8727 91.3149 91.1345 90.4154 90.6986 89.363C90.2626 88.3106 90.1486 87.1525 90.3708 86.0353C90.593 84.918 91.1416 83.8918 91.9471 83.0863C92.7526 82.2808 93.7788 81.7323 94.896 81.51C96.0133 81.2878 97.1713 81.4018 98.2238 81.8378C99.2762 82.2737 100.176 83.0119 100.809 83.9591C101.441 84.9062 101.779 86.0198 101.779 87.1589C101.779 88.6864 101.172 90.1514 100.092 91.2315C99.0122 92.3116 97.5472 92.9184 96.0197 92.9184ZM120.498 104.438H113.755C113.512 104.437 113.273 104.375 113.061 104.257C112.849 104.139 112.669 103.97 112.54 103.765C112.411 103.559 112.336 103.324 112.321 103.082C112.307 102.84 112.354 102.598 112.459 102.378C113.012 101.223 113.299 99.9588 113.298 98.678C113.296 97.8741 113.182 97.0745 112.958 96.3022C112.892 96.0709 112.884 95.8266 112.937 95.5917C112.989 95.3567 113.099 95.1386 113.257 94.9573C113.416 94.776 113.617 94.6372 113.843 94.5537C114.068 94.4702 114.311 94.4446 114.55 94.4793C116.594 94.7851 118.463 95.8116 119.817 97.3735C121.172 98.9355 121.924 100.93 121.938 102.998C121.938 103.38 121.786 103.746 121.516 104.016C121.246 104.286 120.88 104.438 120.498 104.438Z" fill="#7432FF"/>
</g>
<defs>
<linearGradient id="paint0_linear_1135_1628" x1="-95" y1="-68" x2="243" y2="330" gradientUnits="userSpaceOnUse">
<stop stop-color="#F2F2F2"/>
<stop offset="1" stop-color="#EFEFEF"/>
</linearGradient>
<clipPath id="clip0_1135_1628">
<rect width="34.5572" height="34.5572" fill="white" transform="translate(87.3804 81.3994)"/>
</clipPath>
</defs>
</svg>
