<svg width="206" height="206" viewBox="0 0 206 206" fill="none" xmlns="http://www.w3.org/2000/svg">
<circle cx="109.763" cy="110.496" r="64.319" fill="url(#paint0_linear_1124_1900)"/>
<circle cx="37.7485" cy="92.355" r="14.6596" fill="#7432FF"/>
<path d="M126.53 49.729C126.257 49.6709 126.257 49.281 126.53 49.2229L130.66 48.3446C130.76 48.3234 130.838 48.2458 130.859 48.1464L131.749 44.0451C131.807 43.7732 132.195 43.7732 132.254 44.0451L133.143 48.1464C133.165 48.2458 133.243 48.3234 133.343 48.3446L137.473 49.2229C137.746 49.281 137.746 49.6709 137.473 49.729L133.343 50.6073C133.243 50.6285 133.165 50.7061 133.143 50.8056L132.254 54.9069C132.195 55.1787 131.807 55.1787 131.749 54.9069L130.859 50.8056C130.838 50.7061 130.76 50.6285 130.66 50.6073L126.53 49.729Z" fill="#7432FF"/>
<path d="M33.978 118.781C34.06 118.393 34.6131 118.393 34.6951 118.781L35.9202 124.568C35.9501 124.709 36.0599 124.82 36.2008 124.851L41.9288 126.098C42.3135 126.182 42.3135 126.731 41.9288 126.815L36.2008 128.062C36.0599 128.093 35.9501 128.204 35.9202 128.345L34.6951 134.132C34.6131 134.52 34.06 134.52 33.978 134.132L32.7529 128.345C32.7231 128.204 32.6133 128.093 32.4724 128.062L26.7443 126.815C26.3597 126.731 26.3597 126.182 26.7443 126.098L32.4724 124.851C32.6133 124.82 32.7231 124.709 32.7529 124.568L33.978 118.781Z" fill="#7432FF"/>
<path d="M126.688 169.301C126.77 168.913 127.323 168.913 127.405 169.301L128.12 172.677C128.15 172.818 128.259 172.929 128.4 172.959L131.751 173.689C132.136 173.773 132.136 174.322 131.751 174.406L128.4 175.136C128.259 175.166 128.15 175.277 128.12 175.418L127.405 178.794C127.323 179.182 126.77 179.182 126.688 178.794L125.973 175.418C125.943 175.277 125.834 175.166 125.693 175.136L122.342 174.406C121.957 174.322 121.957 173.773 122.342 173.689L125.693 172.959C125.834 172.929 125.943 172.818 125.973 172.677L126.688 169.301Z" fill="#7432FF"/>
<path d="M178.664 71.2221L133.81 62.6271C131.822 62.2461 129.902 63.5489 129.521 65.5368L118.029 125.509C117.812 126.64 118.139 127.808 118.913 128.661L139.756 151.652C140.967 152.987 142.968 153.244 144.477 152.258L168.77 136.382C169.602 135.839 170.178 134.98 170.365 134.004L181.573 75.5112C181.954 73.5233 180.652 71.603 178.664 71.2221Z" fill="#EAD6FF"/>
<path d="M146.923 83.7449C143.605 83.036 140.345 85.1245 139.643 88.4105C139.076 91.0632 138.783 97.5835 147.775 106.159C147.936 106.312 148.136 106.417 148.354 106.463C148.571 106.51 148.796 106.495 149.006 106.422C160.717 102.27 163.114 96.1986 163.681 93.546C164.383 90.2599 162.261 87.0216 158.942 86.3126C155.624 85.6037 152.162 88.6345 152.162 88.6345C152.162 88.6345 150.242 84.4539 146.923 83.7449Z" fill="#7432FF"/>
<circle cx="143.298" cy="136.701" r="4.76437" fill="#7432FF"/>
<path d="M94.7325 44.0088L34.9473 65.6633C33.0442 66.3526 32.0603 68.4541 32.7496 70.3572L61.2073 148.925C61.5994 150.008 62.4777 150.844 63.5787 151.181L104.88 163.845C106.603 164.373 108.454 163.571 109.246 161.952L127.012 125.652C127.449 124.759 127.505 123.727 127.166 122.792L99.4264 46.2066C98.7371 44.3035 96.6355 43.3195 94.7325 44.0088Z" fill="#EAD6FF"/>
<path d="M74.7317 81.6627C74.9495 81.5773 75.1142 81.394 75.1761 81.1684C75.1761 81.1683 75.1761 81.1682 75.1761 81.1681L75.1766 81.1665L75.1797 81.1554C75.1827 81.1449 75.1875 81.1281 75.1942 81.1055C75.2075 81.0604 75.2282 80.9919 75.2565 80.9029C75.3131 80.7249 75.4002 80.4653 75.5197 80.1466C75.7592 79.5079 76.1266 78.638 76.6372 77.7138C77.6717 75.8415 79.23 73.8619 81.3964 73.0118C85.8353 71.27 90.8204 73.423 92.5386 77.8016C93.2542 79.6254 94.12 82.8882 93.4215 87.5431C92.7222 92.2026 90.4485 98.3027 84.8119 105.785C84.6895 105.945 84.5256 106.069 84.3379 106.143C84.1501 106.217 83.9458 106.237 83.7471 106.203C74.526 104.551 68.7104 101.625 65.0289 98.6845C61.351 95.747 59.7667 92.7661 59.051 90.9423C57.3328 86.5637 59.5233 81.5949 63.9622 79.8531C66.1286 79.003 68.6173 79.3945 70.6491 80.0636C71.652 80.3939 72.5129 80.7817 73.1229 81.0871C73.4272 81.2395 73.6676 81.3706 73.8302 81.4626C73.9115 81.5086 73.9732 81.5447 74.0137 81.5688C74.0339 81.5808 74.0488 81.5898 74.0582 81.5955L74.0681 81.6015L74.0695 81.6024L74.0698 81.6025L74.0698 81.6026L74.0699 81.6026C74.2687 81.7259 74.514 81.7482 74.7317 81.6627Z" fill="#7432FF" stroke="#C4CBF5" stroke-width="1.48344" stroke-linecap="round" stroke-linejoin="round"/>
<circle cx="98.7688" cy="143.848" r="6.04708" fill="#7432FF"/>
<defs>
<linearGradient id="paint0_linear_1124_1900" x1="109.763" y1="46.1773" x2="109.763" y2="174.815" gradientUnits="userSpaceOnUse">
<stop stop-color="#F2F2F2"/>
<stop offset="1" stop-color="#EFEFEF"/>
</linearGradient>
</defs>
</svg>
