<svg width="78" height="78" viewBox="0 0 78 78" fill="none" xmlns="http://www.w3.org/2000/svg">
<g clip-path="url(#clip0_2657_1986)">
<path d="M39 52C36.4288 52 33.9154 51.2376 31.7776 49.8091C29.6397 48.3807 27.9735 46.3503 26.9896 43.9749C26.0056 41.5995 25.7482 38.9856 26.2498 36.4638C26.7514 33.9421 27.9895 31.6257 29.8076 29.8076C31.6257 27.9895 33.9421 26.7514 36.4638 26.2498C38.9856 25.7482 41.5994 26.0056 43.9749 26.9896C46.3503 27.9735 48.3806 29.6398 49.8091 31.7776C51.2376 33.9154 52 36.4288 52 39C52 42.4478 50.6304 45.7544 48.1924 48.1924C45.7544 50.6304 42.4478 52 39 52ZM18.4697 52H3.25C2.38805 52 1.5614 51.6576 0.951903 51.0481C0.34241 50.4386 0 49.612 0 48.75C0.0307965 44.0833 1.72811 39.5813 4.78581 36.0558C7.84351 32.5303 12.0603 30.2134 16.6758 29.523C17.2121 29.4479 17.7587 29.5079 18.2659 29.6978C18.7731 29.8876 19.2248 30.2012 19.58 30.61C19.9352 31.0188 20.1826 31.5098 20.2997 32.0386C20.4169 32.5673 20.4 33.1169 20.2507 33.6375C19.7527 35.3815 19.5 37.1863 19.5 39C19.5009 41.8917 20.1518 44.7462 21.4045 47.3525C21.6401 47.8472 21.7468 48.3934 21.7147 48.9404C21.6826 49.4874 21.5128 50.0174 21.2209 50.4812C20.929 50.9449 20.5247 51.3273 20.0454 51.5928C19.5661 51.8584 19.0274 51.9985 18.4795 52H18.4697ZM55.25 78H22.75C21.888 78 21.0614 77.6576 20.4519 77.0481C19.8424 76.4386 19.5 75.612 19.5 74.75C19.5 69.5783 21.5545 64.6184 25.2114 60.9614C28.8684 57.3045 33.8283 55.25 39 55.25C44.1717 55.25 49.1316 57.3045 52.7886 60.9614C56.4455 64.6184 58.5 69.5783 58.5 74.75C58.5 75.612 58.1576 76.4386 57.5481 77.0481C56.9386 77.6576 56.112 78 55.25 78ZM58.5 26C55.9288 26 53.4154 25.2376 51.2776 23.8091C49.1397 22.3807 47.4735 20.3503 46.4896 17.9749C45.5056 15.5995 45.2482 12.9856 45.7498 10.4638C46.2514 7.94208 47.4895 5.6257 49.3076 3.80762C51.1257 1.98954 53.4421 0.751405 55.9638 0.249797C58.4856 -0.251811 61.0994 0.00563265 63.4749 0.989572C65.8503 1.97351 67.8806 3.63975 69.3091 5.77759C70.7376 7.91543 71.5 10.4288 71.5 13C71.5 16.4478 70.1304 19.7544 67.6924 22.1924C65.2544 24.6304 61.9478 26 58.5 26ZM19.5 26C16.9288 26 14.4154 25.2376 12.2776 23.8091C10.1397 22.3807 8.47351 20.3503 7.48957 17.9749C6.50563 15.5995 6.24818 12.9856 6.74979 10.4638C7.2514 7.94208 8.48953 5.6257 10.3076 3.80762C12.1257 1.98954 14.4421 0.751405 16.9638 0.249797C19.4856 -0.251811 22.0994 0.00563265 24.4749 0.989572C26.8503 1.97351 28.8806 3.63975 30.3091 5.77759C31.7376 7.91543 32.5 10.4288 32.5 13C32.5 16.4478 31.1304 19.7544 28.6924 22.1924C26.2544 24.6304 22.9478 26 19.5 26ZM74.75 52H59.5302C58.9823 51.9985 58.4437 51.8584 57.9644 51.5928C57.4851 51.3273 57.0807 50.9449 56.7889 50.4812C56.497 50.0174 56.3271 49.4874 56.295 48.9404C56.2629 48.3934 56.3696 47.8472 56.6052 47.3525C57.8546 44.7454 58.5021 41.891 58.5 39C58.4947 37.1856 58.2365 35.3807 57.733 33.6375C57.5828 33.1155 57.5659 32.5641 57.6838 32.0338C57.8017 31.5035 58.0507 31.0113 58.4079 30.602C58.7651 30.1928 59.2192 29.8796 59.7286 29.6911C60.2381 29.5026 60.7867 29.4448 61.3242 29.523C65.9397 30.2134 70.1565 32.5303 73.2142 36.0558C76.2719 39.5813 77.9692 44.0833 78 48.75C78 49.612 77.6576 50.4386 77.0481 51.0481C76.4386 51.6576 75.612 52 74.75 52Z" fill="#7432FF"/>
</g>
<defs>
<clipPath id="clip0_2657_1986">
<rect width="78" height="78" fill="white"/>
</clipPath>
</defs>
</svg>
