<svg width="183" height="163" viewBox="0 0 183 163" fill="none" xmlns="http://www.w3.org/2000/svg">
<path d="M97.2736 162.844C142.742 162.844 179.601 126.39 179.601 81.422C179.601 36.4539 142.742 0 97.2736 0C51.8055 0 14.9463 36.4539 14.9463 81.422C14.9463 126.39 51.8055 162.844 97.2736 162.844Z" fill="url(#paint0_linear_2657_2609)" fill-opacity="0.5"/>
<path fill-rule="evenodd" clip-rule="evenodd" d="M168.305 133.325C169.055 133.061 169.845 132.709 170.454 132.201C171.177 131.596 171.471 130.818 171.668 129.999C171.922 128.947 172.023 127.826 172.331 126.771C172.444 126.38 172.663 126.232 172.757 126.166C172.995 126 173.235 125.956 173.461 125.973C173.729 125.992 174.097 126.092 174.338 126.536C174.373 126.6 174.418 126.696 174.448 126.829C174.47 126.926 174.484 127.23 174.508 127.356C174.566 127.664 174.614 127.973 174.66 128.284C174.812 129.317 174.9 130.194 175.381 131.144C176.033 132.432 176.687 133.221 177.573 133.57C178.43 133.908 179.455 133.844 180.765 133.579C180.889 133.55 181.013 133.524 181.135 133.503C181.712 133.403 182.264 133.778 182.377 134.347C182.491 134.915 182.124 135.469 181.552 135.594C181.432 135.62 181.314 135.645 181.198 135.668C179.429 136.101 177.38 137.647 176.19 139.001C175.823 139.419 175.285 140.586 174.737 141.33C174.333 141.879 173.878 142.242 173.497 142.369C173.241 142.456 173.026 142.442 172.847 142.399C172.589 142.336 172.374 142.197 172.209 141.977C172.12 141.856 172.036 141.694 171.997 141.488C171.978 141.389 171.976 141.136 171.976 141.022C171.864 140.642 171.728 140.271 171.628 139.888C171.391 138.973 170.924 138.394 170.371 137.629C169.853 136.913 169.297 136.463 168.481 136.104C168.375 136.078 167.519 135.871 167.217 135.752C166.776 135.578 166.565 135.286 166.489 135.128C166.359 134.861 166.346 134.628 166.372 134.434C166.41 134.147 166.54 133.901 166.771 133.703C166.915 133.579 167.128 133.46 167.415 133.401C167.636 133.356 168.223 133.329 168.305 133.325ZM173.326 131.834C173.366 131.922 173.408 132.01 173.453 132.098C174.408 133.986 175.477 135.039 176.775 135.551L176.819 135.567C175.95 136.205 175.164 136.918 174.563 137.602C174.315 137.883 173.988 138.468 173.634 139.068C173.312 138.033 172.786 137.303 172.124 136.388C171.619 135.69 171.09 135.164 170.439 134.736C170.944 134.48 171.425 134.18 171.845 133.829C172.544 133.245 173.005 132.569 173.326 131.834Z" fill="#7432FF"/>
<ellipse cx="3.89908" cy="65.5555" rx="3.89908" ry="3.85621" fill="#7432FF"/>
<path d="M37.6142 30.9999L37.2696 31.0993C37.4434 31.7016 38.076 32.0426 38.6759 31.8689L38.6764 31.8688C39.2733 31.6951 39.626 31.0685 39.4478 30.466C38.3035 26.5647 36.0412 23.5063 32.5877 21.3011L37.6142 30.9999ZM37.6142 30.9999C37.7321 31.4086 38.1635 31.6438 38.5762 31.5244L38.5762 31.5244L37.6142 30.9999ZM37.6142 30.9999L37.27 31.1008C36.2823 27.7325 34.3428 25.1061 31.3637 23.2047L31.3636 23.2046M37.6142 30.9999L31.3636 23.2046M31.3636 23.2046C30.8375 22.8685 30.6812 22.1684 31.0225 21.6417M31.3636 23.2046L31.0225 21.6417M31.0225 21.6417C31.36 21.1161 32.0625 20.9655 32.5876 21.301L31.0225 21.6417Z" fill="#7432FF" stroke="#7432FF" stroke-width="0.717375"/>
<path d="M74.0712 32.291L74.0715 32.2909C74.8496 31.8976 75.1296 31.1449 75.0583 30.3405C74.9955 29.6055 74.6039 28.7857 74.3921 28.4133C73.9609 27.6544 73.4611 26.9387 72.9076 26.2703C75.591 21.212 81.5166 19.1536 86.7546 21.532L86.7551 21.5322C87.3251 21.7901 87.9955 21.5409 88.2585 20.975L88.2595 20.9728L88.2594 20.9728C88.5188 20.4048 88.2681 19.7335 87.6964 19.4747C81.5768 16.6959 74.6639 18.9129 71.2666 24.5666C70.7668 24.1177 70.2394 23.6991 69.6913 23.3123L69.6912 23.3122C63.3593 18.847 54.1125 20.3361 47.0856 26.8977L47.0856 26.8977C45.951 27.9577 45.0682 29.5045 44.3859 31.3279C43.7021 33.1548 43.2108 35.2833 42.8733 37.5311C42.2266 41.8357 42.1068 46.6104 42.1412 50.4674C41.4121 48.768 40.5959 47.1137 39.7284 45.4649L39.7284 45.4648C39.3867 44.8155 39.0454 44.1629 38.7031 43.5084C34.6152 35.6922 30.3881 27.6099 23.6233 21.6373L23.6223 21.6364C23.1534 21.2256 22.4378 21.2649 22.0227 21.7324C21.6038 22.2006 21.6509 22.9164 22.1181 23.3292L22.1182 23.3293C28.5917 29.0462 32.6372 36.7912 36.6218 44.4197C36.9873 45.1196 37.3524 45.8185 37.7188 46.5148L37.7188 46.5148C39.083 49.1069 40.3058 51.6921 41.2502 54.4459L41.2504 54.4466C41.287 54.5524 41.3235 54.6578 41.36 54.7629C41.6097 55.4833 41.8552 56.1912 42.0634 56.9139C42.0635 56.9145 42.0652 56.9226 42.0659 56.9415C42.0669 56.9642 42.0663 56.9936 42.0639 57.0327C42.062 57.0639 42.0594 57.0954 42.0564 57.1316C42.0556 57.1417 42.0547 57.1521 42.0538 57.1629C42.05 57.2102 42.0459 57.2642 42.044 57.319L42.0439 57.3227C42.0376 57.5937 42.0484 57.8828 42.1082 58.1113L42.1089 58.1139C42.2217 58.5316 42.4726 58.8221 42.7886 58.9875L42.7905 58.9885C43.022 59.1079 43.3094 59.1735 43.6538 59.1124L43.6575 59.1117C43.9014 59.0657 44.2932 58.9288 44.504 58.4329C44.5297 58.3733 44.5444 58.3027 44.5539 58.2502C44.5654 58.186 44.5761 58.1068 44.5847 58.014C44.6021 57.828 44.6125 57.5783 44.6044 57.2701L44.6044 57.2693C44.5954 56.9551 44.5792 56.5434 44.5598 56.049C44.4305 52.7532 44.1567 45.7787 44.9061 39.4492C45.1826 37.1121 45.5849 34.8746 46.189 32.9706C46.7949 31.0607 47.5927 29.5224 48.6366 28.5472C54.9008 22.6981 62.9508 21.3301 68.3809 25.1577C69.0655 25.6403 69.7077 26.1786 70.298 26.7685C70.1955 27.2998 70.1344 27.9687 70.1436 28.6493C70.154 29.4128 70.2533 30.2208 70.502 30.8778L70.502 30.8779C70.7631 31.5666 71.1924 32.1215 71.7798 32.412L74.0712 32.291ZM74.0712 32.291C73.1669 32.7473 72.3958 32.7172 71.78 32.4121L74.0712 32.291ZM72.7338 30.3217C72.7485 30.3457 72.7606 30.361 72.7697 30.3707C72.7135 30.1355 72.6069 29.891 72.5121 29.7035C72.5434 29.8371 72.5809 29.9632 72.6249 30.0788L72.6251 30.0792C72.6668 30.1892 72.6995 30.2656 72.7338 30.3217Z" fill="#7432FF" stroke="#7432FF" stroke-width="0.717375"/>
<rect x="61.2048" y="42.2048" width="78.157" height="84.1532" rx="4.48516" fill="white" stroke="#7432FF" stroke-width="1.59041"/>
<rect x="66.6123" y="47.6124" width="66.8804" height="58.1168" rx="3.68995" fill="#EAD6FF"/>
<g clip-path="url(#clip0_2657_2609)">
<path d="M98.3755 85.291C97.0125 85.291 95.68 84.8868 94.5467 84.1296C93.4133 83.3723 92.53 82.2959 92.0084 81.0366C91.4867 79.7773 91.3503 78.3916 91.6162 77.0547C91.8821 75.7179 92.5385 74.4899 93.5023 73.526C94.4661 72.5622 95.6941 71.9058 97.031 71.6399C98.3679 71.374 99.7536 71.5105 101.013 72.0321C102.272 72.5537 103.349 73.437 104.106 74.5704C104.863 75.7037 105.267 77.0362 105.267 78.3992C105.267 80.2271 104.541 81.98 103.249 83.2725C101.956 84.5649 100.203 85.291 98.3755 85.291ZM87.4917 85.291H79.4231C78.9662 85.291 78.5279 85.1095 78.2048 84.7864C77.8817 84.4633 77.7002 84.025 77.7002 83.5681C77.7165 81.0941 78.6163 78.7074 80.2373 76.8384C81.8583 74.9694 84.0938 73.7411 86.5406 73.3751C86.8249 73.3353 87.1147 73.3672 87.3836 73.4678C87.6525 73.5684 87.892 73.7346 88.0803 73.9514C88.2686 74.1681 88.3997 74.4284 88.4618 74.7087C88.5239 74.989 88.515 75.2804 88.4359 75.5564C88.1718 76.4809 88.0379 77.4377 88.0379 78.3992C88.0384 79.9322 88.3834 81.4455 89.0475 82.8272C89.1724 83.0895 89.229 83.379 89.212 83.669C89.195 83.959 89.1049 84.24 88.9502 84.4858C88.7954 84.7317 88.5811 84.9344 88.327 85.0752C88.0729 85.216 87.7873 85.2902 87.4969 85.291H87.4917ZM106.99 99.0746H89.7608C89.3039 99.0746 88.8656 98.8931 88.5425 98.5699C88.2194 98.2468 88.0379 97.8086 88.0379 97.3516C88.0379 94.6099 89.127 91.9805 91.0657 90.0418C93.0044 88.1031 95.6338 87.014 98.3755 87.014C101.117 87.014 103.747 88.1031 105.685 90.0418C107.624 91.9805 108.713 94.6099 108.713 97.3516C108.713 97.8086 108.532 98.2468 108.209 98.5699C107.885 98.8931 107.447 99.0746 106.99 99.0746ZM108.713 71.5075C107.35 71.5075 106.018 71.1033 104.884 70.346C103.751 69.5887 102.868 68.5124 102.346 67.2531C101.824 65.9938 101.688 64.608 101.954 63.2712C102.22 61.9343 102.876 60.7063 103.84 59.7425C104.804 58.7786 106.032 58.1223 107.369 57.8563C108.706 57.5904 110.091 57.7269 111.351 58.2485C112.61 58.7701 113.686 59.6535 114.443 60.7868C115.201 61.9202 115.605 63.2526 115.605 64.6157C115.605 66.4435 114.879 68.1965 113.586 69.4889C112.294 70.7814 110.541 71.5075 108.713 71.5075ZM88.0379 71.5075C86.6748 71.5075 85.3423 71.1033 84.209 70.346C83.0756 69.5887 82.1923 68.5124 81.6707 67.2531C81.1491 65.9938 81.0126 64.608 81.2785 63.2712C81.5444 61.9343 82.2008 60.7063 83.1646 59.7425C84.1285 58.7786 85.3565 58.1223 86.6933 57.8563C88.0302 57.5904 89.4159 57.7269 90.6752 58.2485C91.9345 58.7701 93.0109 59.6535 93.7682 60.7868C94.5254 61.9202 94.9296 63.2526 94.9296 64.6157C94.9296 66.4435 94.2035 68.1965 92.9111 69.4889C91.6186 70.7814 89.8657 71.5075 88.0379 71.5075ZM117.328 85.291H109.259C108.969 85.2902 108.683 85.216 108.429 85.0752C108.175 84.9344 107.961 84.7317 107.806 84.4858C107.651 84.24 107.561 83.959 107.544 83.669C107.527 83.379 107.584 83.0895 107.709 82.8272C108.371 81.4451 108.714 79.9318 108.713 78.3992C108.71 77.4373 108.574 76.4805 108.307 75.5564C108.227 75.2796 108.218 74.9873 108.281 74.7062C108.343 74.4251 108.475 74.1641 108.664 73.9472C108.854 73.7302 109.094 73.5642 109.365 73.4642C109.635 73.3643 109.925 73.3337 110.21 73.3751C112.657 73.7411 114.893 74.9694 116.514 76.8384C118.135 78.7074 119.035 81.0941 119.051 83.5681C119.051 84.025 118.869 84.4633 118.546 84.7864C118.223 85.1095 117.785 85.291 117.328 85.291Z" fill="#7432FF"/>
</g>
<g clip-path="url(#clip1_2657_2609)">
<path d="M131.009 106.318L126.836 102.144C127.973 100.753 128.532 98.978 128.398 97.1862C128.263 95.3944 127.445 93.7229 126.112 92.5174C124.78 91.3119 123.035 90.6647 121.239 90.7096C119.442 90.7545 117.732 91.4881 116.461 92.7587C115.191 94.0293 114.457 95.7396 114.412 97.5359C114.367 99.3322 115.015 101.077 116.22 102.41C117.426 103.742 119.097 104.56 120.889 104.695C122.681 104.829 124.456 104.27 125.847 103.133L130.021 107.307C130.152 107.434 130.329 107.504 130.512 107.503C130.696 107.501 130.871 107.428 131.001 107.298C131.13 107.168 131.204 106.993 131.206 106.81C131.207 106.626 131.137 106.45 131.009 106.318ZM121.425 103.316C120.319 103.316 119.237 102.988 118.317 102.373C117.397 101.759 116.68 100.885 116.257 99.8628C115.833 98.8407 115.723 97.7159 115.938 96.6308C116.154 95.5457 116.687 94.549 117.469 93.7667C118.252 92.9843 119.248 92.4516 120.334 92.2357C121.419 92.0199 122.543 92.1307 123.566 92.5541C124.588 92.9774 125.461 93.6944 126.076 94.6143C126.691 95.5342 127.019 96.6158 127.019 97.7221C127.017 99.2052 126.427 100.627 125.379 101.676C124.33 102.724 122.908 103.314 121.425 103.316Z" fill="#8083A3"/>
</g>
<defs>
<linearGradient id="paint0_linear_2657_2609" x1="96.639" y1="-26.513" x2="98.2886" y2="259.429" gradientUnits="userSpaceOnUse">
<stop stop-color="#F2F2F2"/>
<stop offset="1" stop-color="#EFEFEF"/>
</linearGradient>
<clipPath id="clip0_2657_2609">
<rect width="41.3507" height="41.3507" fill="white" transform="translate(77.7002 57.7239)"/>
</clipPath>
<clipPath id="clip1_2657_2609">
<rect width="32.3078" height="32.3078" fill="white" transform="translate(114.453 90.7504)"/>
</clipPath>
</defs>
</svg>
