<svg width="281" height="113" viewBox="0 0 281 113" fill="none" xmlns="http://www.w3.org/2000/svg">
<path d="M207.63 113C205.881 113 204.101 112.76 202.306 112.257C193.987 109.921 188.611 102.826 188.611 94.1832V39.8429C188.611 32.582 192.275 25.9369 198.409 22.0699L232.454 0.580046C233.678 -0.193349 235.24 -0.193349 236.463 0.580046L270.508 22.0699C276.642 25.9444 280.307 32.5895 280.307 39.8429V82.267C280.307 90.3463 275.734 97.4195 268.375 100.738C261.002 104.065 252.652 102.796 246.585 97.4345C242.11 93.4774 238.258 89.3852 234.842 85.1803L223.398 103.945C219.869 109.741 214.005 112.993 207.623 112.993L207.63 113ZM234.466 8.19385L202.427 28.4222C198.485 30.9151 196.127 35.1876 196.127 39.8504V94.1908C196.127 100.483 200.369 103.915 204.341 105.033C208.313 106.145 213.727 105.424 217.001 100.055L229.991 78.7529C225.366 72.1678 221.529 65.3574 217.782 58.4494L217.587 58.0965C214.328 52.0821 214.47 44.9864 217.97 39.1146C221.469 33.2428 227.641 29.7287 234.474 29.7287C241.307 29.7287 247.636 33.3179 251.105 39.3323C254.574 45.3468 254.574 52.5251 251.105 58.5395C251.09 58.5621 251.075 58.5921 251.06 58.6146L239.009 78.3775C242.583 83.0178 246.66 87.493 251.563 91.8255C256.136 95.8652 261.655 95.5498 265.297 93.9054C269.997 91.788 272.805 87.4404 272.805 82.282V39.8579C272.805 35.195 270.448 30.9226 266.506 28.4297L234.466 8.20135V8.19385ZM234.466 37.2299C230.299 37.2299 226.544 39.3699 224.412 42.944C222.279 46.5257 222.197 50.8431 224.179 54.5074L224.374 54.8603C227.558 60.7321 230.697 66.3411 234.263 71.7248L244.618 54.7401C246.713 51.0834 246.705 46.7284 244.595 43.0792C242.478 39.4149 238.693 37.2299 234.466 37.2299Z" fill="#7432FF"/>
<path d="M234.263 71.7173L229.983 78.7379L228.144 76.0198L232.574 69.0818L234.263 71.7173Z" fill="#4A23B5"/>
<path d="M239.001 78.3624L234.849 85.1878L236.779 87.493L240.856 80.6826L239.001 78.3624Z" fill="#4A23B5"/>
<path d="M140.653 76.3351C132.799 76.3351 127.91 81.8915 127.91 90.8268C127.91 99.7622 132.791 105.319 140.653 105.319C145.556 105.319 149.783 103.224 151.953 99.7171L148.514 96.3232L148.499 96.3532C146.757 99.1389 144.384 100.49 141.231 100.49C136.748 100.49 133.602 97.7048 133.602 93.2221V92.3361H152.959V90.136C152.959 81.7488 148.124 76.3351 140.645 76.3351H140.653ZM133.61 88.1162C133.61 83.7987 136.658 80.9004 140.653 80.9004C144.647 80.9004 147.268 83.6035 147.268 87.9585C147.268 87.6657 147.253 87.3879 147.23 87.11H133.67C133.632 87.4404 133.602 87.7708 133.602 88.1162H133.61Z" fill="#7432FF"/>
<path d="M31.4989 88.4841L29.006 99.6646L26.0176 88.4766L22.6086 76.3351H17.3601L13.9962 88.4841L11.0678 99.6646L8.51485 88.4841L5.69158 76.3351H0L7.56875 105.326H13.9887L17.6679 92.1183L19.8755 83.8888L25.7623 105.326H32.3399L39.8035 76.3351H34.3747L31.4989 88.4841Z" fill="#7432FF"/>
<path d="M65.3406 86.0438C65.3406 79.8717 61.2784 76.3351 54.1977 76.3351C49.4297 76.3351 45.8105 78.1972 43.7456 81.7188V81.7338L47.2296 84.91L47.2446 84.8875C48.874 82.3195 50.9615 81.1181 53.8223 81.1181C57.5315 81.1181 59.4913 82.9502 59.4913 86.4117V88.7244H54.5131C49.1143 88.7244 42.6794 90.1661 42.6794 97.0515C42.6794 102.15 46.1109 105.326 51.6447 105.326C55.5267 105.326 58.3275 103.674 59.5289 100.671L59.8818 99.7922L60.092 100.716C60.6777 103.276 62.4122 104.688 64.9952 104.688H68.269V99.9048H65.3406V86.0438ZM59.4913 96.4734C59.4913 99.1014 56.9984 100.866 53.2966 100.866C50.3382 100.866 48.6413 99.5144 48.6413 97.1642V96.203C48.6413 93.7477 50.6536 92.5088 54.6257 92.5088H59.4913V96.4734Z" fill="#7432FF"/>
<path d="M84.8931 88.364L82.3551 88.0486C79.3366 87.5531 78.1052 86.5244 78.1052 84.497C78.1052 82.312 79.8022 81.058 82.7606 81.058C85.3661 81.058 87.8139 82.1994 89.4959 84.1892L89.5184 84.2117L93.1151 80.7727V80.7577C90.2618 77.6115 87.2658 76.3351 82.7606 76.3351C76.5059 76.3351 72.4662 79.684 72.4662 84.8724C72.4662 89.6179 75.5297 92.3962 81.5817 93.1395L84.1347 93.4624C86.7327 93.8003 88.0467 94.9566 88.0467 96.9013C88.0467 99.2891 86.2596 100.603 83.0159 100.603C79.9524 100.603 77.3994 99.3192 75.2144 96.6761L75.1918 96.6536L71.4375 100.093H71.445C74.3058 103.667 77.88 105.326 82.693 105.326C89.2631 105.326 93.6782 101.744 93.6782 96.4208C93.6782 91.8856 90.8024 89.25 84.878 88.364H84.8931Z" fill="#7432FF"/>
<path d="M111.068 76.3351C103.214 76.3351 98.3261 81.8915 98.3261 90.8268C98.3261 99.7622 103.207 105.319 111.068 105.319C115.972 105.319 120.199 103.224 122.369 99.7171L118.93 96.3232L118.915 96.3532C117.173 99.1389 114.8 100.49 111.647 100.49C107.164 100.49 104.018 97.7048 104.018 93.2221V92.3361H123.375V90.136C123.375 81.7488 118.539 76.3351 111.061 76.3351H111.068ZM111.068 80.8929C114.86 80.8929 117.683 83.596 117.683 87.951C117.683 87.6582 117.668 87.3803 117.646 87.1025H104.085C104.048 87.4329 104.018 87.7633 104.018 88.1087C104.018 83.7912 107.066 80.8929 111.061 80.8929H111.068Z" fill="#7432FF"/>
<path d="M171.678 81.2383V76.3577H166.497V69.4197H160.858V73.6245C160.858 75.6368 160.573 76.3577 158.711 76.3577H156.346V81.2383H160.858V99.1766C160.858 103.081 162.893 105.326 166.798 105.326H171.686V100.446H166.505V81.2383H171.686H171.678Z" fill="#7432FF"/>
<path d="M76.3558 66.9267C77.9176 66.9267 79.0439 66.0482 79.0439 63.9458C79.0439 61.8434 77.9176 60.9198 76.3558 60.9198H75.5299C73.9681 60.9198 72.8417 61.7983 72.8417 63.9458C72.8417 66.0933 73.9681 66.9267 75.5299 66.9267H76.3558Z" fill="#7432FF"/>
<path d="M82.7981 66.9267H83.6241C85.1859 66.9267 86.3122 66.0482 86.3122 63.9458C86.3122 61.8434 85.1859 60.9198 83.6241 60.9198H82.7981C81.2363 60.9198 80.11 61.7983 80.11 63.9458C80.11 66.0933 81.2363 66.9267 82.7981 66.9267Z" fill="#7432FF"/>
<path d="M130.944 54.0794C131.86 57.7586 134.083 59.2754 138.438 59.2754C143.731 59.2754 146.202 56.2795 146.202 49.852V38.574H140.54V51.549C140.54 53.5162 140.187 53.8917 138.73 53.8917H138.1C136.493 53.8917 135.562 51.6391 135.562 48.8233V42.1256H129.863V50.5803C129.863 53.4111 129.239 53.8917 126.394 53.8917C126.364 53.8917 126.168 53.8767 126.161 53.8767C125.763 53.8692 125.35 53.8241 124.907 53.7565C123.856 53.4487 123.172 52.4575 123.172 48.9585V42.2607H117.458V48.14C117.458 51.0534 116.767 53.8466 113.997 53.8466C113.929 53.8466 113.291 53.8992 113.291 53.8992H85.6365C83.3088 53.8992 82.2726 52.863 82.2726 50.5353V42.1331H76.5585V50.5353C76.5585 52.863 75.4172 53.8992 72.8492 53.8992H41.7332C42.8971 52.1947 43.7831 48.936 43.7831 47.1189C43.7831 45.6321 43.5353 44.2731 43.0473 43.0792C42.5517 41.8778 41.5756 40.8416 40.6445 39.9931C39.7209 39.1522 38.5721 38.4914 37.2431 38.0484C35.9215 37.6054 34.4048 37.3801 32.7379 37.3801C30.8607 37.3801 28.991 37.6504 27.1739 38.1835C25.3568 38.7166 23.5472 39.4975 21.7902 40.4962C20.0407 41.4949 18.2761 42.7188 16.5491 44.1379C15.0023 45.4144 13.4255 46.856 11.8712 48.4254V31.0953H6.12709V52.2022H0V59.1928H6.12709V62.8345L6.70526 62.7444C7.8691 62.4441 8.51485 61.926 9.61111 61.1976C10.4971 60.6044 11.2405 59.9287 11.8262 59.1928H74.9141L75.1919 59.1703V59.1553C78.6159 58.8775 80.5006 57.203 81.3791 53.6289C82.3777 57.203 84.8481 58.9751 89.1055 59.1703V59.1928H111.579L114.432 59.0727C116.707 58.6147 118.044 57.0604 118.577 54.2371C119.441 57.6986 121.445 59.1928 125.162 59.1928C128.263 59.1928 130.306 57.3907 130.966 54.0944L130.944 54.0794ZM25.9425 53.8992H12.8399C14.2515 52.8179 19.898 44.3181 32.5802 44.3181C36.2819 44.3181 38.084 45.4669 38.084 47.8397C38.084 54.2521 28.2402 53.8992 25.95 53.8992H25.9425Z" fill="#7432FF"/>
<path d="M154.461 61.0025H150.737C150.737 61.0025 155.963 66.3486 161.362 66.3486C166.76 66.3486 170.319 61.0325 171.393 54.7703C171.986 51.3238 171.716 47.7421 170.207 44.596C168.51 41.0594 165.619 38.5815 161.639 38.5815C155.963 38.5815 151.052 42.1557 151.052 48.8909C151.052 54.3948 154.912 56.9252 160.318 56.9252L166.415 51.6466H160.656C157.998 51.6466 155.655 50.4828 155.655 48.0575C155.655 44.1229 158.553 43.8451 161.099 43.8451C165.289 43.8451 166.415 47.0438 166.415 51.6466C166.415 58.427 161.527 61.0025 154.461 61.0025Z" fill="#7432FF"/>
</svg>
