<svg width="90" height="82" viewBox="0 0 90 82" fill="none" xmlns="http://www.w3.org/2000/svg">
<path d="M0 46.2357C0 55.6947 7.76188 63.3064 19.4589 63.3064H41.6419V78.468C41.6419 80.2089 43.1201 81.6931 44.9104 81.6931C46.6944 81.6931 48.1435 80.2089 48.1435 78.468V63.3064H72.3089C82.7263 63.3064 89.7398 56.8015 89.7398 47.9159C89.7398 40.5423 85.4728 34.0053 78.5153 31.12C78.5603 14.9559 67.0968 3.29944 52.3938 3.29944C43.0172 3.29944 36.0226 8.23639 31.6136 14.704C23.2842 12.5987 13.3453 19.0248 13.0176 29.1371C4.98285 30.5604 0 37.7773 0 46.2357ZM41.6419 61.4403V43.4127L41.8972 38.1135L40.1927 40.2388L34.7859 46.0797C34.2239 46.7166 33.3745 47.0543 32.586 47.0543C30.9701 47.0543 29.7002 45.8522 29.7002 44.2084C29.7002 43.3248 30.0484 42.6879 30.6391 42.0867L42.4471 30.5189C43.2767 29.6745 44.0391 29.3789 44.9104 29.3789C45.7466 29.3789 46.5087 29.6745 47.3448 30.5189L59.1466 42.0867C59.7373 42.6879 60.0854 43.3248 60.0854 44.2084C60.0854 45.8522 58.7577 47.0543 57.1706 47.0543C56.3824 47.0543 55.5618 46.7166 55.0061 46.0797L49.593 40.2388L47.8885 38.1135L48.1435 43.4127V61.4403C48.1435 63.2719 46.6755 64.7369 44.9104 64.7369C43.1102 64.7369 41.6419 63.2719 41.6419 61.4403Z" fill="#6061F0" fill-opacity="0.12"/>
</svg>
