<svg width="15" height="15" viewBox="0 0 15 15" fill="none" xmlns="http://www.w3.org/2000/svg">
<g clip-path="url(#clip0_313_987)">
<path d="M7.5 0C3.3625 0 0 3.3625 0 7.5C0 11.6375 3.3625 15 7.5 15C11.6375 15 15 11.6375 15 7.5C15 3.3625 11.6375 0 7.5 0ZM10.7312 7.2625L9.375 8.36875L9.9375 10.075C10.0125 10.3063 9.9375 10.5625 9.74375 10.7062C9.55 10.8562 9.2875 10.8625 9.08125 10.7312L7.50625 9.70625L5.95625 10.7438C5.8625 10.8063 5.75 10.8375 5.6375 10.8375C5.51875 10.8375 5.39375 10.8 5.29375 10.725C5.1 10.5813 5.01875 10.325 5.09375 10.0938L5.63125 8.36875L4.26875 7.2625C4.0875 7.10625 4.01875 6.85625 4.1 6.63125C4.18125 6.40625 4.4 6.25625 4.6375 6.25625H6.35625L6.9625 4.625C7.04375 4.4 7.2625 4.25 7.5 4.25C7.7375 4.25 7.95625 4.4 8.0375 4.625L8.64375 6.25625H10.3625C10.6 6.25625 10.8188 6.40625 10.9 6.63125C10.9813 6.85625 10.9125 7.1125 10.7312 7.26875V7.2625Z" fill="#9C66FF"/>
</g>
<defs>
<clipPath id="clip0_313_987">
<rect width="15" height="15" fill="white"/>
</clipPath>
</defs>
</svg>
