<svg width="25" height="25" viewBox="0 0 25 25" fill="none" xmlns="http://www.w3.org/2000/svg">
<path d="M22.5 12.45V18.5C22.5 19.021 22.101 19.454 21.583 19.497C21.555 19.499 21.527 19.5 21.5 19.5C21.016 19.5 20.596 19.15 20.515 18.665C20.126 16.332 16.895 15.5 14.001 15.5H9.501V4.5H14.001C16.895 4.5 20.126 3.669 20.515 1.335C20.601 0.821997 21.07 0.454997 21.584 0.502997C22.103 0.545997 22.501 0.978997 22.501 1.5V7.55C23.642 7.782 24.501 8.79 24.501 10C24.501 11.21 23.641 12.218 22.5 12.45ZM7.5 15.5V4.5H6C2.967 4.5 0.5 6.967 0.5 10C0.5 13.033 2.967 15.5 6 15.5H7.5ZM9.023 17.5H6C5.122 17.5 4.279 17.348 3.495 17.069L5.666 22.861C5.894 23.486 6.352 23.985 6.955 24.266C7.29 24.422 7.647 24.5 8.005 24.5C8.293 24.5 8.582 24.449 8.86 24.348C9.485 24.12 9.984 23.662 10.265 23.059C10.546 22.455 10.575 21.779 10.347 21.155L9.022 17.499L9.023 17.5Z" fill="#535353"/>
</svg>
