<svg width="21" height="21" viewBox="0 0 21 21" fill="none" xmlns="http://www.w3.org/2000/svg">
<g clip-path="url(#clip0_399_797)">
<path d="M16.1667 0.5H4.50004C2.20254 0.5 0.333374 2.36917 0.333374 4.66667V16.3333C0.333374 18.6308 2.20254 20.5 4.50004 20.5H16.1667C18.4642 20.5 20.3334 18.6308 20.3334 16.3333V4.66667C20.3334 2.36917 18.4642 0.5 16.1667 0.5ZM13.6667 11.3333H11.1667V13.8333C11.1667 14.2942 10.7934 14.6667 10.3334 14.6667C9.87337 14.6667 9.50004 14.2942 9.50004 13.8333V11.3333H7.00004C6.54004 11.3333 6.16671 10.9608 6.16671 10.5C6.16671 10.0392 6.54004 9.66667 7.00004 9.66667H9.50004V7.16667C9.50004 6.70583 9.87337 6.33333 10.3334 6.33333C10.7934 6.33333 11.1667 6.70583 11.1667 7.16667V9.66667H13.6667C14.1267 9.66667 14.5 10.0392 14.5 10.5C14.5 10.9608 14.1267 11.3333 13.6667 11.3333Z" fill="#535353"/>
</g>
<defs>
<clipPath id="clip0_399_797">
<rect width="20" height="20" fill="white" transform="translate(0.333374 0.5)"/>
</clipPath>
</defs>
</svg>
