<svg width="25" height="25" viewBox="0 0 25 25" fill="none" xmlns="http://www.w3.org/2000/svg">
<path d="M22.3334 12.45V18.5C22.3334 19.021 21.9344 19.454 21.4164 19.497C21.3884 19.499 21.3604 19.5 21.3334 19.5C20.8494 19.5 20.4294 19.15 20.3484 18.665C19.9594 16.332 16.7284 15.5 13.8344 15.5H9.33438V4.5H13.8344C16.7284 4.5 19.9594 3.669 20.3484 1.335C20.4344 0.821997 20.9034 0.454997 21.4174 0.502997C21.9364 0.545997 22.3344 0.978997 22.3344 1.5V7.55C23.4754 7.782 24.3344 8.79 24.3344 10C24.3344 11.21 23.4744 12.218 22.3334 12.45ZM7.33337 15.5V4.5H5.83337C2.80037 4.5 0.333374 6.967 0.333374 10C0.333374 13.033 2.80037 15.5 5.83337 15.5H7.33337ZM8.85637 17.5H5.83337C4.95537 17.5 4.11237 17.348 3.32837 17.069L5.49937 22.861C5.72737 23.486 6.18537 23.985 6.78837 24.266C7.12337 24.422 7.48037 24.5 7.83838 24.5C8.12638 24.5 8.41537 24.449 8.69337 24.348C9.31837 24.12 9.81738 23.662 10.0984 23.059C10.3794 22.455 10.4084 21.779 10.1804 21.155L8.85538 17.499L8.85637 17.5Z" fill="#535353"/>
</svg>
