<svg width="20" height="20" viewBox="0 0 20 20" fill="none" xmlns="http://www.w3.org/2000/svg">
<g clip-path="url(#clip0_577_1107)">
<path d="M10 14.1667C9.34073 14.1667 8.69626 13.9712 8.1481 13.6049C7.59994 13.2386 7.17269 12.718 6.9204 12.1089C6.66811 11.4999 6.6021 10.8296 6.73072 10.183C6.85933 9.53643 7.1768 8.94249 7.64298 8.47631C8.10915 8.01014 8.7031 7.69267 9.3497 7.56405C9.9963 7.43543 10.6665 7.50144 11.2756 7.75374C11.8847 8.00603 12.4053 8.43327 12.7716 8.98143C13.1378 9.5296 13.3333 10.1741 13.3333 10.8333C13.3333 11.7174 12.9821 12.5652 12.357 13.1904C11.7319 13.8155 10.8841 14.1667 10 14.1667ZM15 17.5C15 16.837 14.7366 16.2011 14.2678 15.7322C13.7989 15.2634 13.163 15 12.5 15H7.5C6.83696 15 6.20107 15.2634 5.73223 15.7322C5.26339 16.2011 5 16.837 5 17.5V20H15V17.5ZM15 6.66667C14.3407 6.66667 13.6963 6.47117 13.1481 6.1049C12.5999 5.73863 12.1727 5.21803 11.9204 4.60895C11.6681 3.99986 11.6021 3.32964 11.7307 2.68303C11.8593 2.03643 12.1768 1.44249 12.643 0.976312C13.1092 0.510137 13.7031 0.192668 14.3497 0.0640506C14.9963 -0.0645668 15.6665 0.00144427 16.2756 0.253736C16.8847 0.506029 17.4053 0.93327 17.7716 1.48143C18.1378 2.0296 18.3333 2.67406 18.3333 3.33334C18.3333 4.21739 17.9821 5.06524 17.357 5.69036C16.7319 6.31548 15.8841 6.66667 15 6.66667ZM5 6.66667C4.34073 6.66667 3.69626 6.47117 3.1481 6.1049C2.59994 5.73863 2.17269 5.21803 1.9204 4.60895C1.66811 3.99986 1.6021 3.32964 1.73072 2.68303C1.85933 2.03643 2.1768 1.44249 2.64298 0.976312C3.10915 0.510137 3.7031 0.192668 4.3497 0.0640506C4.9963 -0.0645668 5.66652 0.00144427 6.27561 0.253736C6.8847 0.506029 7.40529 0.93327 7.77156 1.48143C8.13784 2.0296 8.33333 2.67406 8.33333 3.33334C8.33333 4.21739 7.98214 5.06524 7.35702 5.69036C6.7319 6.31548 5.88405 6.66667 5 6.66667ZM5 10.8333C4.99957 9.60198 5.45596 8.41424 6.28083 7.5H2.5C1.83696 7.5 1.20107 7.76339 0.732233 8.23223C0.263392 8.70108 0 9.33696 0 10L0 12.5H5.29083C5.09946 11.9651 5.00109 11.4014 5 10.8333ZM14.7092 12.5H20V10C20 9.33696 19.7366 8.70108 19.2678 8.23223C18.7989 7.76339 18.163 7.5 17.5 7.5H13.7192C14.3212 8.16584 14.7312 8.98256 14.9056 9.86311C15.0799 10.7436 15.012 11.655 14.7092 12.5Z" fill="#535353"/>
</g>
<defs>
<clipPath id="clip0_577_1107">
<rect width="20" height="20" fill="white"/>
</clipPath>
</defs>
</svg>
