<svg width="18" height="18" viewBox="0 0 18 18" fill="none" xmlns="http://www.w3.org/2000/svg">
<g id="apartment 1" clip-path="url(#clip0_524_2183)">
<path id="Vector" d="M15.75 3.75H14.25V2.25C14.25 1.0095 13.2405 0 12 0H6C4.7595 0 3.75 1.0095 3.75 2.25V6.75H2.25C1.0095 6.75 0 7.7595 0 9V18H18V6C18 4.7595 16.9905 3.75 15.75 3.75ZM4.5 14.25H3V12.75H4.5V14.25ZM4.5 11.25H3V9.75H4.5V11.25ZM8.25 14.25H6.75V12.75H8.25V14.25ZM8.25 11.25H6.75V9.75H8.25V11.25ZM8.25 8.25H6.75V6.75H8.25V8.25ZM8.25 5.25H6.75V3.75H8.25V5.25ZM11.25 14.25H9.75V12.75H11.25V14.25ZM11.25 11.25H9.75V9.75H11.25V11.25ZM11.25 8.25H9.75V6.75H11.25V8.25ZM11.25 5.25H9.75V3.75H11.25V5.25ZM15 14.25H13.5V12.75H15V14.25ZM15 11.25H13.5V9.75H15V11.25ZM15 8.25H13.5V6.75H15V8.25Z" fill="#7432FF"/>
</g>
<defs>
<clipPath id="clip0_524_2183">
<rect width="18" height="18" fill="white"/>
</clipPath>
</defs>
</svg>
