<svg width="53" height="21" viewBox="0 0 53 21" fill="none" xmlns="http://www.w3.org/2000/svg">
<path fill-rule="evenodd" clip-rule="evenodd" d="M7.00852 3.89629C7.993 3.97622 8.97749 3.41675 9.59279 2.70742C10.1978 1.97812 10.5978 0.999049 10.4952 0C9.62356 0.039962 8.54677 0.559468 7.93147 1.28877C7.36744 1.91817 6.88546 2.9372 7.00852 3.89629ZM18.7198 16.764V1.18886H24.719C27.8161 1.18886 29.9799 3.26689 29.9799 6.30399C29.9799 9.3411 27.775 11.4391 24.637 11.4391H21.2015V16.764H18.7198ZM10.4849 4.0861C9.61759 4.03747 8.82621 4.3402 8.18698 4.58473C7.77563 4.74209 7.42728 4.87534 7.16227 4.87534C6.86487 4.87534 6.50215 4.73496 6.09489 4.57735C5.56125 4.37082 4.95115 4.13471 4.31136 4.14604C2.84489 4.16602 1.48097 4.97525 0.732349 6.26402C-0.80591 8.84157 0.332402 12.6579 1.81939 14.7559C2.54749 15.7949 3.41917 16.9339 4.56774 16.8939C5.07304 16.8753 5.43652 16.7251 5.8127 16.5696C6.24577 16.3905 6.69566 16.2046 7.39814 16.2046C8.07626 16.2046 8.50647 16.3857 8.91945 16.5596C9.31213 16.7249 9.68923 16.8837 10.249 16.8739C11.4386 16.8539 12.1872 15.8349 12.9154 14.7959C13.7011 13.6808 14.0464 12.5924 14.0988 12.4273C14.1018 12.4178 14.1038 12.4114 14.1049 12.4082C14.1037 12.4069 14.094 12.4026 14.0769 12.395C13.8142 12.2778 11.8066 11.3825 11.7873 8.98143C11.768 6.96613 13.3797 5.94505 13.6334 5.78431C13.6488 5.77455 13.6593 5.76793 13.664 5.7645C12.6385 4.28591 11.0387 4.12606 10.4849 4.0861ZM34.5127 16.8839C36.0715 16.8839 37.5174 16.1146 38.1738 14.8958H38.225V16.764H40.5222V9.01141C40.5222 6.76356 38.6763 5.31493 35.8356 5.31493C33.2001 5.31493 31.2516 6.78354 31.1798 8.80161H33.4154C33.6 7.84253 34.5127 7.21313 35.7638 7.21313C37.2816 7.21313 38.1328 7.90247 38.1328 9.17126V10.0304L35.0357 10.2103C32.1541 10.3801 30.5953 11.529 30.5953 13.5271C30.5953 15.5452 32.2053 16.8839 34.5127 16.8839ZM35.1791 15.0357C33.8562 15.0357 33.0153 14.4163 33.0153 13.4672C33.0153 12.4881 33.8255 11.9187 35.374 11.8287L38.1326 11.6589V12.5381C38.1326 13.9967 36.861 15.0357 35.1791 15.0357ZM48.1416 17.3735C47.1469 20.1009 46.0085 21 43.5883 21C43.4038 21 42.7885 20.98 42.6449 20.9401V19.0718C42.7987 19.0918 43.1781 19.1118 43.373 19.1118C44.4703 19.1118 45.0856 18.6622 45.465 17.4933L45.6906 16.804L41.4861 5.4648H44.0806L47.0033 14.666H47.0546L49.9773 5.4648H52.5L48.1416 17.3735ZM21.2013 3.22692H24.0625C26.216 3.22692 27.4466 4.34586 27.4466 6.31398C27.4466 8.28211 26.216 9.41103 24.0522 9.41103H21.2013V3.22692Z" fill="black"/>
</svg>
