<svg width="26" height="25" viewBox="0 0 26 25" fill="none" xmlns="http://www.w3.org/2000/svg">
<g clip-path="url(#clip0_1185_1376)">
<path d="M7.90299 25H5.81966C2.94779 25 0.611328 22.6635 0.611328 19.7917V17.7083C0.611328 17.1323 1.07695 16.6667 1.65299 16.6667C2.22904 16.6667 2.69466 17.1323 2.69466 17.7083V19.7917C2.69466 21.5146 4.09674 22.9167 5.81966 22.9167H7.90299C8.47904 22.9167 8.94466 23.3823 8.94466 23.9583C8.94466 24.5344 8.47904 25 7.90299 25ZM25.6113 19.7917V17.7083C25.6113 17.1323 25.1457 16.6667 24.5697 16.6667C23.9936 16.6667 23.528 17.1323 23.528 17.7083V19.7917C23.528 21.5146 22.1259 22.9167 20.403 22.9167H18.3197C17.7436 22.9167 17.278 23.3823 17.278 23.9583C17.278 24.5344 17.7436 25 18.3197 25H20.403C23.2749 25 25.6113 22.6635 25.6113 19.7917ZM25.6113 7.29167V5.20833C25.6113 2.33646 23.2749 0 20.403 0H18.3197C17.7436 0 17.278 0.465625 17.278 1.04167C17.278 1.61771 17.7436 2.08333 18.3197 2.08333H20.403C22.1259 2.08333 23.528 3.48542 23.528 5.20833V7.29167C23.528 7.86771 23.9936 8.33333 24.5697 8.33333C25.1457 8.33333 25.6113 7.86771 25.6113 7.29167ZM2.69466 7.29167V5.20833C2.69466 3.48542 4.09674 2.08333 5.81966 2.08333H7.90299C8.47904 2.08333 8.94466 1.61771 8.94466 1.04167C8.94466 0.465625 8.47904 0 7.90299 0H5.81966C2.94779 0 0.611328 2.33646 0.611328 5.20833V7.29167C0.611328 7.86771 1.07695 8.33333 1.65299 8.33333C2.22904 8.33333 2.69466 7.86771 2.69466 7.29167ZM19.3613 10.4167V14.5833C19.3613 16.3062 17.9592 17.7083 16.2363 17.7083H9.98633C8.26341 17.7083 6.86133 16.3062 6.86133 14.5833V10.4167C6.86133 8.70937 8.23737 7.31875 9.93737 7.29271L10.6624 6.16458C11.0457 5.56667 11.7009 5.20833 12.4145 5.20833H13.8082C14.5217 5.20833 15.1759 5.56667 15.5613 6.16563L16.2853 7.29271C17.9863 7.31875 19.3613 8.70937 19.3613 10.4167ZM15.1947 12.5C15.1947 11.349 14.2624 10.4167 13.1113 10.4167C11.9603 10.4167 11.028 11.349 11.028 12.5C11.028 13.651 11.9603 14.5833 13.1113 14.5833C14.2624 14.5833 15.1947 13.651 15.1947 12.5Z" fill="#7432FF"/>
</g>
<defs>
<clipPath id="clip0_1185_1376">
<rect width="25" height="25" fill="white" transform="translate(0.611328)"/>
</clipPath>
</defs>
</svg>
