<svg width="24" height="16" viewBox="0 0 24 16" fill="none" xmlns="http://www.w3.org/2000/svg">
<g clip-path="url(#clip0_2326_412)">
<path opacity="0.2" d="M16.3852 0.069397H1.92642C1.2505 0.069397 0.457031 0.848172 0.457031 1.53878V12.5592C0.457031 13.2498 1.2505 14.0286 1.92642 14.0286H20.2938C20.9697 14.0286 21.7632 13.2498 21.7632 12.5592V7.02695C21.1442 7.5837 20.3799 7.95314 19.5591 8.09225V8.15103C19.5591 8.63593 19.2946 8.88572 18.8244 8.88572H2.66111C2.19091 8.88572 1.92642 8.63593 1.92642 8.15103V7.41634C1.92642 6.93144 2.19091 6.68164 2.66111 6.68164H15.5403C15.1162 6.21164 14.7987 5.65554 14.6095 5.05142C14.4203 4.4473 14.3638 3.80942 14.4441 3.18147C14.5243 2.55351 14.7393 1.95032 15.0743 1.41318C15.4094 0.876044 15.8565 0.417653 16.3852 0.069397V0.069397Z" fill="#4D4D4D"/>
<path d="M14.666 2.2735H0.457031V4.47758H14.475C14.3516 3.73854 14.4173 2.98028 14.666 2.2735Z" fill="#4D4D4D"/>
</g>
<defs>
<clipPath id="clip0_2326_412">
<rect width="23.5102" height="15.4286" fill="white" transform="translate(0.457031 0.069397)"/>
</clipPath>
</defs>
</svg>
