<svg width="18" height="18" viewBox="0 0 18 18" fill="none" xmlns="http://www.w3.org/2000/svg">
<path d="M9.75 -0.00305176H3.75C1.68225 -0.00305176 0 1.6792 0 3.74695V13.3874C0 13.9822 0.32625 14.5267 0.8505 14.8079C1.089 14.9362 1.35075 14.9992 1.61175 14.9992C1.92375 14.9992 2.235 14.9084 2.505 14.7292L5.47725 12.7469H9.75C11.8177 12.7469 13.5 11.0647 13.5 8.99695V3.74695C13.5 1.6792 11.8177 -0.00305176 9.75 -0.00305176ZM18 6.74695V16.3874C18 16.9822 17.6737 17.5267 17.1495 17.8079C16.911 17.9362 16.6493 17.9992 16.3883 17.9999C16.0763 17.9999 15.765 17.9092 15.4957 17.7299L12.5228 15.7469H8.25C7.1625 15.7469 6.18975 15.2737 5.50425 14.5319L5.931 14.2469H9.75C12.6442 14.2469 15 11.8912 15 8.99695V3.74695C15 3.51595 14.9797 3.29095 14.9513 3.06745C16.6845 3.39745 18 4.9192 18 6.74695Z" fill="#7432FF"/>
</svg>
