<svg width="15" height="14" viewBox="0 0 15 14" fill="none" xmlns="http://www.w3.org/2000/svg">
<g id="dollar (1) 1" clip-path="url(#clip0_491_1421)">
<path id="Vector" d="M11.1918 5.7719C11.4162 5.7719 11.6314 5.68277 11.79 5.52412C11.9487 5.36547 12.0378 5.1503 12.0378 4.92594V4.53849C12.0368 3.74412 11.7207 2.98258 11.159 2.42088C10.5973 1.85917 9.83579 1.54314 9.04142 1.5421H8.37198V1.26011C8.37198 1.03575 8.28286 0.820578 8.12421 0.66193C7.96556 0.503282 7.75039 0.414154 7.52602 0.414154C7.30166 0.414154 7.08649 0.503282 6.92784 0.66193C6.76919 0.820578 6.68006 1.03575 6.68006 1.26011V1.5421H6.01063C5.29127 1.54103 4.59553 1.79879 4.05051 2.26829C3.50549 2.7378 3.14757 3.38771 3.04213 4.0993C2.9367 4.81089 3.09078 5.53666 3.47623 6.14404C3.86168 6.75141 4.45278 7.19985 5.14154 7.40742L6.68006 7.82814V11.1296H6.01063C5.6648 11.1292 5.33326 10.9916 5.08872 10.7471C4.84418 10.5025 4.70661 10.171 4.70616 9.82517V9.43772C4.70616 9.21336 4.61703 8.99819 4.45838 8.83954C4.29973 8.68089 4.08456 8.59176 3.8602 8.59176C3.63584 8.59176 3.42066 8.68089 3.26201 8.83954C3.10337 8.99819 3.01424 9.21336 3.01424 9.43772V9.82517C3.01528 10.6195 3.33131 11.3811 3.89301 11.9428C4.45472 12.5045 5.21626 12.8205 6.01063 12.8216H6.68006V13.1035C6.68006 13.3279 6.76919 13.5431 6.92784 13.7017C7.08649 13.8604 7.30166 13.9495 7.52602 13.9495C7.75039 13.9495 7.96556 13.8604 8.12421 13.7017C8.28286 13.5431 8.37198 13.3279 8.37198 13.1035V12.8216H9.04142C9.76078 12.8226 10.4565 12.5649 11.0015 12.0954C11.5466 11.6259 11.9045 10.976 12.0099 10.2644C12.1153 9.55277 11.9613 8.827 11.5758 8.21962C11.1904 7.61225 10.5993 7.16382 9.9105 6.95624L8.37198 6.53665V3.23402H9.04142C9.38725 3.23447 9.71878 3.37205 9.96332 3.61658C10.2079 3.86112 10.3454 4.19266 10.3459 4.53849V4.92594C10.3459 5.1503 10.435 5.36547 10.5937 5.52412C10.7523 5.68277 10.9675 5.7719 11.1918 5.7719ZM9.43338 8.57992C9.7309 8.67368 9.985 8.87091 10.1496 9.13588C10.3143 9.40085 10.3785 9.71602 10.3308 10.0243C10.2831 10.3326 10.1265 10.6135 9.88944 10.8163C9.65239 11.0191 9.35054 11.1302 9.0386 11.1296H8.37198V8.29004L9.43338 8.57992ZM6.68006 6.07362L5.61867 5.78374C5.32138 5.69005 5.06744 5.49305 4.90279 5.22838C4.73815 4.96371 4.67368 4.64885 4.72104 4.34076C4.7684 4.03268 4.92447 3.75172 5.161 3.54872C5.39754 3.34572 5.69892 3.23409 6.01063 3.23402H6.68006V6.07362Z" fill="#7432FF"/>
</g>
<defs>
<clipPath id="clip0_491_1421">
<rect width="13.5354" height="13.5354" fill="white" transform="translate(0.757812 0.414154)"/>
</clipPath>
</defs>
</svg>
