<svg width="26" height="25" viewBox="0 0 26 25" fill="none" xmlns="http://www.w3.org/2000/svg">
<g clip-path="url(#clip0_1185_1389)">
<path d="M20.9238 0H5.29883C4.05605 0.00137857 2.86457 0.495681 1.98579 1.37446C1.10701 2.25324 0.612707 3.44472 0.611328 4.6875L0.611328 20.3125C0.612707 21.5553 1.10701 22.7468 1.98579 23.6255C2.86457 24.5043 4.05605 24.9986 5.29883 25H20.9238C22.1666 24.9986 23.3581 24.5043 24.2369 23.6255C25.1156 22.7468 25.6099 21.5553 25.6113 20.3125V4.6875C25.6099 3.44472 25.1156 2.25324 24.2369 1.37446C23.3581 0.495681 22.1666 0.00137857 20.9238 0ZM5.29883 3.125H20.9238C21.3382 3.125 21.7357 3.28962 22.0287 3.58265C22.3217 3.87567 22.4863 4.2731 22.4863 4.6875V20.3125C22.4866 20.5177 22.4462 20.7209 22.3676 20.9104C22.2889 21.0999 22.1735 21.272 22.028 21.4167L12.9322 12.3208C12.1508 11.5397 11.0912 11.1009 9.98633 11.1009C8.88148 11.1009 7.82186 11.5397 7.04049 12.3208L3.73633 15.625V4.6875C3.73633 4.2731 3.90095 3.87567 4.19397 3.58265C4.487 3.28962 4.88443 3.125 5.29883 3.125Z" fill="#7432FF"/>
<path d="M16.7565 10.4167C18.1948 10.4167 19.3607 9.25078 19.3607 7.81254C19.3607 6.3743 18.1948 5.20837 16.7565 5.20837C15.3183 5.20837 14.1523 6.3743 14.1523 7.81254C14.1523 9.25078 15.3183 10.4167 16.7565 10.4167Z" fill="#7432FF"/>
</g>
<defs>
<clipPath id="clip0_1185_1389">
<rect width="25" height="25" fill="white" transform="translate(0.611328)"/>
</clipPath>
</defs>
</svg>
