<svg width="18" height="18" viewBox="0 0 18 18" fill="none" xmlns="http://www.w3.org/2000/svg">
<g clip-path="url(#clip0_399_829)">
<path d="M16.7288 2.1525L15.018 5.619C13.7888 4.30575 12.138 3.399 10.2788 3.10875L10.9875 1.6725C11.4968 0.6405 12.5273 0 13.6778 0H15.39C15.909 0 16.383 0.26325 16.6568 0.70425C16.9313 1.14525 16.9583 1.68675 16.7288 2.1525ZM7.7213 3.10875L7.01255 1.6725C6.5033 0.6405 5.4728 0 4.3223 0H2.6273C2.1083 0 1.6343 0.26325 1.36055 0.7035C1.08605 1.14525 1.0598 1.68675 1.2893 2.1525L2.9933 5.60775C4.22105 4.3005 5.86805 3.39825 7.7213 3.10875ZM15.7508 11.25C15.7508 14.9722 12.7223 18 9.0008 18C5.2793 18 2.25005 14.9722 2.25005 11.25C2.25005 7.52775 5.27855 4.5 9.00005 4.5C12.7215 4.5 15.7508 7.52775 15.7508 11.25ZM12.1185 10.8075C12.1185 10.578 11.919 10.3245 11.5965 10.3245H9.99155L9.5663 8.69325C9.4988 8.4345 9.26705 8.2545 9.00005 8.25C8.7338 8.25525 8.5013 8.4345 8.4338 8.69325L8.00855 10.3245H6.40355C6.08105 10.3245 5.88155 10.5772 5.88155 10.8075C5.88155 11.0782 6.0698 11.3062 6.2858 11.4262L7.4033 12.0472L6.90755 13.3995C6.81155 13.6612 6.89855 13.9552 7.1213 14.1232C7.3493 14.295 7.66355 14.2927 7.88855 14.118L9.00005 13.2585L10.1115 14.118C10.3373 14.292 10.6515 14.2942 10.8788 14.1232C11.1015 13.9552 11.1885 13.662 11.0925 13.3995L10.5968 12.0472L11.7143 11.4262C11.9303 11.3062 12.1185 11.0782 12.1185 10.8075Z" fill="#9C66FF"/>
</g>
<defs>
<clipPath id="clip0_399_829">
<rect width="18" height="18" fill="white"/>
</clipPath>
</defs>
</svg>
