<svg width="12" height="12" viewBox="0 0 12 12" fill="none" xmlns="http://www.w3.org/2000/svg">
<g clip-path="url(#clip0_194_6319)">
<path d="M8.2599 1.02429C7.74426 1.03231 7.23987 1.17625 6.79766 1.44158C6.35545 1.7069 5.99109 2.08422 5.74136 2.53542C5.49163 2.08422 5.12726 1.7069 4.68505 1.44158C4.24284 1.17625 3.73845 1.03231 3.22282 1.02429C2.40083 1.06001 1.62638 1.41959 1.06868 2.02449C0.510969 2.62939 0.215333 3.43043 0.246357 4.2526C0.246357 6.33475 2.43795 8.60877 4.27602 10.1506C4.68642 10.4954 5.2053 10.6845 5.74136 10.6845C6.27742 10.6845 6.7963 10.4954 7.20669 10.1506C9.04477 8.60877 11.2364 6.33475 11.2364 4.2526C11.2674 3.43043 10.9717 2.62939 10.414 2.02449C9.85633 1.41959 9.08189 1.06001 8.2599 1.02429Z" fill="#7432FF"/>
</g>
<defs>
<clipPath id="clip0_194_6319">
<rect width="10.99" height="10.99" fill="white" transform="translate(0.246094 0.146484)"/>
</clipPath>
</defs>
</svg>
