<svg width="9" height="11" viewBox="0 0 9 11" fill="none" xmlns="http://www.w3.org/2000/svg">
<path d="M4.74078 0.658936C3.63826 0.660149 2.58123 1.09863 1.80159 1.8782C1.02195 2.65776 0.583355 3.71475 0.582031 4.81727C0.582031 5.8881 1.4112 7.56394 3.04661 9.7981C3.24131 10.0648 3.49622 10.2818 3.79062 10.4314C4.08501 10.581 4.41056 10.659 4.74078 10.659C5.071 10.659 5.39655 10.581 5.69095 10.4314C5.98534 10.2818 6.24026 10.0648 6.43495 9.7981C8.07036 7.56394 8.89953 5.8881 8.89953 4.81727C8.89821 3.71475 8.45962 2.65776 7.67998 1.8782C6.90033 1.09863 5.84331 0.660149 4.74078 0.658936ZM4.74078 6.47477C4.41115 6.47477 4.08891 6.37702 3.81483 6.19389C3.54075 6.01075 3.32713 5.75045 3.20098 5.44591C3.07484 5.14137 3.04183 4.80625 3.10614 4.48295C3.17045 4.15965 3.32918 3.86268 3.56227 3.62959C3.79536 3.3965 4.09233 3.23777 4.41563 3.17346C4.73893 3.10915 5.07404 3.14216 5.37859 3.2683C5.68313 3.39445 5.94343 3.60807 6.12656 3.88215C6.3097 4.15623 6.40745 4.47847 6.40745 4.8081C6.40745 5.25013 6.23185 5.67405 5.91929 5.98661C5.60673 6.29917 5.18281 6.47477 4.74078 6.47477Z" fill="#7432FF"/>
</svg>
