<svg width="14" height="14" viewBox="0 0 14 14" fill="none" xmlns="http://www.w3.org/2000/svg">
<g id="location-exclamation (1) 1" clip-path="url(#clip0_1122_1445)">
<path id="Vector" d="M11.6228 2.3478C10.4881 1.21307 8.97855 0.587524 7.37398 0.587524C5.76941 0.587524 4.25991 1.21307 3.12464 2.3478C0.781432 4.691 0.781432 8.50328 3.13993 10.8618L5.29356 12.8515C5.853 13.3984 6.59218 13.7 7.37398 13.7C8.15578 13.7 8.89441 13.3984 9.44238 12.8624L11.6228 10.8476C13.966 8.50437 13.966 4.69155 11.6228 2.34834V2.3478ZM6.82765 3.8655C6.82765 3.56338 7.07186 3.31917 7.37398 3.31917C7.6761 3.31917 7.92031 3.56338 7.92031 3.8655V6.8703C7.92031 7.17242 7.6761 7.41663 7.37398 7.41663C7.07186 7.41663 6.82765 7.17242 6.82765 6.8703V3.8655ZM7.37398 9.87511C6.92162 9.87511 6.55449 9.50798 6.55449 9.05562C6.55449 8.60326 6.92162 8.23613 7.37398 8.23613C7.82634 8.23613 8.19347 8.60326 8.19347 9.05562C8.19347 9.50798 7.82634 9.87511 7.37398 9.87511Z" fill="#7432FF"/>
</g>
<defs>
<clipPath id="clip0_1122_1445">
<rect width="13.1119" height="13.1119" fill="white" transform="translate(0.818359 0.587524)"/>
</clipPath>
</defs>
</svg>
