<svg width="12" height="11" viewBox="0 0 12 11" fill="none" xmlns="http://www.w3.org/2000/svg">
<g id="marker 1" clip-path="url(#clip0_273_957)">
<path id="Vector" d="M6.33244 0.0192871C5.11966 0.0206214 3.95693 0.502955 3.09932 1.36048C2.24172 2.218 1.75927 3.38068 1.75781 4.59345C1.75781 5.77137 2.6699 7.61479 4.46885 10.0724C4.68302 10.3658 4.96342 10.6044 5.28726 10.769C5.61109 10.9335 5.9692 11.0193 6.33244 11.0193C6.69568 11.0193 7.05379 10.9335 7.37762 10.769C7.70145 10.6044 7.98186 10.3658 8.19602 10.0724C9.99498 7.61479 10.9071 5.77137 10.9071 4.59345C10.9056 3.38068 10.4232 2.218 9.56555 1.36048C8.70795 0.502955 7.54522 0.0206214 6.33244 0.0192871ZM6.33244 6.4167C5.96984 6.4167 5.61538 6.30918 5.31389 6.10773C5.0124 5.90628 4.77742 5.61996 4.63866 5.28496C4.4999 4.94996 4.46359 4.58134 4.53433 4.22571C4.60507 3.87007 4.77968 3.5434 5.03608 3.28701C5.29247 3.03061 5.61914 2.856 5.97477 2.78526C6.3304 2.71452 6.69903 2.75083 7.03402 2.88959C7.36902 3.02835 7.65535 3.26334 7.8568 3.56483C8.05825 3.86632 8.16577 4.22077 8.16577 4.58337C8.16577 5.0696 7.97262 5.53592 7.6288 5.87973C7.28498 6.22355 6.81867 6.4167 6.33244 6.4167Z" fill="#7432FF"/>
</g>
<defs>
<clipPath id="clip0_273_957">
<rect width="11" height="11" fill="white" transform="translate(0.833008)"/>
</clipPath>
</defs>
</svg>
