<svg width="21" height="20" viewBox="0 0 21 20" fill="none" xmlns="http://www.w3.org/2000/svg">
<g clip-path="url(#clip0_158_824)">
<path d="M20.4617 4.61835L13.4467 11.6333C12.6645 12.4136 11.6048 12.8517 10.5 12.8517C9.39521 12.8517 8.33552 12.4136 7.55333 11.6333L0.538333 4.61835C0.526667 4.75001 0.5 4.86918 0.5 5.00001V15C0.501323 16.1047 0.940735 17.1637 1.72185 17.9448C2.50296 18.7259 3.562 19.1654 4.66667 19.1667H16.3333C17.438 19.1654 18.497 18.7259 19.2782 17.9448C20.0593 17.1637 20.4987 16.1047 20.5 15V5.00001C20.5 4.86918 20.4733 4.75001 20.4617 4.61835Z" fill="#535353"/>
<path d="M12.2683 10.455L19.88 2.84248C19.5113 2.23108 18.9912 1.72501 18.37 1.37309C17.7487 1.02117 17.0473 0.835264 16.3333 0.833313H4.66666C3.95268 0.835264 3.25125 1.02117 2.63002 1.37309C2.00879 1.72501 1.48873 2.23108 1.12 2.84248L8.73166 10.455C9.2013 10.9227 9.83715 11.1854 10.5 11.1854C11.1628 11.1854 11.7987 10.9227 12.2683 10.455Z" fill="#535353"/>
</g>
<defs>
<clipPath id="clip0_158_824">
<rect width="20" height="20" fill="white" transform="translate(0.5)"/>
</clipPath>
</defs>
</svg>
