<svg width="18" height="18" viewBox="0 0 18 18" fill="none" xmlns="http://www.w3.org/2000/svg">
<g clip-path="url(#clip0_399_846)">
<path d="M18.0001 14.25C18.0001 14.6648 17.6641 15 17.2501 15H15.0001V17.25C15.0001 17.6647 14.6641 18 14.2501 18C13.8361 18 13.5001 17.6647 13.5001 17.25V15H11.2501C10.8361 15 10.5001 14.6648 10.5001 14.25C10.5001 13.8352 10.8361 13.5 11.2501 13.5H13.5001V11.25C13.5001 10.8352 13.8361 10.5 14.2501 10.5C14.6641 10.5 15.0001 10.8352 15.0001 11.25V13.5H17.2501C17.6641 13.5 18.0001 13.8352 18.0001 14.25ZM4.12506 5.25C5.57256 5.25 6.75006 4.0725 6.75006 2.625C6.75006 1.1775 5.57256 0 4.12506 0C2.67756 0 1.50006 1.1775 1.50006 2.625C1.50006 4.0725 2.67756 5.25 4.12506 5.25ZM11.6251 5.25C13.0726 5.25 14.2501 4.0725 14.2501 2.625C14.2501 1.1775 13.0726 0 11.6251 0C10.1776 0 9.00006 1.1775 9.00006 2.625C9.00006 4.0725 10.1776 5.25 11.6251 5.25ZM5.25006 8.625C5.25006 10.0725 6.42756 11.25 7.87506 11.25C9.32256 11.25 10.5001 10.0725 10.5001 8.625C10.5001 7.1775 9.32256 6 7.87506 6C6.42756 6 5.25006 7.1775 5.25006 8.625ZM3.75006 8.625C3.75006 7.65525 4.08831 6.76425 4.65081 6.05925C4.47831 6.0405 4.30356 6.02625 4.12506 6.02625C1.82706 6.02625 -0.0119416 7.5705 5.83943e-05 9.771C0.00230839 10.1768 0.348808 10.5 0.754558 10.5H4.20606C3.91731 9.93675 3.75006 9.30075 3.75006 8.625ZM9.00006 14.25C9.00006 13.527 9.34881 12.8895 9.88056 12.4777C9.28356 12.1882 8.59881 12.0262 7.87506 12.0262C5.57706 12.0262 3.73806 13.5705 3.75006 15.771C3.75231 16.1768 4.09881 16.5 4.50456 16.5H11.2456C11.2456 16.5 11.2463 16.5 11.2471 16.5C10.0073 16.4985 9.00006 15.4897 9.00006 14.25ZM11.0993 6.05925C11.6618 6.76425 12.0001 7.65525 12.0001 8.625C12.0001 9.30075 11.8336 9.93675 11.5448 10.5H12.1388C12.4493 9.62925 13.2743 9 14.2508 9C14.8246 9 15.3436 9.22275 15.7411 9.5775C15.6436 7.482 13.8083 6.027 11.6258 6.027C11.4466 6.027 11.2726 6.04125 11.1001 6.05925H11.0993Z" fill="#9C66FF"/>
</g>
<defs>
<clipPath id="clip0_399_846">
<rect width="18" height="18" fill="white"/>
</clipPath>
</defs>
</svg>
