<svg width="21" height="20" viewBox="0 0 21 20" fill="none" xmlns="http://www.w3.org/2000/svg">
<g clip-path="url(#clip0_158_807)">
<path d="M20.5 3.33331H6.33331V4.99998H20.5V3.33331Z" fill="#535353"/>
<path d="M20.5 9.16669H6.33331V10.8334H20.5V9.16669Z" fill="#535353"/>
<path d="M20.5 15H6.33331V16.6667H20.5V15Z" fill="#535353"/>
<path d="M2.16667 5.83333C3.08714 5.83333 3.83333 5.08714 3.83333 4.16667C3.83333 3.24619 3.08714 2.5 2.16667 2.5C1.24619 2.5 0.5 3.24619 0.5 4.16667C0.5 5.08714 1.24619 5.83333 2.16667 5.83333Z" fill="#535353"/>
<path d="M2.16667 11.6666C3.08714 11.6666 3.83333 10.9205 3.83333 9.99998C3.83333 9.07951 3.08714 8.33331 2.16667 8.33331C1.24619 8.33331 0.5 9.07951 0.5 9.99998C0.5 10.9205 1.24619 11.6666 2.16667 11.6666Z" fill="#535353"/>
<path d="M2.16667 17.5C3.08714 17.5 3.83333 16.7538 3.83333 15.8334C3.83333 14.9129 3.08714 14.1667 2.16667 14.1667C1.24619 14.1667 0.5 14.9129 0.5 15.8334C0.5 16.7538 1.24619 17.5 2.16667 17.5Z" fill="#535353"/>
</g>
<defs>
<clipPath id="clip0_158_807">
<rect width="20" height="20" fill="white" transform="translate(0.5)"/>
</clipPath>
</defs>
</svg>
