<svg width="18" height="18" viewBox="0 0 18 18" fill="none" xmlns="http://www.w3.org/2000/svg">
<g clip-path="url(#clip0_399_841)">
<path d="M12 15V18H6V15C6 14.586 6.336 14.25 6.75 14.25H11.25C11.664 14.25 12 14.586 12 15ZM9 6.74999C8.17275 6.74999 7.5 7.42274 7.5 8.24999C7.5 9.07724 8.17275 9.74999 9 9.74999C9.82725 9.74999 10.5 9.07724 10.5 8.24999C10.5 7.42274 9.82725 6.74999 9 6.74999ZM18 7.55549V18H13.5V15C13.5 13.7595 12.4905 12.75 11.25 12.75H6.75C5.5095 12.75 4.5 13.7595 4.5 15V18H0V7.55549C0 6.83624 0.32475 6.16949 0.89025 5.72624L7.569 0.493487C8.41275 -0.167263 9.58725 -0.167263 10.431 0.493487L15 4.07249V1.49924H16.5V5.24699L17.1097 5.72474C17.6752 6.16874 18 6.83474 18 7.55399V7.55549ZM12 8.24999C12 6.59549 10.6545 5.24999 9 5.24999C7.3455 5.24999 6 6.59549 6 8.24999C6 9.90449 7.3455 11.25 9 11.25C10.6545 11.25 12 9.90449 12 8.24999Z" fill="#9C66FF"/>
</g>
<defs>
<clipPath id="clip0_399_841">
<rect width="18" height="18" fill="white"/>
</clipPath>
</defs>
</svg>
