<svg width="16" height="16" viewBox="0 0 16 16" fill="none" xmlns="http://www.w3.org/2000/svg">
<g clip-path="url(#clip0_278_852)">
<path d="M12.7402 5.14148C11.359 5.14148 10.2402 4.02273 10.2402 2.64148C10.2402 1.26023 11.359 0.141479 12.7402 0.141479C14.1215 0.141479 15.2402 1.26023 15.2402 2.64148C15.2402 4.02273 14.1215 5.14148 12.7402 5.14148ZM7.74023 9.77898C8.22148 9.77898 8.70273 9.59773 9.06523 9.22898L11.984 6.31023C10.2777 5.96023 8.99023 4.44773 8.99023 2.63523C8.99023 2.42273 9.01523 2.21648 9.04648 2.01023H3.36523C2.23398 2.01023 1.25273 2.61648 0.702734 3.51648L6.41523 9.23523C6.77773 9.59773 7.25898 9.78523 7.74023 9.78523V9.77898ZM13.8402 6.22273L9.94648 10.1165C9.34023 10.7227 8.53398 11.029 7.73398 11.029C6.93398 11.029 6.13398 10.7227 5.52148 10.1165L0.271484 4.85398C0.265234 4.94773 0.240234 5.04148 0.240234 5.14148V12.0165C0.240234 13.7415 1.64023 15.1415 3.36523 15.1415H12.1152C13.8402 15.1415 15.2402 13.7415 15.2402 12.0165L15.2277 5.43523C14.8277 5.79148 14.359 6.06023 13.8402 6.22273Z" fill="#7432FF"/>
</g>
<defs>
<clipPath id="clip0_278_852">
<rect width="15" height="15" fill="white" transform="translate(0.240234 0.141479)"/>
</clipPath>
</defs>
</svg>
