<svg width="18" height="18" viewBox="0 0 18 18" fill="none" xmlns="http://www.w3.org/2000/svg">
<g clip-path="url(#clip0_271_844)">
<path d="M12 0H6C3.93225 0 2.25 1.68225 2.25 3.75V14.25C2.25 16.3177 3.93225 18 6 18H12C14.0677 18 15.75 16.3177 15.75 14.25V3.75C15.75 1.68225 14.0677 0 12 0ZM9 12.75H6C5.58525 12.75 5.25 12.4148 5.25 12C5.25 11.5852 5.58525 11.25 6 11.25H9C9.41475 11.25 9.75 11.5852 9.75 12C9.75 12.4148 9.41475 12.75 9 12.75ZM12 9H6C5.58525 9 5.25 8.66475 5.25 8.25C5.25 7.83525 5.58525 7.5 6 7.5H12C12.4148 7.5 12.75 7.83525 12.75 8.25C12.75 8.66475 12.4148 9 12 9ZM12 5.25H6C5.58525 5.25 5.25 4.91475 5.25 4.5C5.25 4.08525 5.58525 3.75 6 3.75H12C12.4148 3.75 12.75 4.08525 12.75 4.5C12.75 4.91475 12.4148 5.25 12 5.25Z" fill="#7432FF"/>
</g>
<defs>
<clipPath id="clip0_271_844">
<rect width="18" height="18" fill="white"/>
</clipPath>
</defs>
</svg>
