<svg width="11" height="11" viewBox="0 0 11 11" fill="none" xmlns="http://www.w3.org/2000/svg">
<g clip-path="url(#clip0_196_7112)">
<path d="M2.54883 8.79167H4.76633L6.23258 10.2563C6.31138 10.3355 6.40506 10.3984 6.50825 10.4413C6.61143 10.4842 6.72208 10.5063 6.83383 10.5063C6.90735 10.5061 6.98057 10.4968 7.05174 10.4783C7.19559 10.442 7.32733 10.3685 7.43369 10.265C7.54005 10.1616 7.61727 10.0319 7.65758 9.88917L10.2438 1.09375L2.54883 8.79167Z" fill="#7432FF"/>
<path d="M1.95114 8.20834L9.65322 0.505005L0.864057 3.09709C0.720947 3.13779 0.590965 3.21519 0.487006 3.32163C0.383047 3.42807 0.308724 3.55984 0.271411 3.70387C0.234098 3.8479 0.235092 3.99919 0.274293 4.14271C0.313495 4.28624 0.389542 4.41702 0.494891 4.52209L1.95114 5.97709V8.20834Z" fill="#7432FF"/>
</g>
<defs>
<clipPath id="clip0_196_7112">
<rect width="10" height="10" fill="white" transform="translate(0.248047 0.5)"/>
</clipPath>
</defs>
</svg>
