<svg width="17" height="17" viewBox="0 0 17 17" fill="none" xmlns="http://www.w3.org/2000/svg">
<g id="phone-flip 1" clip-path="url(#clip0_194_6937)">
<path id="Vector" d="M16.4176 4.28744C16.4176 9.38077 9.66427 16.1274 4.57761 16.1274C3.46427 16.1274 2.42427 15.7074 1.65761 14.9408L0.990938 14.1741C0.217605 13.4008 0.217605 12.0941 1.02427 11.2874C1.04427 11.2674 2.65094 10.0341 2.65094 10.0341C3.45094 9.2741 4.71094 9.2741 5.50427 10.0341L6.47761 10.8141C8.61094 9.90744 10.1243 8.38744 11.0976 6.18077L10.3243 5.20744C9.55761 4.4141 9.55761 3.14744 10.3243 2.3541C10.3243 2.3541 11.5576 0.747437 11.5776 0.727437C12.3843 -0.0792302 13.6909 -0.0792302 14.4976 0.727437L15.1976 1.3341C15.9976 2.12744 16.4176 3.16744 16.4176 4.28077V4.28744Z" fill="#7432FF"/>
</g>
<defs>
<clipPath id="clip0_194_6937">
<rect width="16" height="16" fill="white" transform="translate(0.417969 0.127686)"/>
</clipPath>
</defs>
</svg>
