<svg width="18" height="18" viewBox="0 0 18 18" fill="none" xmlns="http://www.w3.org/2000/svg">
<g clip-path="url(#clip0_271_835)">
<path d="M14.25 0H3.75C1.68 0 0 1.68 0 3.75V14.25C0 16.32 1.68 18 3.75 18H14.25C16.32 18 18 16.32 18 14.25V3.75C18 1.68 16.32 0 14.25 0ZM4.5 3.75H9C9.4125 3.75 9.75 4.0875 9.75 4.5C9.75 4.9125 9.4125 5.25 9 5.25H4.5C4.0875 5.25 3.75 4.9125 3.75 4.5C3.75 4.0875 4.0875 3.75 4.5 3.75ZM4.5 6.75H11.25C11.6625 6.75 12 7.0875 12 7.5C12 7.9125 11.6625 8.25 11.25 8.25H4.5C4.0875 8.25 3.75 7.9125 3.75 7.5C3.75 7.0875 4.0875 6.75 4.5 6.75ZM6.75 14.25H4.5C4.0875 14.25 3.75 13.9125 3.75 13.5C3.75 13.0875 4.0875 12.75 4.5 12.75H6.75C7.1625 12.75 7.5 13.0875 7.5 13.5C7.5 13.9125 7.1625 14.25 6.75 14.25ZM13.5 11.25H4.5C4.0875 11.25 3.75 10.9125 3.75 10.5C3.75 10.0875 4.0875 9.75 4.5 9.75H13.5C13.9125 9.75 14.25 10.0875 14.25 10.5C14.25 10.9125 13.9125 11.25 13.5 11.25Z" fill="#7432FF"/>
</g>
<defs>
<clipPath id="clip0_271_835">
<rect width="18" height="18" fill="white"/>
</clipPath>
</defs>
</svg>
