<svg width="18" height="18" viewBox="0 0 18 18" fill="none" xmlns="http://www.w3.org/2000/svg">
<g clip-path="url(#clip0_271_855)">
<path d="M14.25 0H3.75C1.68225 0 0 1.68225 0 3.75V14.25C0 16.3177 1.68225 18 3.75 18H14.25C16.3177 18 18 16.3177 18 14.25V3.75C18 1.68225 16.3177 0 14.25 0ZM9 14.25C8.379 14.25 7.875 13.746 7.875 13.125C7.875 12.504 8.379 12 9 12C9.621 12 10.125 12.504 10.125 13.125C10.125 13.746 9.621 14.25 9 14.25ZM10.446 9.366C10.0553 9.58125 9.75 10.08 9.75 10.5C9.75 10.9148 9.414 11.25 9 11.25C8.586 11.25 8.25 10.9148 8.25 10.5C8.25 9.537 8.85525 8.5305 9.72225 8.052C10.2945 7.737 10.59 7.1115 10.4753 6.45825C10.3717 5.868 9.86775 5.36475 9.27825 5.26125C8.82375 5.181 8.382 5.2965 8.03625 5.5875C7.695 5.87325 7.5 6.2925 7.5 6.73725C7.5 7.15125 7.164 7.48725 6.75 7.48725C6.336 7.48725 6 7.15125 6 6.73725C6 5.8485 6.39075 5.01075 7.07175 4.43925C7.75275 3.86775 8.6535 3.6315 9.537 3.7845C10.7467 3.996 11.7405 4.989 11.9528 6.1995C12.1763 7.47375 11.571 8.74575 10.446 9.366Z" fill="#7432FF"/>
</g>
<defs>
<clipPath id="clip0_271_855">
<rect width="18" height="18" fill="white"/>
</clipPath>
</defs>
</svg>
