<svg width="12" height="12" viewBox="0 0 12 12" fill="none" xmlns="http://www.w3.org/2000/svg">
<g id="share 1" clip-path="url(#clip0_1122_1459)">
<g id="Group">
<path id="Vector" d="M0.241228 5.63515C0.23655 6.81049 1.18557 7.76709 2.36094 7.77177C2.90224 7.77391 3.42403 7.56972 3.82008 7.20073L6.99151 8.63264C6.96947 8.75122 6.95739 8.8714 6.95536 8.992C6.95162 10.1755 7.90794 11.1378 9.09139 11.1416C10.2748 11.1454 11.2372 10.189 11.241 9.00556C11.2447 7.82211 10.2884 6.85972 9.10495 6.85596C8.39789 6.85373 7.73525 7.20043 7.33394 7.78256L4.3543 6.43716C4.56594 5.92612 4.56676 5.3521 4.3566 4.84045L7.33211 3.48819C8.00214 4.45726 9.33089 4.69965 10.3 4.02962C11.269 3.35959 11.5114 2.03087 10.8414 1.0618C10.1713 0.0927386 8.84259 -0.149651 7.87352 0.520375C7.29641 0.919409 6.95242 1.57669 6.95351 2.27832C6.95544 2.39909 6.96769 2.51945 6.99014 2.63813L3.82695 4.07552C2.96994 3.27078 1.62282 3.31316 0.818084 4.17017C0.445637 4.56684 0.239211 5.09104 0.241228 5.63515Z" fill="#7432FF"/>
</g>
</g>
<defs>
<clipPath id="clip0_1122_1459">
<rect width="11" height="11" fill="white" transform="translate(0.241211 0.141479)"/>
</clipPath>
</defs>
</svg>
