<svg width="19" height="18" viewBox="0 0 19 18" fill="none" xmlns="http://www.w3.org/2000/svg">
<path d="M16.9993 8.96296V13.5002C16.9993 13.891 16.7001 14.2157 16.3116 14.2479C16.2906 14.2494 16.2696 14.2502 16.2493 14.2502C15.8864 14.2502 15.5714 13.9877 15.5106 13.624C15.2189 11.8743 12.7957 11.2503 10.6253 11.2503H7.25047V3.00076H10.6253C12.7957 3.00076 15.2189 2.37754 15.5106 0.627131C15.5751 0.242401 15.9269 -0.0328353 16.3123 0.00316289C16.7016 0.0354113 17.0001 0.360145 17.0001 0.750875V5.28815C17.8558 5.46214 18.5 6.2181 18.5 7.12555C18.5 8.03301 17.855 8.78897 16.9993 8.96296ZM5.74978 11.2503V3.00076H4.62483C2.35017 3.00076 0.5 4.85092 0.5 7.12555C0.5 9.40019 2.35017 11.2503 4.62483 11.2503H5.74978ZM6.89198 12.7503H4.62483C3.96636 12.7503 3.33413 12.6363 2.74616 12.427L4.37434 16.7708C4.54533 17.2395 4.88882 17.6138 5.34105 17.8245C5.59229 17.9415 5.86003 18 6.12852 18C6.34451 18 6.56125 17.9618 6.76974 17.886C7.23847 17.715 7.6127 17.3715 7.82345 16.9193C8.03419 16.4663 8.05594 15.9594 7.88494 15.4914L6.89123 12.7495L6.89198 12.7503Z" fill="#7432FF"/>
</svg>
