<svg width="8" height="8" viewBox="0 0 8 8" fill="none" xmlns="http://www.w3.org/2000/svg">
<g id="star (1) 2" clip-path="url(#clip0_198_7447)">
<path id="Vector" d="M0.442398 4.13336L1.62906 5.00003L1.1784 6.39569C1.10557 6.61215 1.10465 6.84636 1.17577 7.06339C1.24689 7.28042 1.38625 7.46865 1.57306 7.60003C1.75668 7.73562 1.9792 7.80826 2.20745 7.80712C2.4357 7.80597 2.65748 7.73112 2.83973 7.59369L4.00006 6.73969L5.16073 7.59269C5.34402 7.72751 5.56533 7.80074 5.79285 7.80184C6.02038 7.80295 6.2424 7.73189 6.42699 7.59886C6.61158 7.46584 6.74923 7.27771 6.82016 7.06152C6.89109 6.84533 6.89164 6.61221 6.82173 6.39569L6.37107 5.00003L7.55773 4.13336C7.74078 3.99953 7.87685 3.81128 7.94651 3.59549C8.01618 3.3797 8.01586 3.14742 7.94562 2.93182C7.87538 2.71622 7.73881 2.52833 7.55541 2.39499C7.372 2.26165 7.15115 2.18968 6.9244 2.18936H5.46673L5.0244 0.810692C4.95484 0.593678 4.81815 0.404363 4.63405 0.270047C4.44995 0.135731 4.22795 0.0633545 4.00006 0.0633545C3.77218 0.0633545 3.55017 0.135731 3.36608 0.270047C3.18198 0.404363 3.04529 0.593678 2.97573 0.810692L2.5334 2.18936H1.07706C0.850312 2.18968 0.629462 2.26165 0.446058 2.39499C0.262654 2.52833 0.126078 2.71622 0.0558381 2.93182C-0.0144017 3.14742 -0.0147126 3.3797 0.0549498 3.59549C0.124612 3.81128 0.260685 3.99953 0.443731 4.13336H0.442398Z" fill="#FFC633"/>
</g>
<defs>
<clipPath id="clip0_198_7447">
<rect width="8" height="8" fill="white"/>
</clipPath>
</defs>
</svg>
