<svg width="40" height="36" viewBox="0 0 40 36" fill="none" xmlns="http://www.w3.org/2000/svg">
<rect width="39.1304" height="36" rx="10.1739" fill="#EAD6FF" fill-opacity="0.6"/>
<g clip-path="url(#clip0_316_1225)">
<path d="M22.0854 11.75C22.0854 11.98 21.8988 12.1667 21.6688 12.1667H21.2521V11.3333H21.6688C21.8988 11.3333 22.0854 11.52 22.0854 11.75ZM21.6688 13H21.2521V13.8333H21.6688C21.8988 13.8333 22.0854 13.6467 22.0854 13.4167C22.0854 13.1867 21.8988 13 21.6688 13ZM19.5654 18.0892C19.5654 17.2592 18.9979 16.4892 18.1788 16.3558C17.1346 16.1858 16.2321 16.9875 16.2321 18V25.3475C15.3354 24.6092 14.4729 23.8875 14.4446 23.8608C13.6763 23.1433 12.4671 23.1833 11.7488 23.9517C11.0296 24.7208 11.0663 25.9283 11.8304 26.6433L13.3479 28H27.0663V27.5058C27.0663 25.7933 26.0179 24.255 24.4238 23.6283L19.5663 21.7183V18.0892H19.5654ZM29.5654 11.75V13.4167C29.5654 15.4842 27.8829 17.1667 25.8154 17.1667H21.1071C20.7613 15.9117 19.7313 14.92 18.4463 14.7108C17.4729 14.5542 16.4854 14.8258 15.7396 15.46C15.2104 15.9108 14.8413 16.5075 14.6713 17.1658H13.3154C11.2479 17.1658 9.56543 15.4833 9.56543 13.4158V11.7492C9.56543 9.6825 11.2479 8 13.3154 8H25.8154C27.8829 8 29.5654 9.6825 29.5654 11.75ZM15.2429 12.2042C14.7888 12.0358 14.3746 11.8542 14.3638 11.8542C14.2654 11.7875 14.2688 11.6858 14.2738 11.6458C14.2821 11.5908 14.3213 11.4575 14.5238 11.3967C14.7629 11.3258 14.9921 11.3825 15.1579 11.455C15.3246 11.5275 15.5179 11.4817 15.6354 11.3433C15.8054 11.1433 15.7496 10.835 15.5171 10.7133C15.2163 10.5558 14.7754 10.42 14.2754 10.5708C13.8121 10.7108 13.4846 11.0758 13.4196 11.5242C13.3596 11.9458 13.5421 12.3508 13.9563 12.615C13.9563 12.615 14.4246 12.8242 14.9438 13.0158C15.0538 13.0567 15.4079 13.2067 15.3654 13.445C15.3338 13.6217 15.1163 13.805 14.8063 13.805C14.5913 13.805 14.3813 13.7475 14.2063 13.6442C14.0454 13.5492 13.8404 13.5792 13.7021 13.7042C13.4888 13.8975 13.5229 14.2442 13.7713 14.39C14.0763 14.57 14.4338 14.6675 14.8063 14.6675C15.5113 14.6675 16.1046 14.2167 16.2154 13.5958C16.2988 13.1275 16.0871 12.5158 15.2429 12.2042ZM19.5654 10.9167C19.5654 10.6867 19.3788 10.5 19.1488 10.5C18.9188 10.5 18.7321 10.6867 18.7321 10.9167V13.4167C18.7321 13.66 18.5221 13.855 18.2738 13.8317C18.0571 13.8108 17.8988 13.6167 17.8988 13.3983V10.9167C17.8988 10.6867 17.7121 10.5 17.4821 10.5C17.2521 10.5 17.0654 10.6867 17.0654 10.9167V13.3808C17.0654 14.0533 17.5813 14.6325 18.2529 14.6658C18.9704 14.7008 19.5654 14.1275 19.5654 13.4175V10.9167ZM22.5629 12.6033C22.8246 12.3292 22.9779 11.95 22.8971 11.5208C22.7838 10.9217 22.2396 10.5008 21.6296 10.5008H20.8471C20.6104 10.5008 20.4188 10.6925 20.4188 10.9292V14.2392C20.4188 14.4758 20.6104 14.6675 20.8471 14.6675H21.6354C22.2771 14.6675 22.8396 14.1967 22.9104 13.5592C22.9538 13.1692 22.8154 12.8042 22.5629 12.6033ZM25.2421 12.205C24.7879 12.0367 24.3738 11.855 24.3629 11.855C24.2646 11.7883 24.2679 11.6867 24.2729 11.6467C24.2813 11.5917 24.3204 11.4583 24.5229 11.3975C24.7621 11.3267 24.9913 11.3833 25.1571 11.4558C25.3238 11.5283 25.5171 11.4825 25.6346 11.3442C25.8046 11.1442 25.7488 10.8358 25.5163 10.7142C25.2154 10.5567 24.7746 10.4208 24.2746 10.5717C23.8113 10.7117 23.4838 11.0767 23.4188 11.525C23.3588 11.9467 23.5413 12.3517 23.9554 12.6158C23.9554 12.6158 24.4238 12.825 24.9429 13.0167C25.0529 13.0575 25.4071 13.2075 25.3646 13.4458C25.3329 13.6225 25.1154 13.8058 24.8054 13.8058C24.5904 13.8058 24.3804 13.7483 24.2054 13.645C24.0446 13.55 23.8396 13.58 23.7013 13.705C23.4879 13.8983 23.5221 14.245 23.7704 14.3908C24.0754 14.5708 24.4329 14.6683 24.8054 14.6683C25.5104 14.6683 26.1038 14.2175 26.2146 13.5967C26.2979 13.1283 26.0863 12.5167 25.2421 12.205Z" fill="#7432FF"/>
</g>
<defs>
<clipPath id="clip0_316_1225">
<rect width="20" height="20" fill="white" transform="translate(9.56543 8)"/>
</clipPath>
</defs>
</svg>
