<svg width="44" height="44" viewBox="0 0 44 44" fill="none" xmlns="http://www.w3.org/2000/svg">
<circle cx="22" cy="22" r="22" fill="#EAD6FF" fill-opacity="0.6"/>
<g clip-path="url(#clip0_576_1126)">
<path d="M17.5 23C16.61 23 15.74 22.7361 14.9999 22.2416C14.2599 21.7472 13.6831 21.0443 13.3425 20.2221C13.0019 19.3998 12.9128 18.495 13.0865 17.6221C13.2601 16.7492 13.6887 15.9474 14.318 15.318C14.9474 14.6887 15.7492 14.2601 16.6221 14.0865C17.495 13.9128 18.3998 14.002 19.2221 14.3425C20.0443 14.6831 20.7471 15.2599 21.2416 15.9999C21.7361 16.74 22 17.61 22 18.5C21.9987 19.6931 21.5241 20.8369 20.6805 21.6805C19.8369 22.5241 18.6931 22.9987 17.5 23ZM24 34H11C10.7348 34 10.4804 33.8946 10.2929 33.7071C10.1054 33.5196 10 33.2652 10 33V32.5C10 30.5109 10.7902 28.6032 12.1967 27.1967C13.6032 25.7902 15.5109 25 17.5 25C19.4891 25 21.3968 25.7902 22.8033 27.1967C24.2098 28.6032 25 30.5109 25 32.5V33C25 33.2652 24.8946 33.5196 24.7071 33.7071C24.5196 33.8946 24.2652 34 24 34ZM27.5 19C26.61 19 25.74 18.7361 24.9999 18.2416C24.2599 17.7471 23.6831 17.0443 23.3425 16.2221C23.0019 15.3998 22.9128 14.495 23.0865 13.6221C23.2601 12.7492 23.6887 11.9474 24.318 11.318C24.9474 10.6887 25.7492 10.2601 26.6221 10.0865C27.495 9.91283 28.3998 10.0019 29.2221 10.3425C30.0443 10.6831 30.7471 11.2599 31.2416 11.9999C31.7361 12.74 32 13.61 32 14.5C31.9987 15.6931 31.5241 16.8369 30.6805 17.6805C29.8369 18.5241 28.6931 18.9987 27.5 19ZM26.079 21.021C25.1476 21.146 24.2521 21.4619 23.4485 21.9491C22.6449 22.4362 21.9506 23.084 21.409 23.852C23.6499 24.8697 25.4106 26.7142 26.323 29H33C33.2652 29 33.5196 28.8946 33.7071 28.7071C33.8946 28.5196 34 28.2652 34 28V27.962C33.999 26.9652 33.7853 25.9801 33.3733 25.0725C32.9612 24.1648 32.3603 23.3555 31.6106 22.6986C30.8609 22.0416 29.9797 21.5522 29.0258 21.2629C28.0719 20.9736 27.0673 20.8911 26.079 21.021Z" fill="#7432FF"/>
</g>
<defs>
<clipPath id="clip0_576_1126">
<rect width="24" height="24" fill="white" transform="translate(10 10)"/>
</clipPath>
</defs>
</svg>
