<svg width="44" height="44" viewBox="0 0 44 44" fill="none" xmlns="http://www.w3.org/2000/svg">
<circle cx="22" cy="22" r="22" fill="#EAD6FF" fill-opacity="0.6"/>
<g clip-path="url(#clip0_576_1114)">
<path d="M32 24.537V23C32 20.794 30.206 19 28 19C25.794 19 24 20.794 24 23V24.537C22.805 25.23 22 26.523 22 28V30C22 32.206 23.794 34 26 34H30C32.206 34 34 32.206 34 30V28C34 26.523 33.195 25.23 32 24.537ZM28 30.5C27.172 30.5 26.5 29.828 26.5 29C26.5 28.172 27.172 27.5 28 27.5C28.828 27.5 29.5 28.172 29.5 29C29.5 29.828 28.828 30.5 28 30.5ZM30 24H26V23C26 21.897 26.897 21 28 21C29.103 21 30 21.897 30 23V24ZM18 22C21.309 22 24 19.309 24 16C24 12.691 21.309 10 18 10C14.691 10 12 12.691 12 16C12 19.309 14.691 22 18 22ZM20 30C20 31.535 20.58 32.938 21.532 34H11C10.448 34 10 33.552 10 33V32.271C10 28.156 12.993 24.511 17.083 24.052C18.043 23.944 18.974 24.008 19.849 24.216C20.465 24.362 20.736 25.055 20.486 25.636C20.174 26.362 20 27.161 20 28V30Z" fill="#7432FF"/>
</g>
<defs>
<clipPath id="clip0_576_1114">
<rect width="24" height="24" fill="white" transform="translate(10 10)"/>
</clipPath>
</defs>
</svg>
