<svg width="14" height="15" viewBox="0 0 14 15" fill="none" xmlns="http://www.w3.org/2000/svg">
<g id="trash 1" clip-path="url(#clip0_1122_1454)">
<g id="Group">
<path id="Vector" d="M12.2904 3.15015H10.5968C10.3354 1.87917 9.21735 0.966483 7.91975 0.964844H6.82709C5.5295 0.966483 4.41145 1.87917 4.15009 3.15015H2.45648C2.15475 3.15015 1.91016 3.39474 1.91016 3.69647C1.91016 3.9982 2.15475 4.24282 2.45648 4.24282H3.0028V11.3451C3.00461 12.853 4.22656 14.0749 5.73445 14.0767H9.01242C10.5203 14.0749 11.7423 12.853 11.7441 11.3451V4.24282H12.2904C12.5921 4.24282 12.8367 3.99822 12.8367 3.6965C12.8367 3.39477 12.5921 3.15015 12.2904 3.15015ZM6.82711 10.2524C6.82711 10.5542 6.58252 10.7988 6.28079 10.7988C5.97904 10.7988 5.73445 10.5542 5.73445 10.2524V6.97447C5.73445 6.67274 5.97904 6.42815 6.28077 6.42815C6.5825 6.42815 6.82709 6.67274 6.82709 6.97447V10.2524H6.82711ZM9.01242 10.2524C9.01242 10.5542 8.76783 10.7988 8.4661 10.7988C8.16437 10.7988 7.91978 10.5542 7.91978 10.2524V6.97447C7.91978 6.67274 8.16437 6.42815 8.4661 6.42815C8.76783 6.42815 9.01242 6.67274 9.01242 6.97447V10.2524ZM5.28155 3.15015C5.51393 2.49581 6.13275 2.05833 6.82711 2.05748H7.91978C8.61415 2.05833 9.23297 2.49581 9.46534 3.15015H5.28155Z" fill="#7432FF"/>
</g>
</g>
<defs>
<clipPath id="clip0_1122_1454">
<rect width="13.1119" height="13.1119" fill="white" transform="translate(0.817383 0.964966)"/>
</clipPath>
</defs>
</svg>
