<svg width="8" height="8" viewBox="0 0 8 8" fill="none" xmlns="http://www.w3.org/2000/svg">
<path id="Vector" d="M7.01749 1.00003C6.92372 0.906295 6.79657 0.853638 6.66399 0.853638C6.53141 0.853638 6.40425 0.906295 6.31049 1.00003L4.01749 3.29303L1.72449 1.00003C1.63072 0.906295 1.50357 0.853638 1.37099 0.853638C1.2384 0.853638 1.11125 0.906295 1.01749 1.00003C0.923752 1.09379 0.871094 1.22095 0.871094 1.35353C0.871094 1.48611 0.923752 1.61327 1.01749 1.70703L3.31049 4.00003L1.01749 6.29303C0.923752 6.3868 0.871094 6.51395 0.871094 6.64653C0.871094 6.77911 0.923752 6.90627 1.01749 7.00003C1.11125 7.09377 1.2384 7.14642 1.37099 7.14642C1.50357 7.14642 1.63072 7.09377 1.72449 7.00003L4.01749 4.70703L6.31049 7.00003C6.40425 7.09377 6.53141 7.14642 6.66399 7.14642C6.79657 7.14642 6.92372 7.09377 7.01749 7.00003C7.11122 6.90627 7.16388 6.77911 7.16388 6.64653C7.16388 6.51395 7.11122 6.3868 7.01749 6.29303L4.72449 4.00003L7.01749 1.70703C7.11122 1.61327 7.16388 1.48611 7.16388 1.35353C7.16388 1.22095 7.11122 1.09379 7.01749 1.00003Z" fill="#2E4157"/>
</svg>
