<svg width="45" height="23" viewBox="0 0 45 23" fill="none" xmlns="http://www.w3.org/2000/svg">
<path fill-rule="evenodd" clip-rule="evenodd" d="M29.6073 6.85558C29.076 6.65683 28.2434 6.44324 27.2031 6.44324C24.5524 6.44324 22.6846 7.77397 22.6689 9.67988C22.6544 11.0903 24.0019 11.8755 25.0198 12.3456C26.0637 12.8255 26.4151 13.1325 26.4096 13.5616C26.403 14.2191 25.5762 14.5194 24.8051 14.5194C23.7311 14.5194 23.161 14.3714 22.2798 14.0052L21.9338 13.849L21.5573 16.045C22.1846 16.3183 23.3424 16.5561 24.5457 16.5682C27.3661 16.5682 29.1971 15.2531 29.2174 13.2172C29.2272 12.1012 28.5129 11.2519 26.9656 10.5526C26.0272 10.0985 25.4532 9.79507 25.4595 9.33587C25.4595 8.929 25.9449 8.49206 26.995 8.49206C27.8735 8.47839 28.5082 8.66933 29.0031 8.86847L29.2441 8.98093L29.6073 6.85558ZM17.196 16.4226L18.8734 6.61429H21.5558L19.8776 16.4226H17.196ZM34.4144 6.62388H36.4875L38.6586 16.4252H36.1689C36.1689 16.4252 35.9233 15.2991 35.8429 14.9558C35.636 14.9558 34.7736 14.9547 33.9612 14.9537L33.9545 14.9537L33.9497 14.9537C33.2296 14.9528 32.5513 14.9519 32.407 14.9519C32.3028 15.2171 31.8424 16.4252 31.8424 16.4252H29.0248L33.0089 7.43724C33.2918 6.79803 33.7718 6.62388 34.4144 6.62388ZM33.1786 12.9457C33.4007 12.3807 34.2478 10.2034 34.2478 10.2034C34.24 10.2162 34.2922 10.0811 34.3634 9.89676L34.3635 9.89649C34.4382 9.70315 34.5338 9.45564 34.6032 9.26742L34.7842 10.1132C34.7842 10.1132 35.2983 12.4541 35.4061 12.9457H33.1786ZM12.3196 13.3099L14.9456 6.62142H17.7872L13.5641 16.4106L10.7253 16.4145L8.32422 7.8358C10.0271 8.68547 11.5509 10.3833 12.0395 11.9506L12.3196 13.3099Z" fill="#1A1F71"/>
<path fill-rule="evenodd" clip-rule="evenodd" d="M9.88307 6.61499H5.55655L5.52246 6.81882C8.88823 7.63139 11.1154 9.59314 12.0397 11.9508L11.0989 7.4428C10.9367 6.82155 10.4653 6.63647 9.88307 6.61499Z" fill="#F9A51A"/>
</svg>
