<svg width="17" height="17" viewBox="0 0 17 17" fill="none" xmlns="http://www.w3.org/2000/svg">
<g id="icons8-whatsapp 1">
<path id="Vector" d="M13.5241 3.41296C12.1361 2.0243 10.2427 1.32363 8.25475 1.48363C5.58208 1.6983 3.23942 3.55696 2.45542 6.12096C1.89542 7.95296 2.13075 9.86563 3.04275 11.4456L2.17875 14.3143C2.09608 14.5896 2.34742 14.849 2.62542 14.775L5.62808 13.9703C6.60075 14.501 7.69542 14.7803 8.81008 14.781H8.81275C11.6094 14.781 14.1934 13.0703 15.0874 10.4203C15.9581 7.8363 15.3141 5.20496 13.5241 3.41296ZM12.0714 10.497C11.9327 10.8856 11.2534 11.2603 10.9481 11.2876C10.6427 11.3156 10.3567 11.4256 8.95142 10.8716C7.26008 10.205 6.19208 8.47096 6.10942 8.3603C6.02608 8.24896 5.43008 7.4583 5.43008 6.63963C5.43008 5.82096 5.86008 5.4183 6.01275 5.2523C6.16542 5.08563 6.34542 5.0443 6.45675 5.0443C6.56742 5.0443 6.67875 5.0443 6.77542 5.0483C6.89408 5.05296 7.02542 5.05896 7.15008 5.33563C7.29808 5.66496 7.62142 6.48763 7.66275 6.57096C7.70408 6.6543 7.73208 6.75163 7.67675 6.8623C7.62142 6.97296 7.59342 7.0423 7.51075 7.13963C7.42742 7.23696 7.33608 7.3563 7.26142 7.43096C7.17808 7.51363 7.09142 7.6043 7.18808 7.7703C7.28542 7.93696 7.61875 8.48163 8.11342 8.9223C8.74942 9.48897 9.28475 9.6643 9.45142 9.7483C9.61808 9.83163 9.71475 9.81763 9.81208 9.7063C9.90942 9.59563 10.2281 9.22096 10.3387 9.0543C10.4494 8.88763 10.5607 8.91563 10.7134 8.97096C10.8661 9.0263 11.6841 9.42896 11.8501 9.5123C12.0167 9.59563 12.1274 9.63696 12.1687 9.7063C12.2101 9.77496 12.2101 10.1083 12.0714 10.497Z" fill="#7432FF"/>
</g>
</svg>
